<mxfile host="Electron" modified="2023-08-23T02:04:45.544Z" agent="Mozilla/5.0 (X11; Linux x86_64) AppleWebKit/537.36 (KHTML, like Gecko) draw.io/21.6.1 Chrome/112.0.5615.204 Electron/24.6.1 Safari/537.36" etag="htQNrn__mbGL3fUWqyFi" version="21.6.1" type="device">
  <diagram name="第1頁" id="VTTos6iMK5g1FYhDE3f9">
    <mxGraphModel dx="4947" dy="5709" grid="1" gridSize="10" guides="1" tooltips="1" connect="1" arrows="1" fold="1" page="1" pageScale="1" pageWidth="850" pageHeight="1100" math="1" shadow="0">
      <root>
        <mxCell id="0" />
        <mxCell id="1" parent="0" />
        <mxCell id="2" value="" style="group;strokeWidth=4;fontFamily=Times New Roman;" parent="1" vertex="1" connectable="0">
          <mxGeometry x="700" y="160" width="460" height="40" as="geometry" />
        </mxCell>
        <mxCell id="3" value="" style="rounded=0;whiteSpace=wrap;html=1;strokeWidth=4;fontFamily=Times New Roman;" parent="2" vertex="1">
          <mxGeometry x="50" width="120" height="40" as="geometry" />
        </mxCell>
        <mxCell id="4" value="&lt;font style=&quot;font-size: 28px;&quot;&gt;32&amp;nbsp; &amp;nbsp;&lt;/font&gt;" style="rounded=1;whiteSpace=wrap;html=1;container=0;strokeWidth=4;align=right;fontFamily=Times New Roman;" parent="2" vertex="1">
          <mxGeometry width="420" height="40" as="geometry" />
        </mxCell>
        <mxCell id="5" value="" style="rounded=0;whiteSpace=wrap;html=1;fillColor=#B9E0A5;strokeWidth=4;fontFamily=Times New Roman;" parent="2" vertex="1">
          <mxGeometry x="160" width="120" height="40" as="geometry" />
        </mxCell>
        <mxCell id="6" value="" style="rounded=0;whiteSpace=wrap;html=1;fillColor=#FFE599;strokeWidth=4;fontFamily=Times New Roman;" parent="2" vertex="1">
          <mxGeometry x="40" width="120" height="40" as="geometry" />
        </mxCell>
        <mxCell id="7" value="" style="endArrow=classic;html=1;rounded=0;exitX=1;exitY=0.5;exitDx=0;exitDy=0;entryX=1;entryY=0;entryDx=0;entryDy=0;strokeWidth=3;fontFamily=Times New Roman;" parent="1" target="6" edge="1">
          <mxGeometry width="50" height="50" relative="1" as="geometry">
            <mxPoint x="596" y="-82" as="sourcePoint" />
            <mxPoint x="970" y="50" as="targetPoint" />
            <Array as="points">
              <mxPoint x="860" y="-80" />
            </Array>
          </mxGeometry>
        </mxCell>
        <mxCell id="8" value="vvvvvvvvvvv" style="group;strokeWidth=4;fontFamily=Times New Roman;" parent="1" vertex="1" connectable="0">
          <mxGeometry x="700" y="760" width="460" height="40" as="geometry" />
        </mxCell>
        <mxCell id="9" value="" style="rounded=0;whiteSpace=wrap;html=1;strokeWidth=4;fontFamily=Times New Roman;" parent="8" vertex="1">
          <mxGeometry x="50" width="120" height="40" as="geometry" />
        </mxCell>
        <mxCell id="10" value="" style="rounded=1;whiteSpace=wrap;html=1;container=0;strokeWidth=4;fontFamily=Times New Roman;" parent="8" vertex="1">
          <mxGeometry width="420" height="40" as="geometry" />
        </mxCell>
        <mxCell id="11" value="" style="rounded=0;whiteSpace=wrap;html=1;fillColor=#B9E0A5;strokeWidth=4;fontFamily=Times New Roman;" parent="8" vertex="1">
          <mxGeometry x="160" width="120" height="40" as="geometry" />
        </mxCell>
        <mxCell id="12" value="" style="rounded=0;whiteSpace=wrap;html=1;fillColor=#FFE599;strokeWidth=4;fontFamily=Times New Roman;" parent="8" vertex="1">
          <mxGeometry x="40" width="120" height="40" as="geometry" />
        </mxCell>
        <mxCell id="13" value="" style="group;strokeWidth=4;fontFamily=Times New Roman;" parent="1" vertex="1" connectable="0">
          <mxGeometry x="700" y="800" width="460" height="40" as="geometry" />
        </mxCell>
        <mxCell id="14" value="" style="rounded=0;whiteSpace=wrap;html=1;strokeWidth=4;fontFamily=Times New Roman;" parent="13" vertex="1">
          <mxGeometry x="50" width="120" height="40" as="geometry" />
        </mxCell>
        <mxCell id="15" value="" style="rounded=1;whiteSpace=wrap;html=1;container=0;strokeWidth=4;fontFamily=Times New Roman;" parent="13" vertex="1">
          <mxGeometry width="420" height="40" as="geometry" />
        </mxCell>
        <mxCell id="16" value="" style="rounded=0;whiteSpace=wrap;html=1;fillColor=#B9E0A5;strokeWidth=4;fontFamily=Times New Roman;" parent="13" vertex="1">
          <mxGeometry x="160" width="120" height="40" as="geometry" />
        </mxCell>
        <mxCell id="17" value="" style="rounded=0;whiteSpace=wrap;html=1;fillColor=#FFE599;strokeWidth=4;fontFamily=Times New Roman;" parent="13" vertex="1">
          <mxGeometry x="40" width="120" height="40" as="geometry" />
        </mxCell>
        <mxCell id="18" value="" style="group;strokeWidth=4;fontFamily=Times New Roman;" parent="1" vertex="1" connectable="0">
          <mxGeometry x="700" y="840" width="460" height="40" as="geometry" />
        </mxCell>
        <mxCell id="19" value="" style="rounded=0;whiteSpace=wrap;html=1;strokeWidth=4;fontFamily=Times New Roman;" parent="18" vertex="1">
          <mxGeometry x="50" width="120" height="40" as="geometry" />
        </mxCell>
        <mxCell id="20" value="" style="rounded=1;whiteSpace=wrap;html=1;container=0;strokeWidth=4;fontFamily=Times New Roman;" parent="18" vertex="1">
          <mxGeometry width="420" height="40" as="geometry" />
        </mxCell>
        <mxCell id="21" value="" style="rounded=0;whiteSpace=wrap;html=1;fillColor=#B9E0A5;strokeWidth=4;fontFamily=Times New Roman;" parent="18" vertex="1">
          <mxGeometry x="160" width="120" height="40" as="geometry" />
        </mxCell>
        <mxCell id="22" value="" style="rounded=0;whiteSpace=wrap;html=1;fillColor=#FFE599;strokeWidth=4;fontFamily=Times New Roman;" parent="18" vertex="1">
          <mxGeometry x="40" width="120" height="40" as="geometry" />
        </mxCell>
        <mxCell id="23" value="" style="endArrow=classic;html=1;rounded=0;exitX=0;exitY=0.5;exitDx=0;exitDy=0;strokeWidth=3;entryX=0.5;entryY=0;entryDx=0;entryDy=0;fontFamily=Times New Roman;" parent="1" target="30" edge="1">
          <mxGeometry width="50" height="50" relative="1" as="geometry">
            <mxPoint x="340" y="-82" as="sourcePoint" />
            <mxPoint x="30" y="80" as="targetPoint" />
            <Array as="points">
              <mxPoint x="20" y="-80" />
            </Array>
          </mxGeometry>
        </mxCell>
        <mxCell id="24" value="&lt;font style=&quot;font-size: 24px;&quot;&gt;channels concat&lt;br&gt;1 x 1, 32&lt;br&gt;&lt;/font&gt;" style="rounded=1;whiteSpace=wrap;html=1;strokeWidth=3;fillColor=#e1d5e7;strokeColor=#000000;fontFamily=Times New Roman;" parent="1" vertex="1">
          <mxGeometry x="349.5" y="489" width="237" height="61" as="geometry" />
        </mxCell>
        <mxCell id="25" style="edgeStyle=orthogonalEdgeStyle;rounded=0;orthogonalLoop=1;jettySize=auto;html=1;entryX=0;entryY=0.5;entryDx=0;entryDy=0;strokeWidth=3;exitX=0.5;exitY=1;exitDx=0;exitDy=0;fontFamily=Times New Roman;" parent="1" source="26" target="31" edge="1">
          <mxGeometry relative="1" as="geometry">
            <mxPoint x="20" y="900" as="sourcePoint" />
          </mxGeometry>
        </mxCell>
        <mxCell id="26" value="&lt;font style=&quot;font-size: 28px;&quot;&gt;1 x 1 Conv&lt;/font&gt;" style="rounded=1;whiteSpace=wrap;html=1;container=0;strokeWidth=4;fillColor=#b1ddf0;strokeColor=#000000;fontFamily=Times New Roman;" parent="1" vertex="1">
          <mxGeometry x="-190" y="760" width="420" height="120" as="geometry" />
        </mxCell>
        <mxCell id="27" value="" style="edgeStyle=none;html=1;strokeWidth=3;strokeColor=#FFFFFF;fontFamily=Times New Roman;" parent="1" source="28" target="104" edge="1">
          <mxGeometry relative="1" as="geometry" />
        </mxCell>
        <mxCell id="28" value="&lt;font style=&quot;font-size: 28px;&quot;&gt;3 x 3 Conv&lt;/font&gt;" style="rounded=1;whiteSpace=wrap;html=1;container=0;strokeWidth=4;fillColor=#b1ddf0;strokeColor=#000000;fontFamily=Times New Roman;" parent="1" vertex="1">
          <mxGeometry x="-190" y="200" width="420" height="40" as="geometry" />
        </mxCell>
        <mxCell id="29" value="" style="edgeStyle=none;html=1;strokeWidth=3;strokeColor=#FFFFFF;fontFamily=Times New Roman;" parent="1" source="30" target="28" edge="1">
          <mxGeometry relative="1" as="geometry" />
        </mxCell>
        <mxCell id="30" value="&lt;font style=&quot;font-size: 28px;&quot;&gt;3 x 3 Conv&lt;/font&gt;" style="rounded=1;whiteSpace=wrap;html=1;container=0;strokeWidth=4;fillColor=#b1ddf0;strokeColor=#000000;fontFamily=Times New Roman;" parent="1" vertex="1">
          <mxGeometry x="-190" y="160" width="420" height="40" as="geometry" />
        </mxCell>
        <mxCell id="31" value="&lt;font style=&quot;font-size: 24px;&quot;&gt;channels concat&lt;br&gt;1 x 1, 32&lt;br&gt;&lt;/font&gt;" style="rounded=1;whiteSpace=wrap;html=1;strokeWidth=3;fillColor=#e1d5e7;strokeColor=#000000;fontFamily=Times New Roman;" parent="1" vertex="1">
          <mxGeometry x="359" y="930" width="237" height="61" as="geometry" />
        </mxCell>
        <mxCell id="32" value="&lt;font style=&quot;font-size: 24px;&quot;&gt;channels concat&lt;br&gt;1 x 1, 32&lt;br&gt;&lt;/font&gt;" style="rounded=1;whiteSpace=wrap;html=1;strokeWidth=3;fillColor=#e1d5e7;strokeColor=#000000;fontFamily=Times New Roman;" parent="1" vertex="1">
          <mxGeometry x="349.5" y="690" width="237" height="61" as="geometry" />
        </mxCell>
        <mxCell id="33" value="" style="endArrow=classic;html=1;rounded=0;strokeWidth=3;fontFamily=Times New Roman;" parent="1" edge="1">
          <mxGeometry width="50" height="50" relative="1" as="geometry">
            <mxPoint x="860" y="520" as="sourcePoint" />
            <mxPoint x="590" y="520" as="targetPoint" />
          </mxGeometry>
        </mxCell>
        <mxCell id="34" value="" style="endArrow=none;html=1;rounded=0;entryX=0.5;entryY=1;entryDx=0;entryDy=0;exitX=0.5;exitY=0;exitDx=0;exitDy=0;strokeWidth=3;fontFamily=Times New Roman;" parent="1" source="106" target="104" edge="1">
          <mxGeometry width="50" height="50" relative="1" as="geometry">
            <mxPoint x="19.5" y="360" as="sourcePoint" />
            <mxPoint x="19.5" y="280" as="targetPoint" />
          </mxGeometry>
        </mxCell>
        <mxCell id="35" value="" style="endArrow=none;html=1;rounded=0;entryX=0.5;entryY=1;entryDx=0;entryDy=0;exitX=0.5;exitY=0;exitDx=0;exitDy=0;strokeWidth=3;fontFamily=Times New Roman;" parent="1" source="105" target="107" edge="1">
          <mxGeometry width="50" height="50" relative="1" as="geometry">
            <mxPoint x="-330" y="510" as="sourcePoint" />
            <mxPoint x="-330" y="430" as="targetPoint" />
          </mxGeometry>
        </mxCell>
        <mxCell id="36" value="" style="endArrow=none;html=1;rounded=0;entryX=0.5;entryY=1;entryDx=0;entryDy=0;exitX=0.5;exitY=0;exitDx=0;exitDy=0;strokeWidth=3;fontFamily=Times New Roman;" parent="1" source="107" target="106" edge="1">
          <mxGeometry width="50" height="50" relative="1" as="geometry">
            <mxPoint x="-310" y="300" as="sourcePoint" />
            <mxPoint x="-310" y="220" as="targetPoint" />
          </mxGeometry>
        </mxCell>
        <mxCell id="37" value="" style="endArrow=classic;html=1;rounded=0;entryX=0;entryY=0.5;entryDx=0;entryDy=0;strokeWidth=3;fontFamily=Times New Roman;" parent="1" target="24" edge="1">
          <mxGeometry width="50" height="50" relative="1" as="geometry">
            <mxPoint x="20" y="520" as="sourcePoint" />
            <mxPoint x="310" y="320" as="targetPoint" />
          </mxGeometry>
        </mxCell>
        <mxCell id="38" value="" style="endArrow=classic;html=1;rounded=0;strokeWidth=3;fontFamily=Times New Roman;" parent="1" edge="1">
          <mxGeometry width="50" height="50" relative="1" as="geometry">
            <mxPoint x="19.5" y="720" as="sourcePoint" />
            <mxPoint x="350" y="720" as="targetPoint" />
          </mxGeometry>
        </mxCell>
        <mxCell id="39" value="" style="endArrow=classic;html=1;rounded=0;strokeWidth=3;fontFamily=Times New Roman;" parent="1" target="32" edge="1">
          <mxGeometry width="50" height="50" relative="1" as="geometry">
            <mxPoint x="860" y="720" as="sourcePoint" />
            <mxPoint x="586.5" y="720" as="targetPoint" />
          </mxGeometry>
        </mxCell>
        <mxCell id="40" style="edgeStyle=orthogonalEdgeStyle;rounded=0;orthogonalLoop=1;jettySize=auto;html=1;exitX=1;exitY=1;exitDx=0;exitDy=0;strokeWidth=3;entryX=1;entryY=0.5;entryDx=0;entryDy=0;fontFamily=Times New Roman;" parent="1" target="31" edge="1">
          <mxGeometry relative="1" as="geometry">
            <mxPoint x="860" y="960" as="targetPoint" />
            <Array as="points">
              <mxPoint x="860" y="961" />
            </Array>
            <mxPoint x="860" y="280" as="sourcePoint" />
          </mxGeometry>
        </mxCell>
        <mxCell id="41" style="edgeStyle=orthogonalEdgeStyle;orthogonalLoop=1;jettySize=auto;html=1;exitX=0.5;exitY=1;exitDx=0;exitDy=0;rounded=0;jumpStyle=arc;jumpSize=18;startSize=18;strokeWidth=3;entryX=0.071;entryY=0.006;entryDx=0;entryDy=0;entryPerimeter=0;fontFamily=Times New Roman;" parent="1" source="24" target="46" edge="1">
          <mxGeometry relative="1" as="geometry">
            <mxPoint x="270" y="1080" as="targetPoint" />
            <Array as="points">
              <mxPoint x="468" y="630" />
              <mxPoint x="269" y="630" />
            </Array>
          </mxGeometry>
        </mxCell>
        <mxCell id="42" style="edgeStyle=orthogonalEdgeStyle;rounded=0;orthogonalLoop=1;jettySize=auto;html=1;exitX=0.5;exitY=1;exitDx=0;exitDy=0;strokeWidth=3;jumpStyle=arc;jumpSize=18;entryX=0.5;entryY=0;entryDx=0;entryDy=0;fontFamily=Times New Roman;" parent="1" source="32" target="48" edge="1">
          <mxGeometry relative="1" as="geometry">
            <mxPoint x="660" y="1100" as="targetPoint" />
            <Array as="points">
              <mxPoint x="468" y="840" />
              <mxPoint x="660" y="840" />
            </Array>
          </mxGeometry>
        </mxCell>
        <mxCell id="43" value="" style="endArrow=none;html=1;rounded=0;entryX=0.5;entryY=1;entryDx=0;entryDy=0;strokeWidth=3;fontFamily=Times New Roman;" parent="1" source="51" target="31" edge="1">
          <mxGeometry width="50" height="50" relative="1" as="geometry">
            <mxPoint x="477.5" y="1040" as="sourcePoint" />
            <mxPoint x="600" y="1070" as="targetPoint" />
          </mxGeometry>
        </mxCell>
        <mxCell id="44" value="" style="endArrow=classic;html=1;rounded=0;exitX=0.5;exitY=1;exitDx=0;exitDy=0;entryX=0.5;entryY=0;entryDx=0;entryDy=0;strokeWidth=3;fontFamily=Times New Roman;" parent="1" source="51" target="46" edge="1">
          <mxGeometry width="50" height="50" relative="1" as="geometry">
            <mxPoint x="477.5" y="1100" as="sourcePoint" />
            <mxPoint x="600" y="1070" as="targetPoint" />
          </mxGeometry>
        </mxCell>
        <mxCell id="45" value="" style="edgeStyle=orthogonalEdgeStyle;rounded=0;orthogonalLoop=1;jettySize=auto;html=1;strokeWidth=3;fontFamily=Times New Roman;" parent="1" source="46" target="54" edge="1">
          <mxGeometry relative="1" as="geometry" />
        </mxCell>
        <mxCell id="46" value="&lt;font style=&quot;font-size: 24px;&quot;&gt;channels concat&lt;br&gt;1 x 1, 32&lt;br&gt;&lt;/font&gt;" style="rounded=1;whiteSpace=wrap;html=1;strokeWidth=3;fillColor=#e1d5e7;strokeColor=#000000;fontFamily=Times New Roman;" parent="1" vertex="1">
          <mxGeometry x="235" y="1160" width="485" height="61" as="geometry" />
        </mxCell>
        <mxCell id="47" value="" style="group;strokeWidth=3;fontFamily=Times New Roman;" parent="1" vertex="1" connectable="0">
          <mxGeometry x="600" y="1040" width="120" height="60" as="geometry" />
        </mxCell>
        <mxCell id="48" value="&lt;font style=&quot;font-size: 24px;&quot;&gt;&amp;nbsp; &amp;nbsp; &amp;nbsp; &amp;nbsp;2&lt;/font&gt;" style="rounded=1;whiteSpace=wrap;html=1;align=center;strokeWidth=3;fontFamily=Times New Roman;" parent="47" vertex="1">
          <mxGeometry width="120" height="60" as="geometry" />
        </mxCell>
        <mxCell id="49" value="" style="endArrow=classic;html=1;rounded=0;strokeWidth=3;fontFamily=Times New Roman;" parent="47" edge="1">
          <mxGeometry width="50" height="50" relative="1" as="geometry">
            <mxPoint x="40" y="50" as="sourcePoint" />
            <mxPoint x="40" y="10" as="targetPoint" />
          </mxGeometry>
        </mxCell>
        <mxCell id="50" value="" style="group;strokeWidth=3;fontFamily=Times New Roman;" parent="1" vertex="1" connectable="0">
          <mxGeometry x="417.5" y="1040" width="120" height="60" as="geometry" />
        </mxCell>
        <mxCell id="51" value="&lt;span style=&quot;font-size: 24px;&quot;&gt;&amp;nbsp; &amp;nbsp; &amp;nbsp; 4&lt;/span&gt;" style="rounded=1;whiteSpace=wrap;html=1;align=center;strokeWidth=3;fontFamily=Times New Roman;" parent="50" vertex="1">
          <mxGeometry width="120" height="60" as="geometry" />
        </mxCell>
        <mxCell id="52" value="" style="endArrow=classic;html=1;rounded=0;strokeWidth=3;fontFamily=Times New Roman;" parent="50" edge="1">
          <mxGeometry width="50" height="50" relative="1" as="geometry">
            <mxPoint x="40" y="50" as="sourcePoint" />
            <mxPoint x="40" y="10" as="targetPoint" />
          </mxGeometry>
        </mxCell>
        <mxCell id="53" value="" style="group;strokeWidth=3;fontFamily=Times New Roman;" parent="1" vertex="1" connectable="0">
          <mxGeometry x="420" y="1270" width="120" height="60" as="geometry" />
        </mxCell>
        <mxCell id="54" value="&lt;span style=&quot;font-size: 24px;&quot;&gt;&amp;nbsp; &amp;nbsp; &amp;nbsp; 8&lt;/span&gt;" style="rounded=1;whiteSpace=wrap;html=1;align=center;strokeWidth=3;fontFamily=Times New Roman;" parent="53" vertex="1">
          <mxGeometry x="-2.5" width="120" height="60" as="geometry" />
        </mxCell>
        <mxCell id="55" value="" style="endArrow=classic;html=1;rounded=0;strokeWidth=3;fontFamily=Times New Roman;" parent="53" edge="1">
          <mxGeometry width="50" height="50" relative="1" as="geometry">
            <mxPoint x="40" y="50" as="sourcePoint" />
            <mxPoint x="40" y="10" as="targetPoint" />
          </mxGeometry>
        </mxCell>
        <mxCell id="56" value="" style="edgeStyle=orthogonalEdgeStyle;rounded=0;orthogonalLoop=1;jettySize=auto;html=1;strokeWidth=3;fontFamily=Times New Roman;" parent="1" source="48" edge="1">
          <mxGeometry relative="1" as="geometry">
            <mxPoint x="660" y="1160" as="targetPoint" />
          </mxGeometry>
        </mxCell>
        <mxCell id="57" value="" style="shape=image;verticalLabelPosition=bottom;labelBackgroundColor=default;verticalAlign=top;aspect=fixed;imageAspect=0;image=data:image/jpeg,/9j/4AAQSkZJRgABAQAAAQABAAD/2wBDAAgGBgcGBQgHBwcJCQgKDBQNDAsLDBkSEw8UHRofHh0aHBwgJC4nICIsIxwcKDcpLDAxNDQ0Hyc5PTgyPC4zNDL/2wBDAQkJCQwLDBgNDRgyIRwhMjIyMjIyMjIyMjIyMjIyMjIyMjIyMjIyMjIyMjIyMjIyMjIyMjIyMjIyMjIyMjIyMjL/wAARCAEAAQADASIAAhEBAxEB/8QAHwAAAQUBAQEBAQEAAAAAAAAAAAECAwQFBgcICQoL/8QAtRAAAgEDAwIEAwUFBAQAAAF9AQIDAAQRBRIhMUEGE1FhByJxFDKBkaEII0KxwRVS0fAkM2JyggkKFhcYGRolJicoKSo0NTY3ODk6Q0RFRkdISUpTVFVWV1hZWmNkZWZnaGlqc3R1dnd4eXqDhIWGh4iJipKTlJWWl5iZmqKjpKWmp6ipqrKztLW2t7i5usLDxMXGx8jJytLT1NXW19jZ2uHi4+Tl5ufo6erx8vP09fb3+Pn6/8QAHwEAAwEBAQEBAQEBAQAAAAAAAAECAwQFBgcICQoL/8QAtREAAgECBAQDBAcFBAQAAQJ3AAECAxEEBSExBhJBUQdhcRMiMoEIFEKRobHBCSMzUvAVYnLRChYkNOEl8RcYGRomJygpKjU2Nzg5OkNERUZHSElKU1RVVldYWVpjZGVmZ2hpanN0dXZ3eHl6goOEhYaHiImKkpOUlZaXmJmaoqOkpaanqKmqsrO0tba3uLm6wsPExcbHyMnK0tPU1dbX2Nna4uPk5ebn6Onq8vP09fb3+Pn6/9oADAMBAAIRAxEAPwD5/ooooAKKKKACiiigAooooAKKKKACiiigAooooAKKKKACiiigAooooAKKKKACiiigAooooAKKKKACiiigAooooAKKKKACiiigAooooAKKKKACiiigAooooAKKKKACiiigAooooAKKKKACiiigAooooAKKKKACiiigAooooAKKKKACiiigAooooAKKKKACiiigAooooAKKKKACiiigAp8UMs77IYnkY/wopJ/Sug8G+Eb7xdrMdpaxM0YP7xhxgema+ofDfws8P6LZIkljG8uBnJJ5GOvrQB81eG/hn4p8US7bLT2ij7zXIKJ+eK9Ht/2ar5owbnxHbo5HIjtiwH4lhmvoS2toLOBYLeJY4l6Ko4FS0AfPN3+zVdKh+x+IoXbsJoCo/QmvNvF3w08ReDpgLy28+Bvuz24LKfrxX2fVTU9MtdX06axvIllglXBVh+tAHwXRXY/Erwr/AMIr4uuraFCto7FovT6CuOoAKKljt55QTHDI4HUqpNREEHBGCKACiiigAooooAKKKKACiiigAooooAKKKKACiiigAooooAKKKKACiigAk4AyTQAVpaFoWoeItUisNOtpJpXYA7R90E9TXdfD/wCEOo+LJkub0tbaeMFm/iI44r6V8NeDtE8J2gg0qzSM/wAUpALt+NAFDwF4Hs/BuixW6IrXRUGR/Q45FdbRRQAUUUUAFFFFAHB+Ovhjp3jRhNI3lTjGW6ZxXOaD+z/oOnXKT6hPJebTnyzwtev0UAY8XhXQYIPJj0m1CEAYMYP61yviL4N+FNdjkaOzFncP0khr0KigD418ffDrUvBd+++JnsGx5cu4H+VcVX3P4k8M6b4q0mTT9ShDxsPlcfeQ+or5O+IPw41TwPqLb42m06Q/ublRlceh9DQBxNFFFABRRRQAUUUUAFFFFABRRRQAUUUUAFFFFABRRRQAV6f8K/h1ceI79L66ti1mpBBJwOvWuE8O6PNruvWmnwRmRpHG5QQPlzz1r7S8L6Hb6DoVtaQRhSI13HGCTigC/p2nW2l2MdpaxhIoxgD196tUUUAFFFFABRRRQAUUUUAFFFFABRRRQAVS1bSLHXNNl0/UbdLi2lGGRxn8R6GrtFAHzr4z/Z6u7dpr3wrcrPCPmFlO2JB7K3Rvxx/j4hd2lzYXctreW8tvcRNtkilQqyH0IPIr75rjfHvw30bx9YhbsG21CJSIL6JAXXr8rD+JcnOMj2IyaAPjKit/xZ4L1zwVqQs9atPK8zcYZ0O6KYA4JRvyODgjIyBmsCgAooooAKKKKACiiigAooooAKKKKACiiigD0/4H6SuoeMhO6b1hA6NgjJ6/pX1hXzB8BUH9vyOWwquO4GK+n6ACiiigAooooAKKCQBknApFYMMqQR6g0ALRRRQAUUUUAFFFFABRRRQAUUUUAYvinwrpPjDRZdL1e3EkTZMci8PC+OHQ9iPyPQgjIr4u8R6DeeGPEN7ot+FFzaSbGKnIYEAqw9ipBHfmvuuvk349W8cPxTu5EzumtoXfPrt2+noo9f6AA8yooooAKKKKACiiigAooooAKKKKACiiigDu/hTqD2vi2GAAsshBwG285HuK+wYmDQow6FQa+FvD14LDxBY3BBISZc4OOvFfbmh30Wo6LaXMJBR4l757UAaFFFFABTXdY0Z2OFUZJNOrC8ValHY6TIpk2ySDAA64oAxta8U75ZLaCUKo6MvU1PoWtTPJHCWDrydo4yPqa8sfWGa9bDjBJwFHWul8N635kqxK4BHJAGP1oA9cBDAEHINLVbT5fOso346Y4qzQAUUUUAFFFFABRRRQAUUUUAFfF3xQ1m31/wCJWuahaEG3acRIwYMHEaLHuBHUHZkexFfSfxZ8ejwN4VZrWULrF7mOxBj3BSCN7nPHyhuM55K8EZr4+oAKKKKACiiigAooooAKKKKACiiigAooooAK+j/gx46iXRotMvJshOBk/d4HNfOFXtN1S40u4WaBjlckDOOSMUAfdaXdtIu5LiJlAySHHFVbvXNMsVJuL2BcDON4r5Bj+JXiGKZDHclYkziPce/vWff+NNav5Axu3jAzgKaAPqy6+I+jRybYZ1YAZ3HHP61554r8cQ385aKZVjbphuT+teA22o3cU0e2ZjhuATXQ2BvbyKE+YdgP3scnJoA6Y37TSI6MBGDkbT610/hq6mE8KoCAM/dNLoXg+7l01HK4UAbT/OvTvDvg9rIKZlCBegHX+dAG9oFyv2CKFsA4+Xnr61sVTWxSIYiG0A8AE59+9W1GFAznAoAWiiigAooooAKKKKACuE8f/FXRPAkTQORfav8AKVsI32kA93bBCDHIyMnjjHI5H4w/Fy48OXJ8P+HZoxqG3/SrgfMYMgYVQRjdg5z24r5rkkeWRpJHZ3clmZjkknqSaANTxJ4j1PxXrk+r6tP5t1LgYUYVFHRVHYD/AOuckk1k0UUAFFFFABRRRQAUUUUAFFFFABRRRQAUUUUAWdOsJ9T1G3sbZS007hFA969qP7P99Ja70IRsDCGUZ5Azzj1rz74UWovPifoMRTcouN5GM8KpP9K+zaAPme3/AGe9beZvOmRYweMSDLfp9a1ZP2c5fIdk1BPM42pv9+edtfQdFAHzxb/s93ttIJHuI7jByFEmMcjviuu0D4THTZYVnSMxIeMPkrXrNFAFSx0620+2SCCMBVGM1boooAKKKKACiiigAooooAK4D4o/EKDwXoMi28qnVZhthjxnbn+Kr/jj4gaV4OsJfOnU3u07IhyQccZr5N8V+Kb/AMV6zNf3srNuPyKeiigDIurqa9u5rq4cvNM5d2J6k1DRRQAUUUUAFFFFABRRRQAUUUUAFFFFABRRXofw9+EeseOR9tkf+z9JVgDcyoS0vr5Y749c4+vIoA89VWdgqqWYnAAGSTXW6R8MPGuuAPZ+HrxYyR+8uFECkHuC+Mj6Zr6p8JfD/wAO+DLRI9LsUNyB895MA0zn3bt9BgV1FAHj/wAKPg/c+DdTOt61cQSX4jKQxQMWWMNwSSQMnHHHrXsFFFABRRRQAUUUUAFFFFABSMyopZiFUDJJOABVPVtWsND0ybUtTuo7WzgGZJZDwOw9ySeABya+afiJ8bdR8RPcaboLPZ6U2F8zG2WQd8nsD6UAfSCeItGkuTbrqloZR1XzRWgkschISRWI64Oa+C0vruOUSpdTLIDkMHOa6fw98R9f0C5jkW8lmjTgIzYwO/NAH2hWXrmt22jWEs0si+aFJRM8k14T4b+OV44jt76Vt5yBlN2Px7/0qpr/AIzl1a8aW4umZcf6vaflG31xzmgDzrxzq91q3ie6e4lLqrfIvpkCuaq5qrBtTnIxgtVOgAooooAKKKKACiiigAooooAKKKKACiiigD0/4HeELLxR4wkudQ2yW+mIs/2dkDLKxOFBz2B59+K+r0RY0VEUKijCqowAPQV8W/DvxnJ4G8Vw6oUkltSrR3EKHl1I7cgZBwea+hLf4+eCJrcyPPewsBkxvb89M4GDjtQB6fRXi99+0h4fhuNllo+oXMY/5aOUjz9Bk/0rjte/aK1+8Hl6LYW+nLz+8k/eufTgjA/WgD6Zor43f4v+PXlEn/CR3AIzgCOMD8tvP41b/wCF3/ELy1Qa8oK/xfY4Mn6/JQB9e1navr+kaDb+fq2pWtlHgkGeUKWx1wDyT7CvjfVPiJ4w1gv9t8R6iyuMNHHMYkI91TA/SuZJJJJOSepoA+k/F37QulWIltfDNs2oTYAF3KpSIHvhThmx+A+tUfh78c59S1j7F4nmhiSXiORUCqp9zXz1SglWDKSCDkEdqAPv0EMoZSCCMgjvVDWdc0zw/p0t/q17DaWsalmeQ9fYDqx9hkmvjmz+JPjOwtEtbbxHfpCg2qpk3YH1PPesTU9a1XWpRLqmpXd646G4mZ8fTJ4oA634m/Ei88faz8nmQaNbt/olq2M9MF3x1Y/kBwO5PCUUUAFFFFAEttIIrmN2ztVgTj0ruNPaC4t5CZVYIFLDGNuR16c5rgqs2t9cWZPkvgHqCMigCzqdosd7cKjLiMjcee/4Vm1aE3nsTLIqHjnZnP8AnNXrGziurGRfMUN645H+NAGPRSsNrEehxSUAFFFFABRRRQAUUUUAFFFFABRRRQAUUUUAFFFFABRRRQAUUUUAFFFFABRRRQAUUUUAFFFFABRRRQAVesdRmtTsWTanrjoao0UAK5BdiOhNJRRQAUUUUAFFFFABRRRQAUUUUAFFFFABRRRQAUUUUAFFFFABRRRQAUUUUAFFFFABRRRQAUUUUAFFFFABRRRQAUUUUAFFFFABRRRQAUUUUAFFFFABRRRQAUUUUAFFFFABRRRQAUUUUAFFFFABRRRQAUUUUAFFFFABRRRQAUUUUAFFFFABRRRQAUUUUAFFFFABRRRQAUUUUAFFFFABRRRQAUUUUAFFFFABRRRQAUUUUAFFFFABRRRQAUUUUAFFFFABRRRQAUUUUAFFFFABRRRQAUUUUAFFFFABRRRQAUUUUAFFFFABRRRQAUUUUAFFFFABRRRQAUUUUAFFFFABRRRQAUUUUAFFFFABRRRQB//Z;fontFamily=Times New Roman;" parent="1" vertex="1">
          <mxGeometry x="349.5" y="1394" width="256" height="256" as="geometry" />
        </mxCell>
        <mxCell id="58" value="" style="shape=image;verticalLabelPosition=bottom;labelBackgroundColor=default;verticalAlign=top;aspect=fixed;imageAspect=0;image=data:image/jpeg,/9j/4AAQSkZJRgABAQAAAQABAAD/2wBDAAgGBgcGBQgHBwcJCQgKDBQNDAsLDBkSEw8UHRofHh0aHBwgJC4nICIsIxwcKDcpLDAxNDQ0Hyc5PTgyPC4zNDL/2wBDAQkJCQwLDBgNDRgyIRwhMjIyMjIyMjIyMjIyMjIyMjIyMjIyMjIyMjIyMjIyMjIyMjIyMjIyMjIyMjIyMjIyMjL/wAARCAEAAQADASIAAhEBAxEB/8QAHwAAAQUBAQEBAQEAAAAAAAAAAAECAwQFBgcICQoL/8QAtRAAAgEDAwIEAwUFBAQAAAF9AQIDAAQRBRIhMUEGE1FhByJxFDKBkaEII0KxwRVS0fAkM2JyggkKFhcYGRolJicoKSo0NTY3ODk6Q0RFRkdISUpTVFVWV1hZWmNkZWZnaGlqc3R1dnd4eXqDhIWGh4iJipKTlJWWl5iZmqKjpKWmp6ipqrKztLW2t7i5usLDxMXGx8jJytLT1NXW19jZ2uHi4+Tl5ufo6erx8vP09fb3+Pn6/8QAHwEAAwEBAQEBAQEBAQAAAAAAAAECAwQFBgcICQoL/8QAtREAAgECBAQDBAcFBAQAAQJ3AAECAxEEBSExBhJBUQdhcRMiMoEIFEKRobHBCSMzUvAVYnLRChYkNOEl8RcYGRomJygpKjU2Nzg5OkNERUZHSElKU1RVVldYWVpjZGVmZ2hpanN0dXZ3eHl6goOEhYaHiImKkpOUlZaXmJmaoqOkpaanqKmqsrO0tba3uLm6wsPExcbHyMnK0tPU1dbX2Nna4uPk5ebn6Onq8vP09fb3+Pn6/9oADAMBAAIRAxEAPwD1fUbQO3mAfMKrW155LbHGDW1KAwrLuLQMcgc1hGVi3G5qo++NT7U6si2ungOyQZX1rUjkWRcqQRXfGSktDkkmnqPoooqiQoxRRQAUYoooAKKKqX2pWWmQmW9uUhQd2PJ+g70AakI/dH61m3kDGRnPCgda4vVPipb28TRaVatK3/PWbgfgK8+1zxZrmuErNeusZPKRnao/KuSrT55XOqnPljYi18pb+KLtUYOplLDByDmmf2xHoE8GqRwK0sDB1DdCaz5LTanmRnc6EE1n67K9xprBht2KufrnFDVlYaetz3PwP4+XxWWt5rZYZwu8bTlWHeud+JGlCW4MltY7SoJeRRgGuU+D9w0PiKBSeoZfzFd78XNf/sXwlMq7RLc/uoznnnrXLKPvWR1p+62z5vur+Z5ZFDgDcRxVIsc5JyaZnPNA557CuxKxxtnYfDzxdbeD/Ef9o3Vs08ZjKHZjcue4zX0V4Y8e+HPFQxa6gqTn/ljOdj/r1/CvkTtmtvw1HD/aVs1wTsZ9owcEE9DUypqQ1Kx9oRxJGOMYpwX5ScivnzTviJr3g+7S2u2OoacfuiQ/MB7NXrHh74ieHvEsIS3uRBckcwTfK2fbsazdNopSTOpaZUUcU6NjL83QVSdQ6ZBzU0L+WoVTnNZXLa0PLfjY8kFhA8bbcsBkV4d/aN0P+W7/AJ17F8cWmaG2XJK56V4hsk/ut+VdVJ+6YzjqXxql2P8Alu/509NYvQR+/bH1rP2P6H8qTDjsa1uRyo6W21q5TDGRjV8eJrpR95q5FZ3Ud6f9ok9KkLI+wGbNRMAaqLfWrDi4X86d9phbgTL+dc/spGntYivCGFQhZIWyhOKsBkxkSr+dKMP/ABg01GcdhOcHuOhvAeJBg+tWg6kZDCqZt89CKT7PIBjP61vGpL7SMnCPRl3zFzjcM/WnZFZEljKzblkIP1qezS4ikIlbK1oppkOLRoUhYDqaJARESvJ7VwOvy67EZriN9kS9M1at1ZDv0RqeKPFY0tWtbDZJd4yzHkRj/GvJNX1C6vLgy3c7yux6uaujfLLJJNIenmSsep9vzqrrIU3dskSYC4ZvwGayc7m0YIqLE7BVC81BJHPaCQuo5Rn54BI7CtS0Ia6VpT0BbHqcdfpWZrrS6hrEVinCqo3Y7etTcstQ3MURwWXMsIYADuaxPEZ+zpBCCGaaUEj0A7H8xWs8UBlS3UgSFCQ2On+cVl3No91qWmKRuY3IXHr0pdRnrPgnwbp2mvbajPcNDLtWQInIzXnvx31y31HxVa2FrMXhs4Pn9N7HP8sV61cTRwWoyCBGvODXzD4gvW1LxDfXR+bzJmxn0HApSir3GpO1jLJoJwuMUpzmren6c19MQSVRVLM3oBTApgGr1uJYYxMAVVWBDe4Patbw/ocd/dqJmygflAPvCtHxdbJZ6baxogQBzgD607iNm4zqmkmVlG8IsoGPUc1zXlkfvIWZHU8FTius09DDBbtjdG8WAPXjkVhWckEJvxIMrj92O+c0osLHS+EvilquiuttflryzHB3H5k+hr3vw3rNjrukR6lZSiWGTjOOQe4I7Gvkl0JSXZzGpwzenpXqXwN18xahfaOZMJMoljU9Ny8H9P5VFSCtzIqMnszvPiFZxXhhEkQIzxmuGPhyzPPkr+Vd34yvS9xDCRxmsMAYqqOsTKs7SOe/4RmzP/LIflTT4Xsz/wAsh+VdMEFOEda2MuZnmXijRbexgDxoBzV7QfD9td2KO0YJIq747TbYg47itbwjH/xK4+O1Fh3djiLXV9QwB5so981orqWpdRdyj8ay4tRgT5GTkVdW+tmHSuTmZ1csTQTWtWUcXr/nVqLxLq8X/L2T9axftFue+KrzTR9nIp8z7i5I9jro/GerIR+/BqR/H2rRjO5Wrz+S4wciQ/nSLf44LE01KXcThHsd/H8TL9Ww6irsXxKuupjH515qLqFjk083SAfIapykLkieqR/E2QjDRfrTL7xg+t2EsATaoGWP8q8qW5yeTXU6G8f9kTliA0j4BPtQpSE4RtdD7pHng+QcGRFbA/OrElsZ7l5Sg2KCSx9K0IPItJbgONwIVlB9cVBq12kOhSCLjeCmfWqTAyrBTOlxc44lkWJPYZqtZwiXWtSuMZKgon8q2tKjT7HpkIAUAGVye9Z8SLZXt67nCZLE9vWmBV0y2+06xdu2QYgqAdvx/AGuk0nSIZNTW8ZQRbvlc/3sdf51geHJvOjuLhv+W0xYH2//AFA/nXaaOpWxLn+NmP8AShbjJNblP9k3R7+V1H415FH4etWb5lwWPPcmvVteI/sicDvgVyNlbiDzLiVfYZHWhgjmG0Cz2BRCAS2Petm50q20/TjBFGq4QAkdyauW9sJCGzjaSwB+tGsoUt1DZ3MdxFIDL8N20cV6WAOR0H41H4yt/tc8dsBlo0MhH0q/4ehJneTsMVFcyLc+NzCSNrRMh/EGjqBYguB/ZNqqYDLEsgOPQgVyDfLM0zDJfcMe+a37SQrcizk4MUbRg+vcVmwxhrmVmGfIdiq+p9fwoAy71WtLAWaHLuweU+/YVd8EagdE8YadctJgecqt9CcGq8kUl3ceTH80j5Yk9h1rIllIuwycbWGKe6sB9LeOG8u4tpBjBPWsVZiVBqfV76HVvCWiagHzJJEu4e44P6iqMKu4AUZ4ooq0TKs7yLiympEuACaqlHUgMCKXy8AnNbJGNzmPHlx5lioHrWr4RmxpkY9qwfG4ItFz61reFP8AkHR/SkX0PRbbwFoX2eMyWcbMVGTipj4B0E/8uaD8K6SEYhT/AHRUoryEenoci/w80Fz/AMeoFQSfDLQJOsFdttJ6UEEdarXuLQ4CT4U6C3SNh+NV3+EWiN03j8a9GoxSvLuFl2PMm+DulfwyyD8TUZ+Dth/DcyfnXqNFPml3Cy7HlMnwhtUjZvtTgKCa44LDbWrQtua1SbYQDjOehNe1+LtUGk+HLqcHEjr5afU14rYoLuK6tXHEw4Pv2roo31bMaltkPF1PjaG3CMbDuHOAeOfpUmvs39hWcfctiq1qrrahJm/eBgh/CtDV4C+nWDH7rNg+2TW5kXo40gSRSq5WFUQY7nFU/GyRWejxxRIFlm+9jr/nNarLGdbtoxzGqhm9+K5/xTI+oa6EA+WNhj2oQFfT7M2tnGQSEXC49fX+X613tsqx2US9PkH6mucvbQQW8Vujq5JQZXofX+VdLjCKp7bR+lNAUNZw1gR2Lf1rn/MRVzMCVXgD0rb1d8WyLnksP6msG4lNxH5YUZXksKGMLMKfmwenA/E1W19cMvoBj8au2A2qCewFVNeBZEP5CkA7w9CGtCxH8fPvXN3bi28WtOMgAtjH0NdLob+TatvOOc1zGqxPJemVR3NAFOW5LTGXJ3g5BqOGeRUurl+svyj696syxBYDj7xHHtVCKGSdorbOAW60hk9m4stNu71+ZZV8qM+meprGsIBPPJNID5USkk+/atLWpV81LaL/AFUS7R9aEMOmaDKkq5urkjaD/Cv+NNAdP4f1rzNBgtHYk28zbQT0U8/zzXV6fqEjsPLA4ry/w3Oq3Miv904NeiaZdwRuDVR0Mp7nVx+Zfx4wFYVn3ttc28m0NkVMl8n34jge1T295HcsRL+tCbRmcD4t8w26hzkZqzoLTLZqEfHFO8aCJYfkIzmneHgv2UZ9Kq+pXQ95tzvgjOewqfFVbaKRYE+U9KnEUh7GvLSZ6FyeH71JKwMmB2qMxyheFOaijimyS6mtPs2Iv7xLuGcUuKRYmByQaftPoaizLuNxRil2t6GjYcdKLMLnnPxJufOkt7BsiNI2lJ9T0ArzveYrdo1Q4Trj+I+lbvizUH1jxXdQwksBHiMD/ZP/AOuoXEb2gzGBAqKSh43H3rsgrRSOeTu7mQjKYo8Y3s5LAdq6K/i8/SLOIHg5rmo5EwuzA+Y5rrYEM+jwlf4DvB9MGrJYphKarE6DP7nJH0FZNrALvUnlP97J9yK3S/kOlw2Duj2j2yf/AK9Z2mqES4lxkGQ4NCAXCnU4Ijg4bcf6Vuu3J56ZNcvYSNc6qrnu/H0rpm5/L+ZqhGRrcZlSFF4y+P0rHaN7ZWU9SOoroLwB2UkdCTWTcDLE1LYyOH5IsZqlet5hBParDPg1WmYMKQyAvshwDWPcvk1qS/crLnGTQBnzSELUUD4YsAS+OD6VO6g9aRIsI5ztX1oAo+WJJjIwyAf1qjfGS5nMjnOOK1HUcADiqMw25HvTAdoIxf4fgEV6Haxxqq4rzm0YxzBq6zStWUOqyn8apMzkrnXRy+WvA4qZbiMkHO3FVxLC8WUYGqUhJHBqrXMzH8VzK4+Vs81ueGog1gpI7Vy3iAYjHPeu58Ji2OlKWcBsUinse6joOKWmIW2LzzilJIB5rmujYUk9hS1CG4GW71IXUdSKV0A6jFMEik8NTtw9aV0PUKx/E+o/2V4fvLreFYIQnuTwK1iV3jJ5rzT4tat5Npa2UYYq7F3K+3Qfzpxs2I8zunnhu7e+UkK67Sw68nmtGe4kj0qWF0wWAAYfpXPXrtbiK9ikLRSfI6nnYw7H61Ncap5mnLCgfcD0PYexrdiEtnLBT6GvQNEQHTYdwypJrgNO+ezDDkk4/Wu80m4EOindkOg4980gY3ULgzSvHBGNkGSSfUCobQEaWikglgWqzKI7PRJ3LbnlUkn/AGjVe2Qw6cgb+FST+tADdCtD5pmI4QHH1rbfAB6VHpTKNNTGM55p8hBXIqmCM25HvWbOvpWlcAYPNZ0v0qRmfL+tUbliOnFaMq5FUJ488UAUWmOCDVWU5qw6UzZQBnyRtmmlTs24q7IoFV3Py/KOaAKMxEYIHWqEmWYkir8oySTxVRwBQBCowamDlTkHFRqMnikfPQUCOo0rUNiKsj5z0rooyHAPqK4KwjnlnRFBJzXpuj+G9SubdXWAlSOKuMrbmcovocd4mXEa4Hetjw6zCyAJxWj4g8C63dRqLe2LHPNWdK8HavbWwWa3YN9KOZXDldj283kKICXA4qCXVLdVP7wGuI1e31K2iEm9itZcEtxKfmYn8a47JmvMzvJdct0A+YVFJr8D4KsK4po5nL8mq8ENycjmk4oFK526eIIlJ+YU/wD4SSH++K8/FtdvKw2nFJJFLHwQc0KIcx6GmvRu2Q1edeNop9Y1yN7WQFkjHyg9Dk1qWkbpatI2QAMkmuRTW5ftU6GJG3OW3YOfzranGzuSncy59OmmO1hGp6OuQQ31FZl4sVlc+QTlSASP7vsa2r6/hiuI0WMbiAzI/KkHkYPrWVrCWvnQ3MBPzrh0bnbWozVtrImziKTW/wA43BVbkZrbs75F0aNSgLGTaW6ZFYdhHG9jGFUHK4FacdrJ/Z8MWwgF1yaQM1Lm2lmsFfH7oOCR/eINR3zPBphkkZcsnAHUc1evLny9MhWPrv4z+NY2uTj7Oq/7YH5ChAXdCuPMjeMn3FabBhWD4cbdehByCDXUSoF7VTAxbnOeKz5cnrWldkCTArOl61Iym5qnLVqQdaqyjigCjKuemahYYHWrTrVeQUAU5DVVmxVmYdeaqOcDigCncNk1SdjmrkwyKpPxQA6JjhjS7ju75PepbW3aRNwx1rSs9EubmRVSJm/lQBqeD4N+qRMy5zwc85r6X0uFItNhCqANueBivN/AHghoCl3dw7NvPua9UGAMAAAVLLQmBRgUtFIo5vxA0503hM8elcvpNtPc3ixKnWu61xf+Jf8AhWd4es2RvtJGOwqKNNSbuc1WTja3UprolyHmBTpWJ5slq7Bl5HtXpCzI7Oqn5h1riNajVbx+McVUoJK5MZa2KFndSXJbaoBqZrOUnLpk/Sqeh5a/Zc8Z6V3KQL8px2rp9hTik2znjWqTbUVschr6mx8NM7jyxKRHux0z1/SuY0zTrH7NcSwbZB5RKyE55rqPidcxJpVjaqf3jSl8D0Ax/WvJbXXJNLe4S3lzE+Q8ZGRn+lRZLY6oXtqWdcjjkhtpI8GZIRux3FYKv56ckcdjVq61okjyYFT5Nrdwayg6hvc+lJmiOm06RooIhn7orqraQ3dnvG1UQgnJ6+1cXay7hHj7u0VuLKywCOI/O7DgHtSA1JJnuJYYVGVViSeg6Gs3XmbyoyT1k/pWysJiWBXOGOSR+Fc94gfD26Y7saa3Eb/g+1PlzXT9ANq1vTuScKOPWsfwo/mac8fYHNbTsFBxzTkwRkzxd8k1nTJgmtO5kyT6e1ZUz/MRnj1qRlSQdarOvtVh5OTUUjYWgClJ1xVWXvxVkkEk1WlOc0AUZuaqOCOK0GjLdKp3IKtjGKAM6bpVKTjNXJmwDVWCGW/vI7S3QvLKwVVHcmgDsfDHhqXU7GCdVYq2eg969Y8N+DzZCOR42JHJyK2/A/hz+w9As7SaJS0afM2Op6muuHAxUlEESeVEqKuAB0p3zZ6cVKaSlYdyL5qQlh2qbikJxRYdzn9TvRc2wRTVnT7qKOyVc4KjpWQqGpEGDWMJuOxM6SkaltKiyO5PJNYWqwm4umdOhFXxUbDmm6rasJUEnc560sJ7W4aReMmt+O9nWP5qRhxUWo3EdppNxPIwVUjJzWqxMmkmrmf1WMW2nY8u8ZarNqusGWOZf3RKKvoK5DV7KWKRLpUKpMMyp/dPqPY10tvPax3DSrF5iA7mbqQPXmo9Q1TSmN1cTXG8FPkUoRnitWNaaHD3d8jSyeUDtzw1MjjZIhLJnfLwgPp61WSdGi34ByxrqPBmk3PijxZbCSPMFrtaVh91VHQfjUydlcpK5bWylsJPs03EiIu4emQDW/paQGMSMGM27g9hUXjWNovF94q4AKowH/AR/hUmg2cl57Y75pRd1cGrG3cndc/KMqoxmsDU7Sa6uodq8BT+HNdb9kiiTDkk4qvOY48BV5xTQhvh2BraGRG64q/cvjPTPtVC3uSpI9RU7zeYM8U2BQuZBzWXNLg1eunCyNk1j3TqTkGkMilkxk5qo10HcjNOlLMuBWXKRDk7uc9KANHdg1Gygn3qgmoI5Vc/N0q8rAY3d+9AEqWxxnOMCsS/lBmYgY7VtXNz9nSNywORgj6Vy2o3YaVyvemgKN1MSSAa9G+Dfh0XGpTa7cLlLc7Ic92xyfwrzG0trjVNRgsrdS808gRQPU19VeF/DQ0HQLWwhAxEvznH3mPU1lUlZWLirs349ShjX99NGn+82Kjk8R6TF9/UbYf9tBXj/wAYWuYGt1RmRM87TivJfMlPWRj9TWUZNo39mmfWTeMNAQ4OqW/4PTD4x0Dr/acH/fVfKIeT++3507zJf+ejfnTux+zR9UnxpoA6ajD+dQy+NNEYfLqEefY18uebN/z0b86Xzp/+ejfnSux+zR9RUq9abTl61mZEoqM9eBTwaTIBoGRtxXH+O78Lb2unl9qzNuf6CuzfkV5X40mN54hZRkiABRg9DWlFXkRN6Gc39jpbtGoKyEFdzk9fWvONSjlS5ltml8zBwGB4NdvrNoraQJoSTPuwwx1qr4f8IvfTpc3qsI85Ge9dZijL07wrfXAijhti0rELtPr6/SvdfCXh2z8K6OlsrK1xJ888ndm/wrIVlswgiUDAwDU/2ybh3Y4FZzjzFJ2M7xV4eGpa9JfRvkPEq4+lTaTpg0uDazgnrU814SMg81VNywHJNNKysJ6lyZwec9apSFcknmhpwUzms+4uQAcMD+NMCxLKiLkDpUI1OONcv8uKp/aVcZzniqTb5ZSMZTI7UxEd7qaySvjlSeKowu88wLE7akkEKu2cZyaiaRUBKelIZMZUyRn3rnNYnCE4bg0t3eNGrHOKx4Fl1a5wTiNTyfWgC9pNpLeXcbqCQDx711OoXlvbOkUcQdduCG6g1b0fS4rLTJbnjITan1rlb+5ZpST1BwKaQiPUrqWUk4Cheig8AVz88zEc9SatXVy+GA/i6mrHhXQ5PE3iW105M+WzZlYfwoOpobsNK56D8H/CLTXLeIbpdqJlLYEdT3b+le8xO0VuOc1g21jHp1pDaWcOyGJQqgelb8UYNqpbriuKUnJtnQkkrHjnxgu2kaCIr1Oa8nVK9S+LsIF5AwbPtXmirVU/hNkiPZ7UeXVkJmpEjBdeO9UMp+WfSk2GvQo/ByXumpNFw5Ga5q/0G7sHIeIlR3AqVJMtxaPfjIKVHBrx6P4pM5/1TAV0Nj44E0QcqRmp5ZI47o9GDCmkjPWuKXxpFnnNWF8UCRdwRsfSlZjujqbm4SC3klcgIilifQCvMPDWiah41uL7VgFt9PWZgkkmSZceg9K6nTtci1m/XTXUFZsowboRjn9K6S9vrXQtJFlptqmyJNqRJ8qqPrVqfs1djjT52cZcaKkA8tijqvHNNEi24AUAYHaremTtr8Ext42E0RxJGRytctfPef2i0AXYithmY10KSZjKLRsy3TuQFGSetWFO9AG9Oay/t9nZp87Et70xfEenyOI/MwSccCp577Byk9zOY5GB4HYVSlvwuACK1Vkgjk3R20s+ejyEAflWJqgDOWkRct1LriuqNCTOWWJhHzHtqcSW7tJIAAOBnrXPXWsx+WWDdPSqGpaeszM0blT7NxUVlbWlnEfPjaWQsMljnbVfV5Lcarxex0vh+WK4tmmuGKKW4yPatrfZiMmOUdAfris+/nsjaQpCVUbBnHqaal3bSlxCFXYgGD6+tCpXjcupLkqcpklhvZmOOTVG8vEhQ7cse2BmtOd1E+eGAAzwMGq017cx3cUVjbbZGYZlMfygU/q0rGf1iNzj9l/rd4tpYWss0zttVUWvX/AvwdkstPnm8QyKLiYDy4Y2z5X1PTNd34M0nRLbT/O02JPthGZwcFlY9cf7JNdDcXAhjJbiuCpOUHZnfShGautTx3xVpF/oNs0Uce+3QZDIeCPp2rym6ujI5Ne0+LtfhuYJoCQ2QRj1rwu9lRtQaK0j4zzzxVUqjktUKrSUNmRyOxGAMk1738J/Bx0PQ/7Tuk23t4AcEconYfj1rhfAHgG61vxCkt9bulhbYlcsuBIeyivoZbYoqgABQMADtUVp/ZRNOPUdEqYG7FTsEaI7TwPSoHidxhTiljSSGPBOawNTw74wXQh1GBTk9a80TUV9K9N+K0XnaxEJACMHFefCwhP8Nb0o+4TOo07EQ1JKkj1ONWB9DUgsIf7tL/Z0P92tORE+3Z6BofjrT4LFI5WAIGMVoz+K9FvExIFIPevJbmzSMrj1r1Hw1baA2lR+fGhfHOaz9gjT63JdDyiGEAdK3NPv4kxHIcfjUEVl8maxryPbeha2nG+hywkdxBLazTKFOTn1r0zStOgfSt3lgsVryLw1Av2kEjPIr3zwzbr/AGekjDgdK5ai5TeHvGLofhFbG5fUrofvicxp2Qev1rO8V+JtN0tCk04MvaNOWrb8Z661jZ/ZbdyLiX5ECffYnsP8a5220Cw0bQHivbOO71i/XczTrvCenPauZpSd5M7I+6rRKHgrxStncT6ldwfZ7S6Vo4ST8zsvP5VRsLy31fXZZp+JJZC2wHoKr+J7f7F4X0Tywo2bwQvTOeayfCZ366kjdT1rohG8W0YVppPlZ13i3TLaC2VkXnFcJ4Ssl1LxrFDIC0MQMjD6V6H4zkBs1A9KofCDRTd6tqt7LADAEEYkb16kVvh99Tlrv3dDq5NKgaEvHgZ6c1zWpWNxAjCOIyDrjqPyr0e6sIlHloYsL2x0rIm05JdwRTux1R8/oa9SNXueTKmeOahZOWZjayRMe6ZFYZtbmOQnEjxt8pya9T1WKe3coCzADpItcjdufOEbwqhBySvQ1tZSQRm4s5i6mnis1wSGGUPtU1pJPb5WTJeWAkY78ZrRvYrdrG4ldgGMwKEcjGDn6VDYwFEa8u3KgxmKBW4wh6n/AArB32R1K27M6AzzMMSuoPOSOldHYadPPtI1KTI6AcVT0q5t7i8+zWtrNdsP+eajj8a7iHTmijAZDalh92Rc/rW90jmlc59Z9a0a4FzZXMokQ8ODmt9fiulzaG31uxlilxgz244P1FVrm2it43IuEfH91+fyrmNVlV7dv3U6jB+YoNtc9aEKukkbUas6b90NWv8AStRWVrLVFDMpA84FStcRJbxWUrBJ0uACMsgwDUczKuSGJPekgOFUnu+axhSUNjqlVc9WfXfhSf7b4a0+7EPlLLArBD1AxWztLH0FY+iTFtHsWhAERgQqB0AwK04pHd8HpXmnWEgZVIUnNRySrHb5bk4q6WjHcVFNEsicLkUmhp6nhHxHkE2qo3ccVxQFd58TYRFq0eFwOa4UCuil8CMavxDlUYp2KBS1qZGff8FfrXQ6WT9mX6Vz1/ncv1roNMOLZfpSZXQznaaEbXQrVWz09dQ1UBzgV1XiuKOK4IRQB7Vm+GdPmv8AUlihUl5GwKdXQmi7o77wl4Jhmn84k+RGRuPr7V2d14k0rTUmtopAZIF+4oz9BVsW8Wh+G/s0R4jjJd+7Hua4e18PM+jnUnkEdxJOJyH6FR0U151WacrHpUoWjc0NMsHmu5PEetD5lXMMR/gHYD3NRzQ32sXvkQjF1c/M79oU6Z/oKfqniO2uniScG3jjXeY27t2yenFWE8RadoElnbwyR3N/qDrlkOQoPT8BRCCbvLZEzm0rR3ZBq/haC+/srSXJ2Rh1z3JAzS2Pw8tdLnE8bsSPU1dg1YX97ZzuFSWO8MRA91NdTcg+Qea6qEVKDOXESamkzzDxvHshAHat34fW0lh4TREADTu0rsegz0/QVheNFaQqg5LHArq9Ji+zeH7FTIBGIVyB16VrhY3bZhipWSRcaIB2Z54ST0yap3oYTAqUCBfmKuBWHrWrra5EDDao4JGcmvNdY1DUNTuX33cyRD+FGxXoeydjgU03Y7fW9RnsZGMcm9TnCsQc15Zqmu6rG7SXVqsccjEKVGKhuYLhBkX1x/38rF1FrmQL5t48qr0Dt0oblFGkIRbN/T/FcNtFOQo8xlBG5c8j/wDWayJ9XvNXnESrJLI55C8k1iHKLk856V3Pgu0VLX7VgBpG5b0ArKHNKdjedoQudl4E0C6jjE8yrBBgBIU+9n+8T3Ndzc20TrtkC3BHQZ5FU9Iu4NTSOJD5LJ8qkdDXRNY/YFNxLIuSM5q5vl0OZLm1ZxWrJFaoI/srK7dO5FcR4nuZDapbSXC4JyUxyK9G1HxFpKyO215pR/Eo6V51rcsmpSO1lpxAJ5mlX+ppKbZXKlqcLODHlSFb3p1rEZp4YVXLM2AB70uoQyQSbJghf/YbNdD4Bso7rxjp3mf6qFhM+f8AZ5/nilN8qubRV9D6h06D7NpVrAE2+XEqY+gqwu5FJxVWz1eK74RavBlYgHoTXkdbnoX0sAgVlDMTzTsdFU1JJtCYxTAI8ZXrVCR4r8VYWTV4SWyCDxXn4r0H4psr6zEA2SAeK4IIfSt6Xw6GNT4hoo71JsNKV9q1IM28++lbVg2IQPasXUAQyEDvW1pykwAkdqGDehZ8QXiXk2UOc16N8OvDo0zTV1C5T/SJhlFI5C1wuiaPaqwubuQS5w0aHgfjXrml38c+nrOWRcHYq5HUVx4msm7R1OvDUHFXkXtTQz2xhH8fBrN1QLBZJAQPLVdz/QdqzdZ8aQadrOn6WsW+a6bb5m7Kp9ap+IP7QgL5USKfQ8YrjejvY61qrIw/EOqRWulSfIjSSDdyM81xnh1bm51oalKS0doDIzt0HHAovLq81S8EU0Mq28bYOxMnFaur3NnpHhmOyssl523yEjB/Gt0radWZvX0Rf0LVx/wl9hHNJiN7rIXPVsY/rXs12+IDXzTYXji/tLpQWkin3nHuf/rV7Da+K5L/AAhjYA+tdsZKEbHBUi5SuVdWhNxqSgDOxHf8ga1NLAu/D1i+75BCM57npSwxo8t9cNj93avyfUis3wJexX3ht7TzFDQSMCCedp5H8zW2F0g35nNitZWMPX03ExIRgZyeg/CuIvCIvlHQdTXo+sWiyFwgxGO4HJriL2wiiZpLhgkf92vRUtDhitTk7rdKvGQPWsO4MG4rku2cZ7Vv6lqdqAY7eAso/KuZmuDIWOwJz0ArCbOylEgmwW46DpXoOhRMNCsFjGBIpLEfWuW8M+HbrxNrtrptqpLSvgnsB3Ne1a34et9FvYtJtYwqW8CYx3Pc/jUUmvaWKr/ALoMCExRhSCehru0tluLcJOgkjIxh2wBWH4ftFNuVIG8dDWs8U0bYlZvLHHBqq1m7HNSutQddPgs3WK0jjxnBRa8q8aX5YunmsEXgKor1K8nt4rfahySOleS+Lr5CJFWIZJIzis6e5s0eay/Pc/Lnk969k+CvhVb+51DVrlD5MYEER9T1P9K8mtLSa91WCCBCZpZAiKO5J4r6z8H+Hm8NeG7XTC6GRF3SMo4LHk1OIlZWN6SuzTt9Ktrf/VrirQt0HQU7DD0NIfMz/DiuLQ6LsUxqRg01beMZIpf3n+zQRIRwVzRp2AxtR8J6Vqc/nXMIZ/Uiqg8A6IP+Xdfyrodsx6sBSbJx0YGmmJpGD/wgehf8+q/lSf8ACB6Fn/j1X8q3984H3FJoElx/zzX86OYOVHOS/Dvw/N961X8qcngDRIxtWEAewromebbxGM0wSzAcxCjmDlR8/wBhZXF1ZC8RXWzUkAtgMccYFbUerx6Pp0kUypJeySfuIV+baMAcj1rO0/TZri6TT495Vn3ADlVPqfavSPDXgux0X96w+1XjnL3Eoyc+3oK5IzT1SO2UX1Zyun+DrzVtPFxe6fFDPuLx3LMVZVznIT1+tbXiC8gj08wN80u0Ln+tdpfusNq/bivLtTU3d6c/dz0qKu5VPa5kRXQiga2hj3FjlmxXIeI2Ml6o646gdq7+eFIoDEihcjk1xOorFC1zxkiIjJ9SwqqL964qnwmf4f2DV4lIyhZcj8a9oSxtYACigcV4noD7dZgPbeP517iVJVW7YroqNpnLY4Px1q1zZzx2dvO8aSqTIFONwrio7m4gLNbzPGxHJRsVr+OrlZvE7op/1Uaqfr1/rWB5nyn6V6WG0ppHn19Ztl5fFOq2YAN003+y/IqF/EVtqbEagjLjoqH5TWHduegP1qi/yxnHU8V0swikTapq5mlMVrGkUI+UbR1rNCF5FUcmhVzJ9K3vC2iT694hs9Nt1y9xKFJH8K9z+Arnk+51xSSsj3H4H+EF07Sm164QefcjZCCPup3P41f8X4XxyoPR7dc/hXoWn6fBpun29lb5WKFAij2Feb+MRu8agZ4EK5NY0G3UbCurUzX0qIRxk5rRmmUrsXk9TWXayEpsjHJ61qw2mFYnO41pUetzngjIuLUuGfOGI/KvIvF0tv8AaXihPmFT8z9s+1eleNNTOn2P2aJ8SzfeIPQV5lb6U2pSPJISIY+Xb19qdPuVLQs/CLSv7R+IdrK4zHaI05+oHH6mvpqvI/gvo0aLqmsImxZJPIiHsOtet1hXneZ1UlaItGaSgZ71jc0FopKKYDs0lJQc9qLgFHSkGe9LSGBOaKTmjmgDitL0y3sACgDTykb5D1PsPauoiOyPJrEhjSW2WTzAsiHkGi51dSBHH0A6+9cEfd1O2S5tELrlyTBtU1x6QEO0hGcd62LiRpm5bjvWfeSKkZWPp61m3d3NYrlRz2qXGGOOK4PWZNxkYdyF/r/hXaaojyZC/ia4TVGCrszk72JP5CuigtTGq9CvoxxrFv6Bgf1Fe4rqUJgAzjivD/Dq+dr9uvXLqP1r3W8gs7OwluJVAjiQs30ArpcU3qcr2PDdfulu/Et7MhyplOD9OKqHAU1C8qTXs8qcK8hI+mamIyK9Gnokjz6mrKUyZ5rNuWOQo7VqyITnFZdwAMgck9TW0tiILUrxjahI6mvf/gH4aSLT7rxBOn72QmGAkfdX+Ij69K8HhjLeXGoJZjjivqnwbG2ieFdOsQMGOIbh7nk1x1pcqsddON2dxXl/iBhN4wvcDJRVUH8BXcnVWA6V5xYytqPiC9lLZZ3bP51OF3b8iMVpFHTaLAwySM1sXtzHp9i0srDd2HeqFlcJaDYzAt6CrJ06O/bzZi745APSqm9TKK0PPJ9JvPEWpPPMGCFuB6Cqni77P4b0kWdvhZXX8frXZa7r9poVo6WyAz4wAPWvGdXmvda1uBbtm8y4kVFB9zirhcTR9AfDixFh4C0pCMPLH5z+5Y5/liuqrNsZre0sbe1j4SGNY1+gGKsfbYvU1xykmzuUbIs0VXF5ET1xSm7iH8WaV0OxOaSoRdRH+LFOFzF2cUrhYkophni/vigSxno4/Oi6AlpKZ5q/3h+dOEiH+IfnVXQWFopDIg/iH50wzR5A3ClcD//Z;fontFamily=Times New Roman;" parent="1" vertex="1">
          <mxGeometry x="330.5" y="-390" width="256" height="256" as="geometry" />
        </mxCell>
        <mxCell id="59" value="" style="shape=image;verticalLabelPosition=bottom;labelBackgroundColor=default;verticalAlign=top;aspect=fixed;imageAspect=0;image=data:image/jpeg,/9j/4AAQSkZJRgABAQAAAQABAAD/2wBDAAgGBgcGBQgHBwcJCQgKDBQNDAsLDBkSEw8UHRofHh0aHBwgJC4nICIsIxwcKDcpLDAxNDQ0Hyc5PTgyPC4zNDL/2wBDAQkJCQwLDBgNDRgyIRwhMjIyMjIyMjIyMjIyMjIyMjIyMjIyMjIyMjIyMjIyMjIyMjIyMjIyMjIyMjIyMjIyMjL/wAARCAEAAQADASIAAhEBAxEB/8QAHwAAAQUBAQEBAQEAAAAAAAAAAAECAwQFBgcICQoL/8QAtRAAAgEDAwIEAwUFBAQAAAF9AQIDAAQRBRIhMUEGE1FhByJxFDKBkaEII0KxwRVS0fAkM2JyggkKFhcYGRolJicoKSo0NTY3ODk6Q0RFRkdISUpTVFVWV1hZWmNkZWZnaGlqc3R1dnd4eXqDhIWGh4iJipKTlJWWl5iZmqKjpKWmp6ipqrKztLW2t7i5usLDxMXGx8jJytLT1NXW19jZ2uHi4+Tl5ufo6erx8vP09fb3+Pn6/8QAHwEAAwEBAQEBAQEBAQAAAAAAAAECAwQFBgcICQoL/8QAtREAAgECBAQDBAcFBAQAAQJ3AAECAxEEBSExBhJBUQdhcRMiMoEIFEKRobHBCSMzUvAVYnLRChYkNOEl8RcYGRomJygpKjU2Nzg5OkNERUZHSElKU1RVVldYWVpjZGVmZ2hpanN0dXZ3eHl6goOEhYaHiImKkpOUlZaXmJmaoqOkpaanqKmqsrO0tba3uLm6wsPExcbHyMnK0tPU1dbX2Nna4uPk5ebn6Onq8vP09fb3+Pn6/9oADAMBAAIRAxEAPwD5/ooooAKKKKACiiigAooooAKKKKACiiigAooooAKKKKACiiigAooooAKKKKACiiigAooooAKKKKACiiigAooooAKKKKACiiigAooooAKKKKACiiigAooooAKKKKACiiigAooooAKKKKACiiigAooooAKKKKACiiigAooooAKKKKACiiigAooooAKKKKACiiigAooooAKKKKACiiigD0D4T/DtPiBrl1HezTwaZZRB55ICocu2QiDdnGcMc7T9zHGQa9z034DeA7G3aK4sbvUHLlhLdXbqwGB8o8vYMcZ6Z5PPTHmn7O3id7HxRd+HJ58WuoRGWCNtx/foMnbjhcpuJJHOxRngA/S9AHn/APwpL4ef9C9/5O3H/wAco/4Ul8PP+he/8nbj/wCOV6BRQB5//wAKS+Hn/Qvf+Ttx/wDHKP8AhSXw8/6F7/yduP8A45XoFFAHlepfs++CL64WW3GpaegQKYrW5DKTk/MfMVznnHXHA465z5/2b/CrW8q2+q6zHOUIjeSSJ1VscEqEBIz2yM+or2SigDxf/hm7w3/Z2z+2dV+3eVjzsx+X5mPvbNuduedu7OON3es//hmiz/s7Z/wk8/27zc+d9jHl+Xj7uzfndnnduxjjb3r3iigD4Y8VeHrjwp4o1HQ7pt8lpKUD4A8xCMo+ATjcpU4zxnB5rHr6X+Nnwv8A7ein8W6bPBBdWdo73sUi7RPHGrNuBUZMgA2/NwRt5Xbz80UAFFFFABRRRQAUUUUAFFFFABRRRQAUUUUAFFFFABRRRQAUUUUAFFFesfDD4NS+NLMaxrFxPZaQ3/HuYNhe5wXVsEk7NrKPvKc549aAI/gLod9f+PBrFtbRywaWmZXe58oIZQU6bGLnb5hC/KMqMsOh+q6w/C/hHRfB2lpYaPZRwgIqyzlQZZyMndI+Mscs3sM4AA4rcoAKKKKACiiigAooooAKKKKACvhTxKrL4q1dXsI9PcXswayjZWW3O8/uwV4IXpkcccV9118OeMrK+0/xrrdrqcsk14l7KZZnh8ozEsT5mzoAwIYAcYYY4oAw6KKKACiiigAooooAKKKKACiiigAooooAKKKKACiiigAooooA6j4deHrfxV8QNH0e8bFrNKXmGD86IrSMnBBG4KVyDxnPavtOCCG1t4re3ijhgiQJHHGoVUUDAAA4AA4xXz5+zXo6PqOua2z/ALyKJLSNFlU8Od7Fk+8PuJg8A/MOSDj6HoAKKKKACiiigAooooAKKKKACiiigArg/iB8KtF8d2/mkR6fqwcMNQihDM4wAVkGRvG0ADJyuBg4yD3lFAHxx4n+EnjHwrFNc3WmfarGHlruybzUA27ixHDqoAOWZQBjryM8PX3/AF5X8QfglpHix5tS0ho9L1iR2llfaTFcsV/jXPyEsASyjuxIYngA+VKKuarpV9oeqXGmanbSW15bvslifqp/kQRggjgggjINU6ACiiigAooooAKKKKACiiigAooooAKKKKACiitTw1Zzaj4q0iyt7uSznuL2GKO5jzuhZnADjBByCc9R06igD6r+DOkWei/Dq1tre6sbm6eV5b17K6FwgmbHyllJAYJ5YIHHGRnOT6BXP+DPDT+E/DkemTalPqVx5ss013MWzK7uWJwzNt684PJy3VjXQUAFFFFABRRRQAUUUUAFFFFABRRRQAUUUUAFFFFAHD/Er4c2fj3Q2jj8i21eLDW140QJO3diN2xu8s7jwOhwcHGD8gX9jcaZqNzYXkfl3VrK8MybgdrqSGGRwcEHpX3vXyR8dYbeP4r6k8F150ksUDzp5ZXyX8tQEyfvfKFbI/v46g0Aeb0UUUAFFFFABRRRQAUUUUAFFFFABRRXqHwh+Fv/AAnF4+q6m2zQrSXy5ER8PcyABvLGOVXBBLdecLzkqAeX11Hw+Ph9fGVgfEc99BaiWMwzWkyxeXL5ibWkckFIwNxLKQw4IIr7D0Dw5pHhbS103RbGO0tA5fYpLFmPUszElj0GSTwAOgFV9S8MWWo36ztFaCCdwdTtpLKKRdQVUIjEhZd2UbaynPGCMcggA3KKKKACiiigAooooAKKKKACiiigAooooAKKKKACiiigAr4w+Kmp/wBr/FDxDc+T5Wy7Ntt3bs+SBFuzgddmcds45619F/Fn4jQ+B/D729lcxjxBdp/okewP5a5wZWGcAAZC5zluxAbHyJQAUUUUAFFFFABRRRQAUUUUAFFFFABWhpmu6xonm/2Tqt9YedjzPslw8W/GcZ2kZxk9fU1n0UAe8eBf2g7iKUWXjNfPhOAmoW0IDqS3JkQYBUA9UGRt6MTke96XqtjrVgt/ptzHdWju6JNHyrFHKNg9xuU8jg9Rkc18GV6p8AtbXS/iCbWfUo7S3v7cw+VKG23EuR5ajBAV/vYLZ6lQMuKAPquiiigAooooAKKKKACiiigAooooAKKKKACiiqepatpujW63GqahaWMDOEWS6mWJS2CcAsQM4BOPY0AXK8/8ZfGHwt4Q822+0/2lqaZX7HaMG2MNwxI/3Uwy4I5YZB2muL+MnxYsRo0ej+E/EEh1BrhWubjT3+VYgudolHcsU+4T91gSOh+dKALmq6rfa5qlxqep3MlzeXD75ZX6sf5AAYAA4AAAwBVOiigAooooAKKKKACiiigAooooAKKKKACiiigAq5pM19bazYz6WJDqEdxG9qI497GUMCmFwdx3Y4wc1Tr3D4B+A9L1v7T4l1OCeaSwu0SzG/ZGsq7ZN/ytuZh8vBAXB/iJ+UA9/wBE1i317R4NStUnjjl3AxXERjkidWKujqejKysp9xwSOa0KKKACiiigAooooAKKKKACiiigAoorn/F3jLR/BWjtqOrTenl20bJ503zKp2KzDdjcCcdBQBuTzw2tvLcXEscMESF5JJGCqigZJJPAAHOa+OPih4uvvFnjW/ae9jnsLK4lt7BYGzEIgxAZcEglgAS3fjsABX8XfEXxH4wvbtrzUrtNPmc7NPWXESR7yyKyqFDlePmIycD0FcnQAUUUUAFFFFABRRRQAUUUUAFFFFABRRRQAUVJBBNdXEVvbxSTTyuEjjjUszsTgAAckk8Yr3/4YfAyH7Pa674vhkM5cSwaW4AULg488EZJJwdnGMYbOSoAPKNK+GXjTWrK3vLDw/dvb3L7YpH2xhvk3hvnI+Qr0f7pOADkgV2Ggfs9eK9SdW1ia00eDeVYM4nlxtyGVUO0gnjlweCcdM/UdFAHjdh+zl4Zi0vyNQ1PUri8LhmuYCsQAG75VQhgAQVzkk5UYIBIPqGgeHNI8LaWum6LYx2loHL7FJYsx6lmYksegySeAB0ArUooAKKKKACiiigAooooAKKK+dPiD8fZr5JtL8HiS3t3Ro5dRlUrKfmxmEZ+QFR95hu+bgKVyQD6Lor4Um8S69cuHn1vUpXFwt0Ge6diJlUKsnJ++FAAbqAAKy6APdPiZ8b9Tj8Six8F6rHHYWqFJrhLeOQTy552lwwKAAAEAZO48jaa8f1/xHq/inVG1LWr6S7uygTewChVHQKqgBR1OABySepNZdFABRRRQAUUUUAFFFFABRRRQAUUUUAFFFFABXSeAfDUPi/xvpmhXFxJbwXLuZJIwC21EZyBngEhcZ5xnODjFc3W54P8SzeD/Flhr0FvHcPaOxMLkgOrKUYZHQ7WODzg44PSgD7T0bQ9L8PaclhpFhBZWq4OyFMbiABuY9WbAGWOSccmtCuX0P4ieE/EFnZTWmu2Mc15tEdpPcJHOHJxsMZOd2eOM57EggmTVfiB4Q0VLhr/AMR6aj2z7JYUnWSVW3bSPLTL5B6jHHOehoA6SivJ779obwVaXkkEMWq3sa4xPBbqEfIB4DurcdOQOnpzVf8A4aO8H/8AQN1z/vxD/wDHaAPYKK8n8T/Hvwrp+hzS+H7r+1NTPyQQtBLGik/xuWVflHoDk8DjJYeWR/tBeN01Sa7Y6bJA6bVsmtj5UZ4+ZSGD54PViPmPHTAB9V0V8aa38WPG+uXHmzeILu1RXdo4rBzbqgY/d+TBYDAA3FiPXk5PDnxR8VaF4gs9SuNY1LU4IHJks7u+laOVSCCCCSM4OQcHBAODjFAH2XRXz/4x/aGgu9D8jwjFfWWpNKu6e8t4iEjGSdo3sNxO0cgjBbvg16J4e+LHhTUvCsGp3/iDTba7S3VryBnMbLKEDOqRt87gEkDbuzjAJNAHeVXv7630zTrm/vJPLtbWJ5pn2k7UUEscDk4APSvC9f8A2k4QjR+HNDkZygIn1FgoVt3I8tCdw29DvHJ6cc+aePfilrvj7FteLBa6ZHL5sNnCgOGG4KzOfmZtrkHGFOM7RQB0HxI+Ndx400eXQ9O037BpskuZXlcSSTorAoMYxHyASAW5AGcZ3eT0UUAFFFFABRRRQAUUUUAFFFFABRRRQAUUUUAFFFFABRRRQAUUUUAFFFFABRRRQAUUUUAFFFFABRRRQAUUUUAFFFFABRRRQAUUUUAFFFFABRRRQAUUUUAFFFFABRRRQAUUUUAFFFFABRRRQAUUUUAFFFFABRRRQAUUUUAFFFFABRRRQAUUUUAFFFFABRRRQAUUUUAFFFFABRRRQAUUUUAFFFFABRRRQAUUUUAFFFFABRRRQAUUUUAFFFFABRRRQAUUUUAFFFFABRRRQAUUUUAFFFFABRRRQAUUUUAFFFFABRRRQAUUUUAFFFFABRRRQAUUUUAFFFFABRRRQAUUUUAFFFFABRRRQAUUUUAFFFFABRRRQAUUUUAFFFFABRRRQAUUUUAFFFFABRRRQAUUUUAFFFFABRRRQAUUUUAFFFFABRRRQAUUUUAFFFFABRRRQAUUUUAFFFFABRRRQB//2Q==;fontFamily=Times New Roman;" parent="1" vertex="1">
          <mxGeometry x="340" y="70" width="256" height="256" as="geometry" />
        </mxCell>
        <mxCell id="60" value="&lt;font style=&quot;font-size: 28px;&quot;&gt;&lt;font style=&quot;font-size: 28px;&quot;&gt;Detail Br&lt;/font&gt;&lt;font style=&quot;font-size: 28px;&quot;&gt;anch&lt;/font&gt;&lt;/font&gt;" style="text;html=1;align=center;verticalAlign=middle;resizable=0;points=[];autosize=1;strokeColor=none;fillColor=none;fontFamily=Times New Roman;" parent="1" vertex="1">
          <mxGeometry x="780" y="1040" width="180" height="50" as="geometry" />
        </mxCell>
        <mxCell id="61" value="&lt;font style=&quot;border-color: var(--border-color); color: rgb(0, 0, 0); font-size: 28px; font-style: normal; font-variant-ligatures: normal; font-variant-caps: normal; font-weight: 400; letter-spacing: normal; orphans: 2; text-align: center; text-indent: 0px; text-transform: none; widows: 2; word-spacing: 0px; -webkit-text-stroke-width: 0px; background-color: rgb(251, 251, 251); text-decoration-thickness: initial; text-decoration-style: initial; text-decoration-color: initial;&quot;&gt;Context Br&lt;/font&gt;&lt;font style=&quot;border-color: var(--border-color); color: rgb(0, 0, 0); font-size: 28px; font-style: normal; font-variant-ligatures: normal; font-variant-caps: normal; font-weight: 400; letter-spacing: normal; orphans: 2; text-align: center; text-indent: 0px; text-transform: none; widows: 2; word-spacing: 0px; -webkit-text-stroke-width: 0px; background-color: rgb(251, 251, 251); text-decoration-thickness: initial; text-decoration-style: initial; text-decoration-color: initial;&quot;&gt;anch&lt;/font&gt;" style="text;whiteSpace=wrap;html=1;fontFamily=Times New Roman;" parent="1" vertex="1">
          <mxGeometry x="-60" y="1040" width="200" height="60" as="geometry" />
        </mxCell>
        <mxCell id="62" value="" style="edgeStyle=orthogonalEdgeStyle;rounded=0;orthogonalLoop=1;jettySize=auto;html=1;strokeWidth=3;exitX=0.5;exitY=1;exitDx=0;exitDy=0;fontFamily=Times New Roman;" parent="1" source="54" target="57" edge="1">
          <mxGeometry relative="1" as="geometry">
            <mxPoint x="477.39" y="1340" as="sourcePoint" />
            <mxPoint x="477.39" y="1389" as="targetPoint" />
          </mxGeometry>
        </mxCell>
        <mxCell id="63" value="" style="group;strokeWidth=4;fontFamily=Times New Roman;" parent="1" vertex="1" connectable="0">
          <mxGeometry x="700" y="200" width="460" height="40" as="geometry" />
        </mxCell>
        <mxCell id="64" value="" style="rounded=0;whiteSpace=wrap;html=1;strokeWidth=4;fontFamily=Times New Roman;" parent="63" vertex="1">
          <mxGeometry x="50" width="120" height="40" as="geometry" />
        </mxCell>
        <mxCell id="65" value="&lt;font style=&quot;font-size: 28px;&quot;&gt;32&amp;nbsp; &amp;nbsp;&lt;/font&gt;" style="rounded=1;whiteSpace=wrap;html=1;container=0;strokeWidth=4;align=right;fontFamily=Times New Roman;" parent="63" vertex="1">
          <mxGeometry width="420" height="40" as="geometry" />
        </mxCell>
        <mxCell id="66" value="" style="rounded=0;whiteSpace=wrap;html=1;fillColor=#B9E0A5;strokeWidth=4;fontFamily=Times New Roman;" parent="63" vertex="1">
          <mxGeometry x="160" width="120" height="40" as="geometry" />
        </mxCell>
        <mxCell id="67" value="" style="rounded=0;whiteSpace=wrap;html=1;fillColor=#FFE599;strokeWidth=4;fontFamily=Times New Roman;" parent="63" vertex="1">
          <mxGeometry x="40" width="120" height="40" as="geometry" />
        </mxCell>
        <mxCell id="68" value="" style="group;strokeWidth=4;fontFamily=Times New Roman;" parent="1" vertex="1" connectable="0">
          <mxGeometry x="700" y="240" width="460" height="40" as="geometry" />
        </mxCell>
        <mxCell id="69" value="" style="rounded=0;whiteSpace=wrap;html=1;strokeWidth=4;fontFamily=Times New Roman;" parent="68" vertex="1">
          <mxGeometry x="50" width="120" height="40" as="geometry" />
        </mxCell>
        <mxCell id="70" value="&lt;font style=&quot;font-size: 28px;&quot;&gt;32&amp;nbsp; &amp;nbsp;&lt;/font&gt;" style="rounded=1;whiteSpace=wrap;html=1;container=0;strokeWidth=4;align=right;fontFamily=Times New Roman;" parent="68" vertex="1">
          <mxGeometry width="420" height="40" as="geometry" />
        </mxCell>
        <mxCell id="71" value="" style="rounded=0;whiteSpace=wrap;html=1;fillColor=#B9E0A5;strokeWidth=4;fontFamily=Times New Roman;" parent="68" vertex="1">
          <mxGeometry x="160" width="120" height="40" as="geometry" />
        </mxCell>
        <mxCell id="72" value="" style="rounded=0;whiteSpace=wrap;html=1;fillColor=#FFE599;strokeWidth=4;fontFamily=Times New Roman;" parent="68" vertex="1">
          <mxGeometry x="40" width="120" height="40" as="geometry" />
        </mxCell>
        <mxCell id="73" value="" style="group;strokeWidth=4;fontFamily=Times New Roman;" parent="1" vertex="1" connectable="0">
          <mxGeometry x="700" y="360" width="460" height="40" as="geometry" />
        </mxCell>
        <mxCell id="74" value="" style="rounded=0;whiteSpace=wrap;html=1;strokeWidth=4;fontFamily=Times New Roman;" parent="73" vertex="1">
          <mxGeometry x="50" width="120" height="40" as="geometry" />
        </mxCell>
        <mxCell id="75" value="&lt;font style=&quot;font-size: 28px;&quot;&gt;64&amp;nbsp; &amp;nbsp;&lt;/font&gt;" style="rounded=1;whiteSpace=wrap;html=1;container=0;strokeWidth=4;align=right;fontFamily=Times New Roman;" parent="73" vertex="1">
          <mxGeometry width="420" height="40" as="geometry" />
        </mxCell>
        <mxCell id="76" value="" style="rounded=0;whiteSpace=wrap;html=1;fillColor=#B9E0A5;strokeWidth=4;fontFamily=Times New Roman;" parent="73" vertex="1">
          <mxGeometry x="160" width="120" height="40" as="geometry" />
        </mxCell>
        <mxCell id="77" value="" style="rounded=0;whiteSpace=wrap;html=1;fillColor=#FFE599;strokeWidth=4;fontFamily=Times New Roman;" parent="73" vertex="1">
          <mxGeometry x="40" width="120" height="40" as="geometry" />
        </mxCell>
        <mxCell id="78" value="" style="group;strokeWidth=4;fontFamily=Times New Roman;" parent="1" vertex="1" connectable="0">
          <mxGeometry x="700" y="400" width="460" height="40" as="geometry" />
        </mxCell>
        <mxCell id="79" value="" style="rounded=0;whiteSpace=wrap;html=1;strokeWidth=4;fontFamily=Times New Roman;" parent="78" vertex="1">
          <mxGeometry x="50" width="120" height="40" as="geometry" />
        </mxCell>
        <mxCell id="80" value="&lt;font style=&quot;font-size: 28px;&quot;&gt;64&amp;nbsp; &amp;nbsp;&lt;/font&gt;" style="rounded=1;whiteSpace=wrap;html=1;container=0;strokeWidth=4;align=right;fontFamily=Times New Roman;" parent="78" vertex="1">
          <mxGeometry width="420" height="40" as="geometry" />
        </mxCell>
        <mxCell id="81" value="" style="rounded=0;whiteSpace=wrap;html=1;fillColor=#B9E0A5;strokeWidth=4;fontFamily=Times New Roman;" parent="78" vertex="1">
          <mxGeometry x="160" width="120" height="40" as="geometry" />
        </mxCell>
        <mxCell id="82" value="" style="rounded=0;whiteSpace=wrap;html=1;fillColor=#FFE599;strokeWidth=4;fontFamily=Times New Roman;" parent="78" vertex="1">
          <mxGeometry x="40" width="120" height="40" as="geometry" />
        </mxCell>
        <mxCell id="83" value="" style="group;strokeWidth=4;fontFamily=Times New Roman;" parent="1" vertex="1" connectable="0">
          <mxGeometry x="700" y="440" width="460" height="40" as="geometry" />
        </mxCell>
        <mxCell id="84" value="" style="rounded=0;whiteSpace=wrap;html=1;strokeWidth=4;fontFamily=Times New Roman;" parent="83" vertex="1">
          <mxGeometry x="50" width="120" height="40" as="geometry" />
        </mxCell>
        <mxCell id="85" value="&lt;font style=&quot;font-size: 28px;&quot;&gt;64&amp;nbsp; &amp;nbsp;&lt;/font&gt;" style="rounded=1;whiteSpace=wrap;html=1;container=0;strokeWidth=4;align=right;fontFamily=Times New Roman;" parent="83" vertex="1">
          <mxGeometry width="420" height="40" as="geometry" />
        </mxCell>
        <mxCell id="86" value="" style="rounded=0;whiteSpace=wrap;html=1;fillColor=#B9E0A5;strokeWidth=4;fontFamily=Times New Roman;" parent="83" vertex="1">
          <mxGeometry x="160" width="120" height="40" as="geometry" />
        </mxCell>
        <mxCell id="87" value="" style="rounded=0;whiteSpace=wrap;html=1;fillColor=#FFE599;strokeWidth=4;fontFamily=Times New Roman;" parent="83" vertex="1">
          <mxGeometry x="40" width="120" height="40" as="geometry" />
        </mxCell>
        <mxCell id="88" value="" style="group;strokeWidth=4;fontFamily=Times New Roman;" parent="1" vertex="1" connectable="0">
          <mxGeometry x="700" y="560" width="460" height="40" as="geometry" />
        </mxCell>
        <mxCell id="89" value="" style="rounded=0;whiteSpace=wrap;html=1;strokeWidth=4;fontFamily=Times New Roman;" parent="88" vertex="1">
          <mxGeometry x="50" width="120" height="40" as="geometry" />
        </mxCell>
        <mxCell id="90" value="&lt;font style=&quot;font-size: 28px;&quot;&gt;128&amp;nbsp; &amp;nbsp;&lt;/font&gt;" style="rounded=1;whiteSpace=wrap;html=1;container=0;strokeWidth=4;align=right;fontFamily=Times New Roman;" parent="88" vertex="1">
          <mxGeometry width="420" height="40" as="geometry" />
        </mxCell>
        <mxCell id="91" value="" style="rounded=0;whiteSpace=wrap;html=1;fillColor=#B9E0A5;strokeWidth=4;fontFamily=Times New Roman;" parent="88" vertex="1">
          <mxGeometry x="160" width="120" height="40" as="geometry" />
        </mxCell>
        <mxCell id="92" value="" style="rounded=0;whiteSpace=wrap;html=1;fillColor=#FFE599;strokeWidth=4;fontFamily=Times New Roman;" parent="88" vertex="1">
          <mxGeometry x="40" width="120" height="40" as="geometry" />
        </mxCell>
        <mxCell id="93" value="" style="group;strokeWidth=4;fontFamily=Times New Roman;" parent="1" vertex="1" connectable="0">
          <mxGeometry x="700" y="600" width="460" height="40" as="geometry" />
        </mxCell>
        <mxCell id="94" value="" style="rounded=0;whiteSpace=wrap;html=1;strokeWidth=4;fontFamily=Times New Roman;" parent="93" vertex="1">
          <mxGeometry x="50" width="120" height="40" as="geometry" />
        </mxCell>
        <mxCell id="95" value="&lt;font style=&quot;font-size: 28px;&quot;&gt;128&amp;nbsp; &amp;nbsp;&lt;/font&gt;" style="rounded=1;whiteSpace=wrap;html=1;container=0;strokeWidth=4;align=right;fontFamily=Times New Roman;" parent="93" vertex="1">
          <mxGeometry width="420" height="40" as="geometry" />
        </mxCell>
        <mxCell id="96" value="" style="rounded=0;whiteSpace=wrap;html=1;fillColor=#B9E0A5;strokeWidth=4;fontFamily=Times New Roman;" parent="93" vertex="1">
          <mxGeometry x="160" width="120" height="40" as="geometry" />
        </mxCell>
        <mxCell id="97" value="" style="rounded=0;whiteSpace=wrap;html=1;fillColor=#FFE599;strokeWidth=4;fontFamily=Times New Roman;" parent="93" vertex="1">
          <mxGeometry x="40" width="120" height="40" as="geometry" />
        </mxCell>
        <mxCell id="98" value="" style="group;strokeWidth=4;fontFamily=Times New Roman;" parent="1" vertex="1" connectable="0">
          <mxGeometry x="700" y="640" width="460" height="40" as="geometry" />
        </mxCell>
        <mxCell id="99" value="" style="rounded=0;whiteSpace=wrap;html=1;strokeWidth=4;fontFamily=Times New Roman;" parent="98" vertex="1">
          <mxGeometry x="50" width="120" height="40" as="geometry" />
        </mxCell>
        <mxCell id="100" value="&lt;font style=&quot;font-size: 28px;&quot;&gt;128&amp;nbsp; &amp;nbsp;&lt;/font&gt;" style="rounded=1;whiteSpace=wrap;html=1;container=0;strokeWidth=4;align=right;fontFamily=Times New Roman;" parent="98" vertex="1">
          <mxGeometry width="420" height="40" as="geometry" />
        </mxCell>
        <mxCell id="101" value="" style="rounded=0;whiteSpace=wrap;html=1;fillColor=#B9E0A5;strokeWidth=4;fontFamily=Times New Roman;" parent="98" vertex="1">
          <mxGeometry x="160" width="120" height="40" as="geometry" />
        </mxCell>
        <mxCell id="102" value="" style="rounded=0;whiteSpace=wrap;html=1;fillColor=#FFE599;strokeWidth=4;fontFamily=Times New Roman;" parent="98" vertex="1">
          <mxGeometry x="40" width="120" height="40" as="geometry" />
        </mxCell>
        <mxCell id="103" value="" style="edgeStyle=none;html=1;strokeColor=#FFFFFF;strokeWidth=3;fontFamily=Times New Roman;" parent="1" source="28" target="104" edge="1">
          <mxGeometry relative="1" as="geometry">
            <mxPoint x="20" y="240" as="sourcePoint" />
            <mxPoint x="20" y="560" as="targetPoint" />
          </mxGeometry>
        </mxCell>
        <mxCell id="104" value="&lt;font style=&quot;font-size: 28px;&quot;&gt;3 x 3 Conv&lt;/font&gt;" style="rounded=1;whiteSpace=wrap;html=1;container=0;strokeWidth=4;fillColor=#b1ddf0;strokeColor=#000000;fontFamily=Times New Roman;" parent="1" vertex="1">
          <mxGeometry x="-190" y="240" width="420" height="40" as="geometry" />
        </mxCell>
        <mxCell id="105" value="&lt;font style=&quot;font-size: 28px;&quot;&gt;3 x 3 Conv&lt;/font&gt;" style="rounded=1;whiteSpace=wrap;html=1;container=0;strokeWidth=4;fillColor=#994C00;strokeColor=#000000;fillStyle=auto;fontFamily=Times New Roman;" parent="1" vertex="1">
          <mxGeometry x="-190" y="560" width="420" height="40" as="geometry" />
        </mxCell>
        <mxCell id="106" value="&lt;font style=&quot;font-size: 28px;&quot;&gt;CG block&lt;/font&gt;" style="rounded=1;whiteSpace=wrap;html=1;container=0;strokeWidth=4;fillColor=#00CC00;strokeColor=#000000;fontFamily=Times New Roman;" parent="1" vertex="1">
          <mxGeometry x="-190" y="360" width="420" height="40" as="geometry" />
        </mxCell>
        <mxCell id="107" value="&lt;font style=&quot;font-size: 28px;&quot;&gt;CG block&lt;/font&gt;" style="rounded=1;whiteSpace=wrap;html=1;container=0;strokeWidth=4;fillColor=#00CC00;strokeColor=#000000;fontFamily=Times New Roman;" parent="1" vertex="1">
          <mxGeometry x="-190" y="440" width="420" height="40" as="geometry" />
        </mxCell>
        <mxCell id="108" value="&lt;font style=&quot;font-size: 28px;&quot;&gt;3 x 3 Conv&lt;/font&gt;" style="rounded=1;whiteSpace=wrap;html=1;container=0;strokeWidth=4;fillColor=#994C00;strokeColor=#000000;fillStyle=auto;fontFamily=Times New Roman;" parent="1" vertex="1">
          <mxGeometry x="-190" y="650" width="420" height="40" as="geometry" />
        </mxCell>
        <mxCell id="109" value="" style="endArrow=none;html=1;rounded=0;entryX=0.5;entryY=1;entryDx=0;entryDy=0;exitX=0.5;exitY=0;exitDx=0;exitDy=0;strokeWidth=3;fontFamily=Times New Roman;" parent="1" source="108" target="105" edge="1">
          <mxGeometry width="50" height="50" relative="1" as="geometry">
            <mxPoint x="30" y="370" as="sourcePoint" />
            <mxPoint x="30" y="290" as="targetPoint" />
          </mxGeometry>
        </mxCell>
        <mxCell id="110" value="" style="endArrow=none;html=1;rounded=0;entryX=0.5;entryY=1;entryDx=0;entryDy=0;exitX=0.5;exitY=0;exitDx=0;exitDy=0;strokeWidth=3;fontFamily=Times New Roman;" parent="1" source="26" target="108" edge="1">
          <mxGeometry width="50" height="50" relative="1" as="geometry">
            <mxPoint x="40" y="380" as="sourcePoint" />
            <mxPoint x="40" y="300" as="targetPoint" />
          </mxGeometry>
        </mxCell>
        <mxCell id="111" value="" style="endArrow=classic;html=1;rounded=0;exitX=0;exitY=0.5;exitDx=0;exitDy=0;entryX=0;entryY=0.25;entryDx=0;entryDy=0;edgeStyle=orthogonalEdgeStyle;strokeWidth=3;fontFamily=Times New Roman;" parent="1" source="30" target="106" edge="1">
          <mxGeometry width="50" height="50" relative="1" as="geometry">
            <mxPoint x="200" y="350" as="sourcePoint" />
            <mxPoint x="250" y="300" as="targetPoint" />
            <Array as="points">
              <mxPoint x="-230" y="180" />
              <mxPoint x="-230" y="370" />
            </Array>
          </mxGeometry>
        </mxCell>
        <mxCell id="112" value="" style="endArrow=classic;html=1;rounded=0;exitX=0;exitY=0.5;exitDx=0;exitDy=0;edgeStyle=orthogonalEdgeStyle;strokeWidth=3;fontFamily=Times New Roman;" parent="1" edge="1">
          <mxGeometry width="50" height="50" relative="1" as="geometry">
            <mxPoint x="-190" y="390" as="sourcePoint" />
            <mxPoint x="-190" y="570" as="targetPoint" />
            <Array as="points">
              <mxPoint x="-230" y="390" />
              <mxPoint x="-230" y="570" />
              <mxPoint x="-190" y="570" />
            </Array>
          </mxGeometry>
        </mxCell>
        <mxCell id="113" value="" style="endArrow=classic;html=1;rounded=0;exitX=0;exitY=0.5;exitDx=0;exitDy=0;edgeStyle=orthogonalEdgeStyle;entryX=1;entryY=0.5;entryDx=0;entryDy=0;strokeWidth=3;fontFamily=Times New Roman;" parent="1" source="58" target="106" edge="1">
          <mxGeometry width="50" height="50" relative="1" as="geometry">
            <mxPoint x="-50" y="-10" as="sourcePoint" />
            <mxPoint x="-370" y="280" as="targetPoint" />
            <Array as="points">
              <mxPoint x="290" y="-82" />
              <mxPoint x="290" y="380" />
            </Array>
          </mxGeometry>
        </mxCell>
        <mxCell id="114" value="" style="endArrow=classic;html=1;rounded=0;edgeStyle=orthogonalEdgeStyle;strokeWidth=3;entryX=1;entryY=0.5;entryDx=0;entryDy=0;jumpStyle=arc;jumpSize=18;fontFamily=Times New Roman;" parent="1" target="105" edge="1">
          <mxGeometry width="50" height="50" relative="1" as="geometry">
            <mxPoint x="280" y="380" as="sourcePoint" />
            <mxPoint x="280" y="570" as="targetPoint" />
            <Array as="points">
              <mxPoint x="290" y="380" />
              <mxPoint x="290" y="580" />
            </Array>
          </mxGeometry>
        </mxCell>
        <mxCell id="Udkh_0XvXgFXBY_L_qVN-132" value="" style="group;rotation=0;fontFamily=Times New Roman;strokeWidth=3;" parent="1" vertex="1" connectable="0">
          <mxGeometry x="-470" y="-1730" width="460" height="1196" as="geometry" />
        </mxCell>
        <mxCell id="Udkh_0XvXgFXBY_L_qVN-168" value="" style="edgeStyle=orthogonalEdgeStyle;rounded=0;orthogonalLoop=1;jettySize=auto;html=1;fontFamily=Times New Roman;strokeWidth=3;" parent="Udkh_0XvXgFXBY_L_qVN-132" source="Udkh_0XvXgFXBY_L_qVN-116" target="Udkh_0XvXgFXBY_L_qVN-118" edge="1">
          <mxGeometry relative="1" as="geometry" />
        </mxCell>
        <mxCell id="Udkh_0XvXgFXBY_L_qVN-169" value="" style="edgeStyle=orthogonalEdgeStyle;rounded=0;orthogonalLoop=1;jettySize=auto;html=1;fontFamily=Times New Roman;strokeWidth=3;" parent="Udkh_0XvXgFXBY_L_qVN-132" source="Udkh_0XvXgFXBY_L_qVN-116" target="Udkh_0XvXgFXBY_L_qVN-118" edge="1">
          <mxGeometry relative="1" as="geometry" />
        </mxCell>
        <mxCell id="Udkh_0XvXgFXBY_L_qVN-116" value="&lt;font style=&quot;font-size: 28px;&quot;&gt;3 x 3 Conv&lt;/font&gt;" style="rounded=1;whiteSpace=wrap;html=1;container=0;strokeWidth=3;fillColor=#d5e8d4;strokeColor=#82b366;fontFamily=Times New Roman;rotation=0;" parent="Udkh_0XvXgFXBY_L_qVN-132" vertex="1">
          <mxGeometry x="40" y="60" width="420" height="40" as="geometry" />
        </mxCell>
        <mxCell id="Udkh_0XvXgFXBY_L_qVN-117" value="" style="edgeStyle=none;html=1;strokeWidth=3;strokeColor=#FFFFFF;fontFamily=Times New Roman;" parent="Udkh_0XvXgFXBY_L_qVN-132" source="Udkh_0XvXgFXBY_L_qVN-118" target="Udkh_0XvXgFXBY_L_qVN-116" edge="1">
          <mxGeometry relative="1" as="geometry" />
        </mxCell>
        <mxCell id="Udkh_0XvXgFXBY_L_qVN-118" value="&lt;font style=&quot;font-size: 28px;&quot;&gt;3 x 3 Conv&lt;/font&gt;" style="rounded=1;whiteSpace=wrap;html=1;container=0;strokeWidth=3;fillColor=#d5e8d4;strokeColor=#82b366;fontFamily=Times New Roman;rotation=0;" parent="Udkh_0XvXgFXBY_L_qVN-132" vertex="1">
          <mxGeometry x="40" width="420" height="40" as="geometry" />
        </mxCell>
        <mxCell id="Udkh_0XvXgFXBY_L_qVN-122" value="" style="edgeStyle=none;html=1;strokeColor=#FFFFFF;strokeWidth=3;fontFamily=Times New Roman;" parent="Udkh_0XvXgFXBY_L_qVN-132" source="Udkh_0XvXgFXBY_L_qVN-116" target="Udkh_0XvXgFXBY_L_qVN-123" edge="1">
          <mxGeometry relative="1" as="geometry">
            <mxPoint x="250" y="80" as="sourcePoint" />
            <mxPoint x="250" y="400" as="targetPoint" />
          </mxGeometry>
        </mxCell>
        <mxCell id="Udkh_0XvXgFXBY_L_qVN-123" value="&lt;font style=&quot;font-size: 28px;&quot;&gt;3 x 3 Conv&lt;/font&gt;" style="rounded=1;whiteSpace=wrap;html=1;container=0;strokeWidth=3;fillColor=#d5e8d4;strokeColor=#82b366;fontFamily=Times New Roman;rotation=0;" parent="Udkh_0XvXgFXBY_L_qVN-132" vertex="1">
          <mxGeometry x="40" y="120" width="420" height="40" as="geometry" />
        </mxCell>
        <mxCell id="Udkh_0XvXgFXBY_L_qVN-115" value="" style="edgeStyle=none;html=1;strokeWidth=3;strokeColor=#FFFFFF;fontFamily=Times New Roman;" parent="Udkh_0XvXgFXBY_L_qVN-132" source="Udkh_0XvXgFXBY_L_qVN-116" target="Udkh_0XvXgFXBY_L_qVN-123" edge="1">
          <mxGeometry relative="1" as="geometry" />
        </mxCell>
        <mxCell id="Udkh_0XvXgFXBY_L_qVN-124" value="&lt;font style=&quot;font-size: 28px;&quot;&gt;CG block&lt;/font&gt;" style="rounded=1;whiteSpace=wrap;html=1;container=0;strokeWidth=3;fillColor=#fad7ac;strokeColor=#b46504;fillStyle=auto;fontFamily=Times New Roman;rotation=0;" parent="Udkh_0XvXgFXBY_L_qVN-132" vertex="1">
          <mxGeometry x="40" y="400" width="420" height="40" as="geometry" />
        </mxCell>
        <mxCell id="Udkh_0XvXgFXBY_L_qVN-145" value="" style="edgeStyle=orthogonalEdgeStyle;rounded=0;orthogonalLoop=1;jettySize=auto;html=1;strokeWidth=3;fontFamily=Times New Roman;" parent="Udkh_0XvXgFXBY_L_qVN-132" source="Udkh_0XvXgFXBY_L_qVN-125" edge="1">
          <mxGeometry relative="1" as="geometry">
            <mxPoint x="250" y="260" as="targetPoint" />
          </mxGeometry>
        </mxCell>
        <mxCell id="Udkh_0XvXgFXBY_L_qVN-125" value="&lt;font style=&quot;font-size: 28px;&quot;&gt;CG block&lt;/font&gt;" style="rounded=1;whiteSpace=wrap;html=1;container=0;strokeWidth=3;fillColor=#b0e3e6;strokeColor=#0e8088;fontFamily=Times New Roman;rotation=0;" parent="Udkh_0XvXgFXBY_L_qVN-132" vertex="1">
          <mxGeometry x="40" y="200" width="420" height="40" as="geometry" />
        </mxCell>
        <mxCell id="Udkh_0XvXgFXBY_L_qVN-144" value="" style="edgeStyle=orthogonalEdgeStyle;rounded=0;orthogonalLoop=1;jettySize=auto;html=1;strokeWidth=3;fontFamily=Times New Roman;" parent="Udkh_0XvXgFXBY_L_qVN-132" source="Udkh_0XvXgFXBY_L_qVN-126" target="Udkh_0XvXgFXBY_L_qVN-124" edge="1">
          <mxGeometry relative="1" as="geometry" />
        </mxCell>
        <mxCell id="Udkh_0XvXgFXBY_L_qVN-126" value="&lt;font style=&quot;font-size: 28px;&quot;&gt;CG block&lt;/font&gt;" style="rounded=1;whiteSpace=wrap;html=1;container=0;strokeWidth=3;fillColor=#b0e3e6;strokeColor=#0e8088;fontFamily=Times New Roman;rotation=0;" parent="Udkh_0XvXgFXBY_L_qVN-132" vertex="1">
          <mxGeometry x="40" y="320" width="420" height="40" as="geometry" />
        </mxCell>
        <mxCell id="Udkh_0XvXgFXBY_L_qVN-130" value="" style="endArrow=classic;html=1;rounded=0;exitX=0;exitY=0.5;exitDx=0;exitDy=0;entryX=0;entryY=0.25;entryDx=0;entryDy=0;edgeStyle=orthogonalEdgeStyle;strokeWidth=3;fontFamily=Times New Roman;" parent="Udkh_0XvXgFXBY_L_qVN-132" source="Udkh_0XvXgFXBY_L_qVN-118" target="Udkh_0XvXgFXBY_L_qVN-125" edge="1">
          <mxGeometry width="50" height="50" relative="1" as="geometry">
            <mxPoint x="430" y="190" as="sourcePoint" />
            <mxPoint x="480" y="140" as="targetPoint" />
            <Array as="points">
              <mxPoint y="20" />
              <mxPoint y="210" />
            </Array>
          </mxGeometry>
        </mxCell>
        <mxCell id="Udkh_0XvXgFXBY_L_qVN-131" value="" style="endArrow=classic;html=1;rounded=0;exitX=0;exitY=0.5;exitDx=0;exitDy=0;edgeStyle=orthogonalEdgeStyle;strokeWidth=3;fontFamily=Times New Roman;" parent="Udkh_0XvXgFXBY_L_qVN-132" edge="1">
          <mxGeometry width="50" height="50" relative="1" as="geometry">
            <mxPoint x="40" y="230" as="sourcePoint" />
            <mxPoint x="40" y="410" as="targetPoint" />
            <Array as="points">
              <mxPoint y="230" />
              <mxPoint y="410" />
              <mxPoint x="40" y="410" />
            </Array>
          </mxGeometry>
        </mxCell>
        <mxCell id="Udkh_0XvXgFXBY_L_qVN-149" value="" style="edgeStyle=orthogonalEdgeStyle;rounded=0;orthogonalLoop=1;jettySize=auto;html=1;strokeWidth=3;exitX=0.5;exitY=1;exitDx=0;exitDy=0;fontFamily=Times New Roman;" parent="Udkh_0XvXgFXBY_L_qVN-132" source="Udkh_0XvXgFXBY_L_qVN-123" edge="1">
          <mxGeometry relative="1" as="geometry">
            <mxPoint x="249.76" y="130" as="sourcePoint" />
            <mxPoint x="250" y="200" as="targetPoint" />
          </mxGeometry>
        </mxCell>
        <mxCell id="Udkh_0XvXgFXBY_L_qVN-152" value="" style="edgeStyle=orthogonalEdgeStyle;rounded=0;orthogonalLoop=1;jettySize=auto;html=1;strokeWidth=3;fontFamily=Times New Roman;" parent="Udkh_0XvXgFXBY_L_qVN-132" target="Udkh_0XvXgFXBY_L_qVN-126" edge="1">
          <mxGeometry relative="1" as="geometry">
            <mxPoint x="250" y="300" as="sourcePoint" />
            <mxPoint x="249.77" y="320" as="targetPoint" />
            <Array as="points">
              <mxPoint x="250" y="320" />
              <mxPoint x="250" y="320" />
            </Array>
          </mxGeometry>
        </mxCell>
        <mxCell id="Udkh_0XvXgFXBY_L_qVN-154" value="" style="endArrow=none;dashed=1;html=1;dashPattern=1 3;strokeWidth=3;rounded=0;fontFamily=Times New Roman;" parent="Udkh_0XvXgFXBY_L_qVN-132" edge="1">
          <mxGeometry width="50" height="50" relative="1" as="geometry">
            <mxPoint x="249.77" y="290" as="sourcePoint" />
            <mxPoint x="249.77" y="270" as="targetPoint" />
          </mxGeometry>
        </mxCell>
        <mxCell id="Udkh_0XvXgFXBY_L_qVN-155" value="" style="edgeStyle=orthogonalEdgeStyle;rounded=0;orthogonalLoop=1;jettySize=auto;html=1;strokeWidth=3;exitX=0.5;exitY=1;exitDx=0;exitDy=0;fontFamily=Times New Roman;" parent="Udkh_0XvXgFXBY_L_qVN-132" source="Udkh_0XvXgFXBY_L_qVN-124" edge="1">
          <mxGeometry relative="1" as="geometry">
            <mxPoint x="250" y="440" as="sourcePoint" />
            <mxPoint x="250" y="500" as="targetPoint" />
          </mxGeometry>
        </mxCell>
        <mxCell id="Udkh_0XvXgFXBY_L_qVN-157" value="" style="endArrow=none;dashed=1;html=1;dashPattern=1 3;strokeWidth=3;rounded=0;fontFamily=Times New Roman;" parent="Udkh_0XvXgFXBY_L_qVN-132" edge="1">
          <mxGeometry width="50" height="50" relative="1" as="geometry">
            <mxPoint x="249.89" y="550" as="sourcePoint" />
            <mxPoint x="249.89" y="510" as="targetPoint" />
          </mxGeometry>
        </mxCell>
        <mxCell id="Udkh_0XvXgFXBY_L_qVN-166" value="" style="edgeStyle=orthogonalEdgeStyle;rounded=0;orthogonalLoop=1;jettySize=auto;html=1;strokeWidth=3;exitX=0.5;exitY=1;exitDx=0;exitDy=0;fontFamily=Times New Roman;" parent="Udkh_0XvXgFXBY_L_qVN-132" source="Udkh_0XvXgFXBY_L_qVN-116" target="Udkh_0XvXgFXBY_L_qVN-123" edge="1">
          <mxGeometry relative="1" as="geometry">
            <mxPoint x="260" y="170" as="sourcePoint" />
            <mxPoint x="250" y="120" as="targetPoint" />
          </mxGeometry>
        </mxCell>
        <mxCell id="Udkh_0XvXgFXBY_L_qVN-167" value="" style="edgeStyle=orthogonalEdgeStyle;rounded=0;orthogonalLoop=1;jettySize=auto;html=1;strokeWidth=3;exitX=0.5;exitY=1;exitDx=0;exitDy=0;fontFamily=Times New Roman;" parent="Udkh_0XvXgFXBY_L_qVN-132" source="Udkh_0XvXgFXBY_L_qVN-118" target="Udkh_0XvXgFXBY_L_qVN-116" edge="1">
          <mxGeometry relative="1" as="geometry">
            <mxPoint x="270" y="180" as="sourcePoint" />
            <mxPoint x="250" y="60" as="targetPoint" />
          </mxGeometry>
        </mxCell>
        <mxCell id="Udkh_0XvXgFXBY_L_qVN-114" value="&lt;font style=&quot;font-size: 28px;&quot;&gt;1 x 1 Conv&lt;/font&gt;" style="rounded=1;whiteSpace=wrap;html=1;container=0;strokeWidth=3;fillColor=#dae8fc;strokeColor=#6c8ebf;fontFamily=Times New Roman;rotation=0;" parent="Udkh_0XvXgFXBY_L_qVN-132" vertex="1">
          <mxGeometry x="40" y="690" width="420" height="80" as="geometry" />
        </mxCell>
        <mxCell id="Udkh_0XvXgFXBY_L_qVN-143" value="" style="edgeStyle=orthogonalEdgeStyle;rounded=0;orthogonalLoop=1;jettySize=auto;html=1;strokeWidth=3;fontFamily=Times New Roman;" parent="Udkh_0XvXgFXBY_L_qVN-132" source="Udkh_0XvXgFXBY_L_qVN-127" target="Udkh_0XvXgFXBY_L_qVN-114" edge="1">
          <mxGeometry relative="1" as="geometry" />
        </mxCell>
        <mxCell id="Udkh_0XvXgFXBY_L_qVN-127" value="&lt;font style=&quot;font-size: 28px;&quot;&gt;CG block&lt;/font&gt;" style="rounded=1;whiteSpace=wrap;html=1;container=0;strokeWidth=3;fillColor=#fad7ac;strokeColor=#b46504;fillStyle=auto;fontFamily=Times New Roman;rotation=0;" parent="Udkh_0XvXgFXBY_L_qVN-132" vertex="1">
          <mxGeometry x="40" y="610" width="420" height="40" as="geometry" />
        </mxCell>
        <mxCell id="Udkh_0XvXgFXBY_L_qVN-156" value="" style="edgeStyle=orthogonalEdgeStyle;rounded=0;orthogonalLoop=1;jettySize=auto;html=1;strokeWidth=3;entryX=0.5;entryY=0;entryDx=0;entryDy=0;fontFamily=Times New Roman;" parent="Udkh_0XvXgFXBY_L_qVN-132" target="Udkh_0XvXgFXBY_L_qVN-127" edge="1">
          <mxGeometry relative="1" as="geometry">
            <mxPoint x="250" y="560" as="sourcePoint" />
            <mxPoint x="250" y="610" as="targetPoint" />
            <Array as="points">
              <mxPoint x="250" y="580" />
              <mxPoint x="250" y="580" />
            </Array>
          </mxGeometry>
        </mxCell>
        <mxCell id="Udkh_0XvXgFXBY_L_qVN-137" value="&lt;font style=&quot;font-size: 28px;&quot;&gt;Upsample&lt;/font&gt;" style="shape=trapezoid;perimeter=trapezoidPerimeter;whiteSpace=wrap;html=1;fixedSize=1;fillColor=#d5e8d4;strokeWidth=3;fontFamily=Times New Roman;strokeColor=#82b366;gradientColor=#97d077;" parent="Udkh_0XvXgFXBY_L_qVN-132" vertex="1">
          <mxGeometry x="80" y="820" width="340" height="60" as="geometry" />
        </mxCell>
        <mxCell id="Udkh_0XvXgFXBY_L_qVN-147" value="" style="edgeStyle=orthogonalEdgeStyle;rounded=0;orthogonalLoop=1;jettySize=auto;html=1;strokeWidth=3;exitX=0.5;exitY=1;exitDx=0;exitDy=0;entryX=0.5;entryY=0;entryDx=0;entryDy=0;fontFamily=Times New Roman;" parent="Udkh_0XvXgFXBY_L_qVN-132" source="Udkh_0XvXgFXBY_L_qVN-114" target="Udkh_0XvXgFXBY_L_qVN-137" edge="1">
          <mxGeometry relative="1" as="geometry">
            <mxPoint x="270" y="820" as="sourcePoint" />
            <mxPoint x="270" y="890" as="targetPoint" />
          </mxGeometry>
        </mxCell>
        <mxCell id="Udkh_0XvXgFXBY_L_qVN-160" value="" style="edgeStyle=orthogonalEdgeStyle;rounded=0;orthogonalLoop=1;jettySize=auto;html=1;strokeWidth=3;exitX=0.5;exitY=1;exitDx=0;exitDy=0;fontFamily=Times New Roman;" parent="Udkh_0XvXgFXBY_L_qVN-132" source="Udkh_0XvXgFXBY_L_qVN-137" target="Udkh_0XvXgFXBY_L_qVN-259" edge="1">
          <mxGeometry relative="1" as="geometry">
            <mxPoint x="249.71000000000004" y="890" as="sourcePoint" />
            <mxPoint x="250" y="930" as="targetPoint" />
          </mxGeometry>
        </mxCell>
        <mxCell id="Udkh_0XvXgFXBY_L_qVN-259" value="" style="shape=image;verticalLabelPosition=bottom;labelBackgroundColor=default;verticalAlign=top;aspect=fixed;imageAspect=0;image=data:image/jpeg,/9j/4AAQSkZJRgABAQAAAQABAAD/2wBDAAgGBgcGBQgHBwcJCQgKDBQNDAsLDBkSEw8UHRofHh0aHBwgJC4nICIsIxwcKDcpLDAxNDQ0Hyc5PTgyPC4zNDL/2wBDAQkJCQwLDBgNDRgyIRwhMjIyMjIyMjIyMjIyMjIyMjIyMjIyMjIyMjIyMjIyMjIyMjIyMjIyMjIyMjIyMjIyMjL/wAARCAEAAQADASIAAhEBAxEB/8QAHwAAAQUBAQEBAQEAAAAAAAAAAAECAwQFBgcICQoL/8QAtRAAAgEDAwIEAwUFBAQAAAF9AQIDAAQRBRIhMUEGE1FhByJxFDKBkaEII0KxwRVS0fAkM2JyggkKFhcYGRolJicoKSo0NTY3ODk6Q0RFRkdISUpTVFVWV1hZWmNkZWZnaGlqc3R1dnd4eXqDhIWGh4iJipKTlJWWl5iZmqKjpKWmp6ipqrKztLW2t7i5usLDxMXGx8jJytLT1NXW19jZ2uHi4+Tl5ufo6erx8vP09fb3+Pn6/8QAHwEAAwEBAQEBAQEBAQAAAAAAAAECAwQFBgcICQoL/8QAtREAAgECBAQDBAcFBAQAAQJ3AAECAxEEBSExBhJBUQdhcRMiMoEIFEKRobHBCSMzUvAVYnLRChYkNOEl8RcYGRomJygpKjU2Nzg5OkNERUZHSElKU1RVVldYWVpjZGVmZ2hpanN0dXZ3eHl6goOEhYaHiImKkpOUlZaXmJmaoqOkpaanqKmqsrO0tba3uLm6wsPExcbHyMnK0tPU1dbX2Nna4uPk5ebn6Onq8vP09fb3+Pn6/9oADAMBAAIRAxEAPwD5/ooooAKKKKACiiigAooooAKKKKACiiigAooooAKKKKACiiigAooooAKKKKACiiigAooooAKKKKACiiigAooooAKKKKACiiigAooooAKKKKACiiigAooooAKKKKACiiigAooooAKKKKACiiigAooooAKKKKACiiigAooooAKKKKACiiigAooooAKKKKACiiigAooooAKKKKACiiigAp8UMs77IYnkY/wopJ/Sug8G+Eb7xdrMdpaxM0YP7xhxgema+ofDfws8P6LZIkljG8uBnJJ5GOvrQB81eG/hn4p8US7bLT2ij7zXIKJ+eK9Ht/2ar5owbnxHbo5HIjtiwH4lhmvoS2toLOBYLeJY4l6Ko4FS0AfPN3+zVdKh+x+IoXbsJoCo/QmvNvF3w08ReDpgLy28+Bvuz24LKfrxX2fVTU9MtdX06axvIllglXBVh+tAHwXRXY/Erwr/AMIr4uuraFCto7FovT6CuOoAKKljt55QTHDI4HUqpNREEHBGCKACiiigAooooAKKKKACiiigAooooAKKKKACiiigAooooAKKKKACiigAk4AyTQAVpaFoWoeItUisNOtpJpXYA7R90E9TXdfD/wCEOo+LJkub0tbaeMFm/iI44r6V8NeDtE8J2gg0qzSM/wAUpALt+NAFDwF4Hs/BuixW6IrXRUGR/Q45FdbRRQAUUUUAFFFFAHB+Ovhjp3jRhNI3lTjGW6ZxXOaD+z/oOnXKT6hPJebTnyzwtev0UAY8XhXQYIPJj0m1CEAYMYP61yviL4N+FNdjkaOzFncP0khr0KigD418ffDrUvBd+++JnsGx5cu4H+VcVX3P4k8M6b4q0mTT9ShDxsPlcfeQ+or5O+IPw41TwPqLb42m06Q/ublRlceh9DQBxNFFFABRRRQAUUUUAFFFFABRRRQAUUUUAFFFFABRRRQAV6f8K/h1ceI79L66ti1mpBBJwOvWuE8O6PNruvWmnwRmRpHG5QQPlzz1r7S8L6Hb6DoVtaQRhSI13HGCTigC/p2nW2l2MdpaxhIoxgD196tUUUAFFFFABRRRQAUUUUAFFFFABRRRQAVS1bSLHXNNl0/UbdLi2lGGRxn8R6GrtFAHzr4z/Z6u7dpr3wrcrPCPmFlO2JB7K3Rvxx/j4hd2lzYXctreW8tvcRNtkilQqyH0IPIr75rjfHvw30bx9YhbsG21CJSIL6JAXXr8rD+JcnOMj2IyaAPjKit/xZ4L1zwVqQs9atPK8zcYZ0O6KYA4JRvyODgjIyBmsCgAooooAKKKKACiiigAooooAKKKKACiiigD0/4H6SuoeMhO6b1hA6NgjJ6/pX1hXzB8BUH9vyOWwquO4GK+n6ACiiigAooooAKKCQBknApFYMMqQR6g0ALRRRQAUUUUAFFFFABRRRQAUUUUAYvinwrpPjDRZdL1e3EkTZMci8PC+OHQ9iPyPQgjIr4u8R6DeeGPEN7ot+FFzaSbGKnIYEAqw9ipBHfmvuuvk349W8cPxTu5EzumtoXfPrt2+noo9f6AA8yooooAKKKKACiiigAooooAKKKKACiiigDu/hTqD2vi2GAAsshBwG285HuK+wYmDQow6FQa+FvD14LDxBY3BBISZc4OOvFfbmh30Wo6LaXMJBR4l757UAaFFFFABTXdY0Z2OFUZJNOrC8ValHY6TIpk2ySDAA64oAxta8U75ZLaCUKo6MvU1PoWtTPJHCWDrydo4yPqa8sfWGa9bDjBJwFHWul8N635kqxK4BHJAGP1oA9cBDAEHINLVbT5fOso346Y4qzQAUUUUAFFFFABRRRQAUUUUAFfF3xQ1m31/wCJWuahaEG3acRIwYMHEaLHuBHUHZkexFfSfxZ8ejwN4VZrWULrF7mOxBj3BSCN7nPHyhuM55K8EZr4+oAKKKKACiiigAooooAKKKKACiiigAooooAK+j/gx46iXRotMvJshOBk/d4HNfOFXtN1S40u4WaBjlckDOOSMUAfdaXdtIu5LiJlAySHHFVbvXNMsVJuL2BcDON4r5Bj+JXiGKZDHclYkziPce/vWff+NNav5Axu3jAzgKaAPqy6+I+jRybYZ1YAZ3HHP61554r8cQ385aKZVjbphuT+teA22o3cU0e2ZjhuATXQ2BvbyKE+YdgP3scnJoA6Y37TSI6MBGDkbT610/hq6mE8KoCAM/dNLoXg+7l01HK4UAbT/OvTvDvg9rIKZlCBegHX+dAG9oFyv2CKFsA4+Xnr61sVTWxSIYiG0A8AE59+9W1GFAznAoAWiiigAooooAKKKKACuE8f/FXRPAkTQORfav8AKVsI32kA93bBCDHIyMnjjHI5H4w/Fy48OXJ8P+HZoxqG3/SrgfMYMgYVQRjdg5z24r5rkkeWRpJHZ3clmZjkknqSaANTxJ4j1PxXrk+r6tP5t1LgYUYVFHRVHYD/AOuckk1k0UUAFFFFABRRRQAUUUUAFFFFABRRRQAUUUUAWdOsJ9T1G3sbZS007hFA969qP7P99Ja70IRsDCGUZ5Azzj1rz74UWovPifoMRTcouN5GM8KpP9K+zaAPme3/AGe9beZvOmRYweMSDLfp9a1ZP2c5fIdk1BPM42pv9+edtfQdFAHzxb/s93ttIJHuI7jByFEmMcjviuu0D4THTZYVnSMxIeMPkrXrNFAFSx0620+2SCCMBVGM1boooAKKKKACiiigAooooAK4D4o/EKDwXoMi28qnVZhthjxnbn+Kr/jj4gaV4OsJfOnU3u07IhyQccZr5N8V+Kb/AMV6zNf3srNuPyKeiigDIurqa9u5rq4cvNM5d2J6k1DRRQAUUUUAFFFFABRRRQAUUUUAFFFFABRRXofw9+EeseOR9tkf+z9JVgDcyoS0vr5Y749c4+vIoA89VWdgqqWYnAAGSTXW6R8MPGuuAPZ+HrxYyR+8uFECkHuC+Mj6Zr6p8JfD/wAO+DLRI9LsUNyB895MA0zn3bt9BgV1FAHj/wAKPg/c+DdTOt61cQSX4jKQxQMWWMNwSSQMnHHHrXsFFFABRRRQAUUUUAFFFFABSMyopZiFUDJJOABVPVtWsND0ybUtTuo7WzgGZJZDwOw9ySeABya+afiJ8bdR8RPcaboLPZ6U2F8zG2WQd8nsD6UAfSCeItGkuTbrqloZR1XzRWgkschISRWI64Oa+C0vruOUSpdTLIDkMHOa6fw98R9f0C5jkW8lmjTgIzYwO/NAH2hWXrmt22jWEs0si+aFJRM8k14T4b+OV44jt76Vt5yBlN2Px7/0qpr/AIzl1a8aW4umZcf6vaflG31xzmgDzrxzq91q3ie6e4lLqrfIvpkCuaq5qrBtTnIxgtVOgAooooAKKKKACiiigAooooAKKKKACiiigD0/4HeELLxR4wkudQ2yW+mIs/2dkDLKxOFBz2B59+K+r0RY0VEUKijCqowAPQV8W/DvxnJ4G8Vw6oUkltSrR3EKHl1I7cgZBwea+hLf4+eCJrcyPPewsBkxvb89M4GDjtQB6fRXi99+0h4fhuNllo+oXMY/5aOUjz9Bk/0rjte/aK1+8Hl6LYW+nLz+8k/eufTgjA/WgD6Zor43f4v+PXlEn/CR3AIzgCOMD8tvP41b/wCF3/ELy1Qa8oK/xfY4Mn6/JQB9e1navr+kaDb+fq2pWtlHgkGeUKWx1wDyT7CvjfVPiJ4w1gv9t8R6iyuMNHHMYkI91TA/SuZJJJJOSepoA+k/F37QulWIltfDNs2oTYAF3KpSIHvhThmx+A+tUfh78c59S1j7F4nmhiSXiORUCqp9zXz1SglWDKSCDkEdqAPv0EMoZSCCMgjvVDWdc0zw/p0t/q17DaWsalmeQ9fYDqx9hkmvjmz+JPjOwtEtbbxHfpCg2qpk3YH1PPesTU9a1XWpRLqmpXd646G4mZ8fTJ4oA634m/Ei88faz8nmQaNbt/olq2M9MF3x1Y/kBwO5PCUUUAFFFFAEttIIrmN2ztVgTj0ruNPaC4t5CZVYIFLDGNuR16c5rgqs2t9cWZPkvgHqCMigCzqdosd7cKjLiMjcee/4Vm1aE3nsTLIqHjnZnP8AnNXrGziurGRfMUN645H+NAGPRSsNrEehxSUAFFFFABRRRQAUUUUAFFFFABRRRQAUUUUAFFFFABRRRQAUUUUAFFFFABRRRQAUUUUAFFFFABRRRQAVesdRmtTsWTanrjoao0UAK5BdiOhNJRRQAUUUUAFFFFABRRRQAUUUUAFFFFABRRRQAUUUUAFFFFABRRRQAUUUUAFFFFABRRRQAUUUUAFFFFABRRRQAUUUUAFFFFABRRRQAUUUUAFFFFABRRRQAUUUUAFFFFABRRRQAUUUUAFFFFABRRRQAUUUUAFFFFABRRRQAUUUUAFFFFABRRRQAUUUUAFFFFABRRRQAUUUUAFFFFABRRRQAUUUUAFFFFABRRRQAUUUUAFFFFABRRRQAUUUUAFFFFABRRRQAUUUUAFFFFABRRRQAUUUUAFFFFABRRRQAUUUUAFFFFABRRRQAUUUUAFFFFABRRRQAUUUUAFFFFABRRRQAUUUUAFFFFABRRRQB//Z;fontFamily=Times New Roman;" parent="Udkh_0XvXgFXBY_L_qVN-132" vertex="1">
          <mxGeometry x="122" y="940" width="256" height="256" as="geometry" />
        </mxCell>
        <mxCell id="Udkh_0XvXgFXBY_L_qVN-136" value="" style="endArrow=classic;html=1;rounded=0;exitX=0;exitY=0.75;exitDx=0;exitDy=0;edgeStyle=orthogonalEdgeStyle;strokeWidth=3;fontFamily=Times New Roman;entryX=0;entryY=0.5;entryDx=0;entryDy=0;" parent="Udkh_0XvXgFXBY_L_qVN-132" source="Udkh_0XvXgFXBY_L_qVN-124" target="Udkh_0XvXgFXBY_L_qVN-114" edge="1">
          <mxGeometry width="50" height="50" relative="1" as="geometry">
            <mxPoint x="20" y="480" as="sourcePoint" />
            <mxPoint x="20" y="660" as="targetPoint" />
            <Array as="points">
              <mxPoint y="430" />
              <mxPoint y="730" />
            </Array>
          </mxGeometry>
        </mxCell>
        <mxCell id="Udkh_0XvXgFXBY_L_qVN-161" value="" style="shape=image;verticalLabelPosition=bottom;labelBackgroundColor=default;verticalAlign=top;aspect=fixed;imageAspect=0;image=data:image/jpeg,/9j/4AAQSkZJRgABAQAAAQABAAD/2wBDAAgGBgcGBQgHBwcJCQgKDBQNDAsLDBkSEw8UHRofHh0aHBwgJC4nICIsIxwcKDcpLDAxNDQ0Hyc5PTgyPC4zNDL/2wBDAQkJCQwLDBgNDRgyIRwhMjIyMjIyMjIyMjIyMjIyMjIyMjIyMjIyMjIyMjIyMjIyMjIyMjIyMjIyMjIyMjIyMjL/wAARCAEAAQADASIAAhEBAxEB/8QAHwAAAQUBAQEBAQEAAAAAAAAAAAECAwQFBgcICQoL/8QAtRAAAgEDAwIEAwUFBAQAAAF9AQIDAAQRBRIhMUEGE1FhByJxFDKBkaEII0KxwRVS0fAkM2JyggkKFhcYGRolJicoKSo0NTY3ODk6Q0RFRkdISUpTVFVWV1hZWmNkZWZnaGlqc3R1dnd4eXqDhIWGh4iJipKTlJWWl5iZmqKjpKWmp6ipqrKztLW2t7i5usLDxMXGx8jJytLT1NXW19jZ2uHi4+Tl5ufo6erx8vP09fb3+Pn6/8QAHwEAAwEBAQEBAQEBAQAAAAAAAAECAwQFBgcICQoL/8QAtREAAgECBAQDBAcFBAQAAQJ3AAECAxEEBSExBhJBUQdhcRMiMoEIFEKRobHBCSMzUvAVYnLRChYkNOEl8RcYGRomJygpKjU2Nzg5OkNERUZHSElKU1RVVldYWVpjZGVmZ2hpanN0dXZ3eHl6goOEhYaHiImKkpOUlZaXmJmaoqOkpaanqKmqsrO0tba3uLm6wsPExcbHyMnK0tPU1dbX2Nna4uPk5ebn6Onq8vP09fb3+Pn6/9oADAMBAAIRAxEAPwD1fUbQO3mAfMKrW155LbHGDW1KAwrLuLQMcgc1hGVi3G5qo++NT7U6si2ungOyQZX1rUjkWRcqQRXfGSktDkkmnqPoooqiQoxRRQAUYoooAKKKqX2pWWmQmW9uUhQd2PJ+g70AakI/dH61m3kDGRnPCgda4vVPipb28TRaVatK3/PWbgfgK8+1zxZrmuErNeusZPKRnao/KuSrT55XOqnPljYi18pb+KLtUYOplLDByDmmf2xHoE8GqRwK0sDB1DdCaz5LTanmRnc6EE1n67K9xprBht2KufrnFDVlYaetz3PwP4+XxWWt5rZYZwu8bTlWHeud+JGlCW4MltY7SoJeRRgGuU+D9w0PiKBSeoZfzFd78XNf/sXwlMq7RLc/uoznnnrXLKPvWR1p+62z5vur+Z5ZFDgDcRxVIsc5JyaZnPNA557CuxKxxtnYfDzxdbeD/Ef9o3Vs08ZjKHZjcue4zX0V4Y8e+HPFQxa6gqTn/ljOdj/r1/CvkTtmtvw1HD/aVs1wTsZ9owcEE9DUypqQ1Kx9oRxJGOMYpwX5ScivnzTviJr3g+7S2u2OoacfuiQ/MB7NXrHh74ieHvEsIS3uRBckcwTfK2fbsazdNopSTOpaZUUcU6NjL83QVSdQ6ZBzU0L+WoVTnNZXLa0PLfjY8kFhA8bbcsBkV4d/aN0P+W7/AJ17F8cWmaG2XJK56V4hsk/ut+VdVJ+6YzjqXxql2P8Alu/509NYvQR+/bH1rP2P6H8qTDjsa1uRyo6W21q5TDGRjV8eJrpR95q5FZ3Ud6f9ok9KkLI+wGbNRMAaqLfWrDi4X86d9phbgTL+dc/spGntYivCGFQhZIWyhOKsBkxkSr+dKMP/ABg01GcdhOcHuOhvAeJBg+tWg6kZDCqZt89CKT7PIBjP61vGpL7SMnCPRl3zFzjcM/WnZFZEljKzblkIP1qezS4ikIlbK1oppkOLRoUhYDqaJARESvJ7VwOvy67EZriN9kS9M1at1ZDv0RqeKPFY0tWtbDZJd4yzHkRj/GvJNX1C6vLgy3c7yux6uaujfLLJJNIenmSsep9vzqrrIU3dskSYC4ZvwGayc7m0YIqLE7BVC81BJHPaCQuo5Rn54BI7CtS0Ia6VpT0BbHqcdfpWZrrS6hrEVinCqo3Y7etTcstQ3MURwWXMsIYADuaxPEZ+zpBCCGaaUEj0A7H8xWs8UBlS3UgSFCQ2On+cVl3No91qWmKRuY3IXHr0pdRnrPgnwbp2mvbajPcNDLtWQInIzXnvx31y31HxVa2FrMXhs4Pn9N7HP8sV61cTRwWoyCBGvODXzD4gvW1LxDfXR+bzJmxn0HApSir3GpO1jLJoJwuMUpzmren6c19MQSVRVLM3oBTApgGr1uJYYxMAVVWBDe4Patbw/ocd/dqJmygflAPvCtHxdbJZ6baxogQBzgD607iNm4zqmkmVlG8IsoGPUc1zXlkfvIWZHU8FTius09DDBbtjdG8WAPXjkVhWckEJvxIMrj92O+c0osLHS+EvilquiuttflryzHB3H5k+hr3vw3rNjrukR6lZSiWGTjOOQe4I7Gvkl0JSXZzGpwzenpXqXwN18xahfaOZMJMoljU9Ny8H9P5VFSCtzIqMnszvPiFZxXhhEkQIzxmuGPhyzPPkr+Vd34yvS9xDCRxmsMAYqqOsTKs7SOe/4RmzP/LIflTT4Xsz/wAsh+VdMEFOEda2MuZnmXijRbexgDxoBzV7QfD9td2KO0YJIq747TbYg47itbwjH/xK4+O1Fh3djiLXV9QwB5so981orqWpdRdyj8ay4tRgT5GTkVdW+tmHSuTmZ1csTQTWtWUcXr/nVqLxLq8X/L2T9axftFue+KrzTR9nIp8z7i5I9jro/GerIR+/BqR/H2rRjO5Wrz+S4wciQ/nSLf44LE01KXcThHsd/H8TL9Ww6irsXxKuupjH515qLqFjk083SAfIapykLkieqR/E2QjDRfrTL7xg+t2EsATaoGWP8q8qW5yeTXU6G8f9kTliA0j4BPtQpSE4RtdD7pHng+QcGRFbA/OrElsZ7l5Sg2KCSx9K0IPItJbgONwIVlB9cVBq12kOhSCLjeCmfWqTAyrBTOlxc44lkWJPYZqtZwiXWtSuMZKgon8q2tKjT7HpkIAUAGVye9Z8SLZXt67nCZLE9vWmBV0y2+06xdu2QYgqAdvx/AGuk0nSIZNTW8ZQRbvlc/3sdf51geHJvOjuLhv+W0xYH2//AFA/nXaaOpWxLn+NmP8AShbjJNblP9k3R7+V1H415FH4etWb5lwWPPcmvVteI/sicDvgVyNlbiDzLiVfYZHWhgjmG0Cz2BRCAS2Petm50q20/TjBFGq4QAkdyauW9sJCGzjaSwB+tGsoUt1DZ3MdxFIDL8N20cV6WAOR0H41H4yt/tc8dsBlo0MhH0q/4ehJneTsMVFcyLc+NzCSNrRMh/EGjqBYguB/ZNqqYDLEsgOPQgVyDfLM0zDJfcMe+a37SQrcizk4MUbRg+vcVmwxhrmVmGfIdiq+p9fwoAy71WtLAWaHLuweU+/YVd8EagdE8YadctJgecqt9CcGq8kUl3ceTH80j5Yk9h1rIllIuwycbWGKe6sB9LeOG8u4tpBjBPWsVZiVBqfV76HVvCWiagHzJJEu4e44P6iqMKu4AUZ4ooq0TKs7yLiympEuACaqlHUgMCKXy8AnNbJGNzmPHlx5lioHrWr4RmxpkY9qwfG4ItFz61reFP8AkHR/SkX0PRbbwFoX2eMyWcbMVGTipj4B0E/8uaD8K6SEYhT/AHRUoryEenoci/w80Fz/AMeoFQSfDLQJOsFdttJ6UEEdarXuLQ4CT4U6C3SNh+NV3+EWiN03j8a9GoxSvLuFl2PMm+DulfwyyD8TUZ+Dth/DcyfnXqNFPml3Cy7HlMnwhtUjZvtTgKCa44LDbWrQtua1SbYQDjOehNe1+LtUGk+HLqcHEjr5afU14rYoLuK6tXHEw4Pv2roo31bMaltkPF1PjaG3CMbDuHOAeOfpUmvs39hWcfctiq1qrrahJm/eBgh/CtDV4C+nWDH7rNg+2TW5kXo40gSRSq5WFUQY7nFU/GyRWejxxRIFlm+9jr/nNarLGdbtoxzGqhm9+K5/xTI+oa6EA+WNhj2oQFfT7M2tnGQSEXC49fX+X613tsqx2US9PkH6mucvbQQW8Vujq5JQZXofX+VdLjCKp7bR+lNAUNZw1gR2Lf1rn/MRVzMCVXgD0rb1d8WyLnksP6msG4lNxH5YUZXksKGMLMKfmwenA/E1W19cMvoBj8au2A2qCewFVNeBZEP5CkA7w9CGtCxH8fPvXN3bi28WtOMgAtjH0NdLob+TatvOOc1zGqxPJemVR3NAFOW5LTGXJ3g5BqOGeRUurl+svyj696syxBYDj7xHHtVCKGSdorbOAW60hk9m4stNu71+ZZV8qM+meprGsIBPPJNID5USkk+/atLWpV81LaL/AFUS7R9aEMOmaDKkq5urkjaD/Cv+NNAdP4f1rzNBgtHYk28zbQT0U8/zzXV6fqEjsPLA4ry/w3Oq3Miv904NeiaZdwRuDVR0Mp7nVx+Zfx4wFYVn3ttc28m0NkVMl8n34jge1T295HcsRL+tCbRmcD4t8w26hzkZqzoLTLZqEfHFO8aCJYfkIzmneHgv2UZ9Kq+pXQ95tzvgjOewqfFVbaKRYE+U9KnEUh7GvLSZ6FyeH71JKwMmB2qMxyheFOaijimyS6mtPs2Iv7xLuGcUuKRYmByQaftPoaizLuNxRil2t6GjYcdKLMLnnPxJufOkt7BsiNI2lJ9T0ArzveYrdo1Q4Trj+I+lbvizUH1jxXdQwksBHiMD/ZP/AOuoXEb2gzGBAqKSh43H3rsgrRSOeTu7mQjKYo8Y3s5LAdq6K/i8/SLOIHg5rmo5EwuzA+Y5rrYEM+jwlf4DvB9MGrJYphKarE6DP7nJH0FZNrALvUnlP97J9yK3S/kOlw2Duj2j2yf/AK9Z2mqES4lxkGQ4NCAXCnU4Ijg4bcf6Vuu3J56ZNcvYSNc6qrnu/H0rpm5/L+ZqhGRrcZlSFF4y+P0rHaN7ZWU9SOoroLwB2UkdCTWTcDLE1LYyOH5IsZqlet5hBParDPg1WmYMKQyAvshwDWPcvk1qS/crLnGTQBnzSELUUD4YsAS+OD6VO6g9aRIsI5ztX1oAo+WJJjIwyAf1qjfGS5nMjnOOK1HUcADiqMw25HvTAdoIxf4fgEV6Haxxqq4rzm0YxzBq6zStWUOqyn8apMzkrnXRy+WvA4qZbiMkHO3FVxLC8WUYGqUhJHBqrXMzH8VzK4+Vs81ueGog1gpI7Vy3iAYjHPeu58Ji2OlKWcBsUinse6joOKWmIW2LzzilJIB5rmujYUk9hS1CG4GW71IXUdSKV0A6jFMEik8NTtw9aV0PUKx/E+o/2V4fvLreFYIQnuTwK1iV3jJ5rzT4tat5Npa2UYYq7F3K+3Qfzpxs2I8zunnhu7e+UkK67Sw68nmtGe4kj0qWF0wWAAYfpXPXrtbiK9ikLRSfI6nnYw7H61Ncap5mnLCgfcD0PYexrdiEtnLBT6GvQNEQHTYdwypJrgNO+ezDDkk4/Wu80m4EOindkOg4980gY3ULgzSvHBGNkGSSfUCobQEaWikglgWqzKI7PRJ3LbnlUkn/AGjVe2Qw6cgb+FST+tADdCtD5pmI4QHH1rbfAB6VHpTKNNTGM55p8hBXIqmCM25HvWbOvpWlcAYPNZ0v0qRmfL+tUbliOnFaMq5FUJ488UAUWmOCDVWU5qw6UzZQBnyRtmmlTs24q7IoFV3Py/KOaAKMxEYIHWqEmWYkir8oySTxVRwBQBCowamDlTkHFRqMnikfPQUCOo0rUNiKsj5z0rooyHAPqK4KwjnlnRFBJzXpuj+G9SubdXWAlSOKuMrbmcovocd4mXEa4Hetjw6zCyAJxWj4g8C63dRqLe2LHPNWdK8HavbWwWa3YN9KOZXDldj283kKICXA4qCXVLdVP7wGuI1e31K2iEm9itZcEtxKfmYn8a47JmvMzvJdct0A+YVFJr8D4KsK4po5nL8mq8ENycjmk4oFK526eIIlJ+YU/wD4SSH++K8/FtdvKw2nFJJFLHwQc0KIcx6GmvRu2Q1edeNop9Y1yN7WQFkjHyg9Dk1qWkbpatI2QAMkmuRTW5ftU6GJG3OW3YOfzranGzuSncy59OmmO1hGp6OuQQ31FZl4sVlc+QTlSASP7vsa2r6/hiuI0WMbiAzI/KkHkYPrWVrCWvnQ3MBPzrh0bnbWozVtrImziKTW/wA43BVbkZrbs75F0aNSgLGTaW6ZFYdhHG9jGFUHK4FacdrJ/Z8MWwgF1yaQM1Lm2lmsFfH7oOCR/eINR3zPBphkkZcsnAHUc1evLny9MhWPrv4z+NY2uTj7Oq/7YH5ChAXdCuPMjeMn3FabBhWD4cbdehByCDXUSoF7VTAxbnOeKz5cnrWldkCTArOl61Iym5qnLVqQdaqyjigCjKuemahYYHWrTrVeQUAU5DVVmxVmYdeaqOcDigCncNk1SdjmrkwyKpPxQA6JjhjS7ju75PepbW3aRNwx1rSs9EubmRVSJm/lQBqeD4N+qRMy5zwc85r6X0uFItNhCqANueBivN/AHghoCl3dw7NvPua9UGAMAAAVLLQmBRgUtFIo5vxA0503hM8elcvpNtPc3ixKnWu61xf+Jf8AhWd4es2RvtJGOwqKNNSbuc1WTja3UprolyHmBTpWJ5slq7Bl5HtXpCzI7Oqn5h1riNajVbx+McVUoJK5MZa2KFndSXJbaoBqZrOUnLpk/Sqeh5a/Zc8Z6V3KQL8px2rp9hTik2znjWqTbUVschr6mx8NM7jyxKRHux0z1/SuY0zTrH7NcSwbZB5RKyE55rqPidcxJpVjaqf3jSl8D0Ax/WvJbXXJNLe4S3lzE+Q8ZGRn+lRZLY6oXtqWdcjjkhtpI8GZIRux3FYKv56ckcdjVq61okjyYFT5Nrdwayg6hvc+lJmiOm06RooIhn7orqraQ3dnvG1UQgnJ6+1cXay7hHj7u0VuLKywCOI/O7DgHtSA1JJnuJYYVGVViSeg6Gs3XmbyoyT1k/pWysJiWBXOGOSR+Fc94gfD26Y7saa3Eb/g+1PlzXT9ANq1vTuScKOPWsfwo/mac8fYHNbTsFBxzTkwRkzxd8k1nTJgmtO5kyT6e1ZUz/MRnj1qRlSQdarOvtVh5OTUUjYWgClJ1xVWXvxVkkEk1WlOc0AUZuaqOCOK0GjLdKp3IKtjGKAM6bpVKTjNXJmwDVWCGW/vI7S3QvLKwVVHcmgDsfDHhqXU7GCdVYq2eg969Y8N+DzZCOR42JHJyK2/A/hz+w9As7SaJS0afM2Op6muuHAxUlEESeVEqKuAB0p3zZ6cVKaSlYdyL5qQlh2qbikJxRYdzn9TvRc2wRTVnT7qKOyVc4KjpWQqGpEGDWMJuOxM6SkaltKiyO5PJNYWqwm4umdOhFXxUbDmm6rasJUEnc560sJ7W4aReMmt+O9nWP5qRhxUWo3EdppNxPIwVUjJzWqxMmkmrmf1WMW2nY8u8ZarNqusGWOZf3RKKvoK5DV7KWKRLpUKpMMyp/dPqPY10tvPax3DSrF5iA7mbqQPXmo9Q1TSmN1cTXG8FPkUoRnitWNaaHD3d8jSyeUDtzw1MjjZIhLJnfLwgPp61WSdGi34ByxrqPBmk3PijxZbCSPMFrtaVh91VHQfjUydlcpK5bWylsJPs03EiIu4emQDW/paQGMSMGM27g9hUXjWNovF94q4AKowH/AR/hUmg2cl57Y75pRd1cGrG3cndc/KMqoxmsDU7Sa6uodq8BT+HNdb9kiiTDkk4qvOY48BV5xTQhvh2BraGRG64q/cvjPTPtVC3uSpI9RU7zeYM8U2BQuZBzWXNLg1eunCyNk1j3TqTkGkMilkxk5qo10HcjNOlLMuBWXKRDk7uc9KANHdg1Gygn3qgmoI5Vc/N0q8rAY3d+9AEqWxxnOMCsS/lBmYgY7VtXNz9nSNywORgj6Vy2o3YaVyvemgKN1MSSAa9G+Dfh0XGpTa7cLlLc7Ic92xyfwrzG0trjVNRgsrdS808gRQPU19VeF/DQ0HQLWwhAxEvznH3mPU1lUlZWLirs349ShjX99NGn+82Kjk8R6TF9/UbYf9tBXj/wAYWuYGt1RmRM87TivJfMlPWRj9TWUZNo39mmfWTeMNAQ4OqW/4PTD4x0Dr/acH/fVfKIeT++3507zJf+ejfnTux+zR9UnxpoA6ajD+dQy+NNEYfLqEefY18uebN/z0b86Xzp/+ejfnSux+zR9RUq9abTl61mZEoqM9eBTwaTIBoGRtxXH+O78Lb2unl9qzNuf6CuzfkV5X40mN54hZRkiABRg9DWlFXkRN6Gc39jpbtGoKyEFdzk9fWvONSjlS5ltml8zBwGB4NdvrNoraQJoSTPuwwx1qr4f8IvfTpc3qsI85Ge9dZijL07wrfXAijhti0rELtPr6/SvdfCXh2z8K6OlsrK1xJ888ndm/wrIVlswgiUDAwDU/2ybh3Y4FZzjzFJ2M7xV4eGpa9JfRvkPEq4+lTaTpg0uDazgnrU814SMg81VNywHJNNKysJ6lyZwec9apSFcknmhpwUzms+4uQAcMD+NMCxLKiLkDpUI1OONcv8uKp/aVcZzniqTb5ZSMZTI7UxEd7qaySvjlSeKowu88wLE7akkEKu2cZyaiaRUBKelIZMZUyRn3rnNYnCE4bg0t3eNGrHOKx4Fl1a5wTiNTyfWgC9pNpLeXcbqCQDx711OoXlvbOkUcQdduCG6g1b0fS4rLTJbnjITan1rlb+5ZpST1BwKaQiPUrqWUk4Cheig8AVz88zEc9SatXVy+GA/i6mrHhXQ5PE3iW105M+WzZlYfwoOpobsNK56D8H/CLTXLeIbpdqJlLYEdT3b+le8xO0VuOc1g21jHp1pDaWcOyGJQqgelb8UYNqpbriuKUnJtnQkkrHjnxgu2kaCIr1Oa8nVK9S+LsIF5AwbPtXmirVU/hNkiPZ7UeXVkJmpEjBdeO9UMp+WfSk2GvQo/ByXumpNFw5Ga5q/0G7sHIeIlR3AqVJMtxaPfjIKVHBrx6P4pM5/1TAV0Nj44E0QcqRmp5ZI47o9GDCmkjPWuKXxpFnnNWF8UCRdwRsfSlZjujqbm4SC3klcgIilifQCvMPDWiah41uL7VgFt9PWZgkkmSZceg9K6nTtci1m/XTXUFZsowboRjn9K6S9vrXQtJFlptqmyJNqRJ8qqPrVqfs1djjT52cZcaKkA8tijqvHNNEi24AUAYHaremTtr8Ext42E0RxJGRytctfPef2i0AXYithmY10KSZjKLRsy3TuQFGSetWFO9AG9Oay/t9nZp87Et70xfEenyOI/MwSccCp577Byk9zOY5GB4HYVSlvwuACK1Vkgjk3R20s+ejyEAflWJqgDOWkRct1LriuqNCTOWWJhHzHtqcSW7tJIAAOBnrXPXWsx+WWDdPSqGpaeszM0blT7NxUVlbWlnEfPjaWQsMljnbVfV5Lcarxex0vh+WK4tmmuGKKW4yPatrfZiMmOUdAfris+/nsjaQpCVUbBnHqaal3bSlxCFXYgGD6+tCpXjcupLkqcpklhvZmOOTVG8vEhQ7cse2BmtOd1E+eGAAzwMGq017cx3cUVjbbZGYZlMfygU/q0rGf1iNzj9l/rd4tpYWss0zttVUWvX/AvwdkstPnm8QyKLiYDy4Y2z5X1PTNd34M0nRLbT/O02JPthGZwcFlY9cf7JNdDcXAhjJbiuCpOUHZnfShGautTx3xVpF/oNs0Uce+3QZDIeCPp2rym6ujI5Ne0+LtfhuYJoCQ2QRj1rwu9lRtQaK0j4zzzxVUqjktUKrSUNmRyOxGAMk1738J/Bx0PQ/7Tuk23t4AcEconYfj1rhfAHgG61vxCkt9bulhbYlcsuBIeyivoZbYoqgABQMADtUVp/ZRNOPUdEqYG7FTsEaI7TwPSoHidxhTiljSSGPBOawNTw74wXQh1GBTk9a80TUV9K9N+K0XnaxEJACMHFefCwhP8Nb0o+4TOo07EQ1JKkj1ONWB9DUgsIf7tL/Z0P92tORE+3Z6BofjrT4LFI5WAIGMVoz+K9FvExIFIPevJbmzSMrj1r1Hw1baA2lR+fGhfHOaz9gjT63JdDyiGEAdK3NPv4kxHIcfjUEVl8maxryPbeha2nG+hywkdxBLazTKFOTn1r0zStOgfSt3lgsVryLw1Av2kEjPIr3zwzbr/AGekjDgdK5ai5TeHvGLofhFbG5fUrofvicxp2Qev1rO8V+JtN0tCk04MvaNOWrb8Z661jZ/ZbdyLiX5ECffYnsP8a5220Cw0bQHivbOO71i/XczTrvCenPauZpSd5M7I+6rRKHgrxStncT6ldwfZ7S6Vo4ST8zsvP5VRsLy31fXZZp+JJZC2wHoKr+J7f7F4X0Tywo2bwQvTOeayfCZ366kjdT1rohG8W0YVppPlZ13i3TLaC2VkXnFcJ4Ssl1LxrFDIC0MQMjD6V6H4zkBs1A9KofCDRTd6tqt7LADAEEYkb16kVvh99Tlrv3dDq5NKgaEvHgZ6c1zWpWNxAjCOIyDrjqPyr0e6sIlHloYsL2x0rIm05JdwRTux1R8/oa9SNXueTKmeOahZOWZjayRMe6ZFYZtbmOQnEjxt8pya9T1WKe3coCzADpItcjdufOEbwqhBySvQ1tZSQRm4s5i6mnis1wSGGUPtU1pJPb5WTJeWAkY78ZrRvYrdrG4ldgGMwKEcjGDn6VDYwFEa8u3KgxmKBW4wh6n/AArB32R1K27M6AzzMMSuoPOSOldHYadPPtI1KTI6AcVT0q5t7i8+zWtrNdsP+eajj8a7iHTmijAZDalh92Rc/rW90jmlc59Z9a0a4FzZXMokQ8ODmt9fiulzaG31uxlilxgz244P1FVrm2it43IuEfH91+fyrmNVlV7dv3U6jB+YoNtc9aEKukkbUas6b90NWv8AStRWVrLVFDMpA84FStcRJbxWUrBJ0uACMsgwDUczKuSGJPekgOFUnu+axhSUNjqlVc9WfXfhSf7b4a0+7EPlLLArBD1AxWztLH0FY+iTFtHsWhAERgQqB0AwK04pHd8HpXmnWEgZVIUnNRySrHb5bk4q6WjHcVFNEsicLkUmhp6nhHxHkE2qo3ccVxQFd58TYRFq0eFwOa4UCuil8CMavxDlUYp2KBS1qZGff8FfrXQ6WT9mX6Vz1/ncv1roNMOLZfpSZXQznaaEbXQrVWz09dQ1UBzgV1XiuKOK4IRQB7Vm+GdPmv8AUlihUl5GwKdXQmi7o77wl4Jhmn84k+RGRuPr7V2d14k0rTUmtopAZIF+4oz9BVsW8Wh+G/s0R4jjJd+7Hua4e18PM+jnUnkEdxJOJyH6FR0U151WacrHpUoWjc0NMsHmu5PEetD5lXMMR/gHYD3NRzQ32sXvkQjF1c/M79oU6Z/oKfqniO2uniScG3jjXeY27t2yenFWE8RadoElnbwyR3N/qDrlkOQoPT8BRCCbvLZEzm0rR3ZBq/haC+/srSXJ2Rh1z3JAzS2Pw8tdLnE8bsSPU1dg1YX97ZzuFSWO8MRA91NdTcg+Qea6qEVKDOXESamkzzDxvHshAHat34fW0lh4TREADTu0rsegz0/QVheNFaQqg5LHArq9Ji+zeH7FTIBGIVyB16VrhY3bZhipWSRcaIB2Z54ST0yap3oYTAqUCBfmKuBWHrWrra5EDDao4JGcmvNdY1DUNTuX33cyRD+FGxXoeydjgU03Y7fW9RnsZGMcm9TnCsQc15Zqmu6rG7SXVqsccjEKVGKhuYLhBkX1x/38rF1FrmQL5t48qr0Dt0oblFGkIRbN/T/FcNtFOQo8xlBG5c8j/wDWayJ9XvNXnESrJLI55C8k1iHKLk856V3Pgu0VLX7VgBpG5b0ArKHNKdjedoQudl4E0C6jjE8yrBBgBIU+9n+8T3Ndzc20TrtkC3BHQZ5FU9Iu4NTSOJD5LJ8qkdDXRNY/YFNxLIuSM5q5vl0OZLm1ZxWrJFaoI/srK7dO5FcR4nuZDapbSXC4JyUxyK9G1HxFpKyO215pR/Eo6V51rcsmpSO1lpxAJ5mlX+ppKbZXKlqcLODHlSFb3p1rEZp4YVXLM2AB70uoQyQSbJghf/YbNdD4Bso7rxjp3mf6qFhM+f8AZ5/nilN8qubRV9D6h06D7NpVrAE2+XEqY+gqwu5FJxVWz1eK74RavBlYgHoTXkdbnoX0sAgVlDMTzTsdFU1JJtCYxTAI8ZXrVCR4r8VYWTV4SWyCDxXn4r0H4psr6zEA2SAeK4IIfSt6Xw6GNT4hoo71JsNKV9q1IM28++lbVg2IQPasXUAQyEDvW1pykwAkdqGDehZ8QXiXk2UOc16N8OvDo0zTV1C5T/SJhlFI5C1wuiaPaqwubuQS5w0aHgfjXrml38c+nrOWRcHYq5HUVx4msm7R1OvDUHFXkXtTQz2xhH8fBrN1QLBZJAQPLVdz/QdqzdZ8aQadrOn6WsW+a6bb5m7Kp9ap+IP7QgL5USKfQ8YrjejvY61qrIw/EOqRWulSfIjSSDdyM81xnh1bm51oalKS0doDIzt0HHAovLq81S8EU0Mq28bYOxMnFaur3NnpHhmOyssl523yEjB/Gt0radWZvX0Rf0LVx/wl9hHNJiN7rIXPVsY/rXs12+IDXzTYXji/tLpQWkin3nHuf/rV7Da+K5L/AAhjYA+tdsZKEbHBUi5SuVdWhNxqSgDOxHf8ga1NLAu/D1i+75BCM57npSwxo8t9cNj93avyfUis3wJexX3ht7TzFDQSMCCedp5H8zW2F0g35nNitZWMPX03ExIRgZyeg/CuIvCIvlHQdTXo+sWiyFwgxGO4HJriL2wiiZpLhgkf92vRUtDhitTk7rdKvGQPWsO4MG4rku2cZ7Vv6lqdqAY7eAso/KuZmuDIWOwJz0ArCbOylEgmwW46DpXoOhRMNCsFjGBIpLEfWuW8M+HbrxNrtrptqpLSvgnsB3Ne1a34et9FvYtJtYwqW8CYx3Pc/jUUmvaWKr/ALoMCExRhSCehru0tluLcJOgkjIxh2wBWH4ftFNuVIG8dDWs8U0bYlZvLHHBqq1m7HNSutQddPgs3WK0jjxnBRa8q8aX5YunmsEXgKor1K8nt4rfahySOleS+Lr5CJFWIZJIzis6e5s0eay/Pc/Lnk969k+CvhVb+51DVrlD5MYEER9T1P9K8mtLSa91WCCBCZpZAiKO5J4r6z8H+Hm8NeG7XTC6GRF3SMo4LHk1OIlZWN6SuzTt9Ktrf/VrirQt0HQU7DD0NIfMz/DiuLQ6LsUxqRg01beMZIpf3n+zQRIRwVzRp2AxtR8J6Vqc/nXMIZ/Uiqg8A6IP+Xdfyrodsx6sBSbJx0YGmmJpGD/wgehf8+q/lSf8ACB6Fn/j1X8q3984H3FJoElx/zzX86OYOVHOS/Dvw/N961X8qcngDRIxtWEAewromebbxGM0wSzAcxCjmDlR8/wBhZXF1ZC8RXWzUkAtgMccYFbUerx6Pp0kUypJeySfuIV+baMAcj1rO0/TZri6TT495Vn3ADlVPqfavSPDXgux0X96w+1XjnL3Eoyc+3oK5IzT1SO2UX1Zyun+DrzVtPFxe6fFDPuLx3LMVZVznIT1+tbXiC8gj08wN80u0Ln+tdpfusNq/bivLtTU3d6c/dz0qKu5VPa5kRXQiga2hj3FjlmxXIeI2Ml6o646gdq7+eFIoDEihcjk1xOorFC1zxkiIjJ9SwqqL964qnwmf4f2DV4lIyhZcj8a9oSxtYACigcV4noD7dZgPbeP517iVJVW7YroqNpnLY4Px1q1zZzx2dvO8aSqTIFONwrio7m4gLNbzPGxHJRsVr+OrlZvE7op/1Uaqfr1/rWB5nyn6V6WG0ppHn19Ztl5fFOq2YAN003+y/IqF/EVtqbEagjLjoqH5TWHduegP1qi/yxnHU8V0swikTapq5mlMVrGkUI+UbR1rNCF5FUcmhVzJ9K3vC2iT694hs9Nt1y9xKFJH8K9z+Arnk+51xSSsj3H4H+EF07Sm164QefcjZCCPup3P41f8X4XxyoPR7dc/hXoWn6fBpun29lb5WKFAij2Feb+MRu8agZ4EK5NY0G3UbCurUzX0qIRxk5rRmmUrsXk9TWXayEpsjHJ61qw2mFYnO41pUetzngjIuLUuGfOGI/KvIvF0tv8AaXihPmFT8z9s+1eleNNTOn2P2aJ8SzfeIPQV5lb6U2pSPJISIY+Xb19qdPuVLQs/CLSv7R+IdrK4zHaI05+oHH6mvpqvI/gvo0aLqmsImxZJPIiHsOtet1hXneZ1UlaItGaSgZ71jc0FopKKYDs0lJQc9qLgFHSkGe9LSGBOaKTmjmgDitL0y3sACgDTykb5D1PsPauoiOyPJrEhjSW2WTzAsiHkGi51dSBHH0A6+9cEfd1O2S5tELrlyTBtU1x6QEO0hGcd62LiRpm5bjvWfeSKkZWPp61m3d3NYrlRz2qXGGOOK4PWZNxkYdyF/r/hXaaojyZC/ia4TVGCrszk72JP5CuigtTGq9CvoxxrFv6Bgf1Fe4rqUJgAzjivD/Dq+dr9uvXLqP1r3W8gs7OwluJVAjiQs30ArpcU3qcr2PDdfulu/Et7MhyplOD9OKqHAU1C8qTXs8qcK8hI+mamIyK9Gnokjz6mrKUyZ5rNuWOQo7VqyITnFZdwAMgck9TW0tiILUrxjahI6mvf/gH4aSLT7rxBOn72QmGAkfdX+Ij69K8HhjLeXGoJZjjivqnwbG2ieFdOsQMGOIbh7nk1x1pcqsddON2dxXl/iBhN4wvcDJRVUH8BXcnVWA6V5xYytqPiC9lLZZ3bP51OF3b8iMVpFHTaLAwySM1sXtzHp9i0srDd2HeqFlcJaDYzAt6CrJ06O/bzZi745APSqm9TKK0PPJ9JvPEWpPPMGCFuB6Cqni77P4b0kWdvhZXX8frXZa7r9poVo6WyAz4wAPWvGdXmvda1uBbtm8y4kVFB9zirhcTR9AfDixFh4C0pCMPLH5z+5Y5/liuqrNsZre0sbe1j4SGNY1+gGKsfbYvU1xykmzuUbIs0VXF5ET1xSm7iH8WaV0OxOaSoRdRH+LFOFzF2cUrhYkophni/vigSxno4/Oi6AlpKZ5q/3h+dOEiH+IfnVXQWFopDIg/iH50wzR5A3ClcD//Z;fontFamily=Times New Roman;" parent="1" vertex="1">
          <mxGeometry x="-348" y="-2050" width="256" height="256" as="geometry" />
        </mxCell>
        <mxCell id="Udkh_0XvXgFXBY_L_qVN-162" value="" style="shape=image;verticalLabelPosition=bottom;labelBackgroundColor=default;verticalAlign=top;aspect=fixed;imageAspect=0;image=data:image/jpeg,/9j/4AAQSkZJRgABAQAAAQABAAD/2wBDAAgGBgcGBQgHBwcJCQgKDBQNDAsLDBkSEw8UHRofHh0aHBwgJC4nICIsIxwcKDcpLDAxNDQ0Hyc5PTgyPC4zNDL/2wBDAQkJCQwLDBgNDRgyIRwhMjIyMjIyMjIyMjIyMjIyMjIyMjIyMjIyMjIyMjIyMjIyMjIyMjIyMjIyMjIyMjIyMjL/wAARCAEAAQADASIAAhEBAxEB/8QAHwAAAQUBAQEBAQEAAAAAAAAAAAECAwQFBgcICQoL/8QAtRAAAgEDAwIEAwUFBAQAAAF9AQIDAAQRBRIhMUEGE1FhByJxFDKBkaEII0KxwRVS0fAkM2JyggkKFhcYGRolJicoKSo0NTY3ODk6Q0RFRkdISUpTVFVWV1hZWmNkZWZnaGlqc3R1dnd4eXqDhIWGh4iJipKTlJWWl5iZmqKjpKWmp6ipqrKztLW2t7i5usLDxMXGx8jJytLT1NXW19jZ2uHi4+Tl5ufo6erx8vP09fb3+Pn6/8QAHwEAAwEBAQEBAQEBAQAAAAAAAAECAwQFBgcICQoL/8QAtREAAgECBAQDBAcFBAQAAQJ3AAECAxEEBSExBhJBUQdhcRMiMoEIFEKRobHBCSMzUvAVYnLRChYkNOEl8RcYGRomJygpKjU2Nzg5OkNERUZHSElKU1RVVldYWVpjZGVmZ2hpanN0dXZ3eHl6goOEhYaHiImKkpOUlZaXmJmaoqOkpaanqKmqsrO0tba3uLm6wsPExcbHyMnK0tPU1dbX2Nna4uPk5ebn6Onq8vP09fb3+Pn6/9oADAMBAAIRAxEAPwD5/ooooAKKKKACiiigAooooAKKKKACiiigAooooAKKKKACiiigAooooAKKKKACiiigAooooAKKKKACiiigAooooAKKKKACiiigAooooAKKKKACiiigAooooAKKKKACiiigAooooAKKKKACiiigAooooAKKKKACiiigAooooAKKKKACiiigAooooAKKKKACiiigAooooAKKKKACiiigD0D4T/DtPiBrl1HezTwaZZRB55ICocu2QiDdnGcMc7T9zHGQa9z034DeA7G3aK4sbvUHLlhLdXbqwGB8o8vYMcZ6Z5PPTHmn7O3id7HxRd+HJ58WuoRGWCNtx/foMnbjhcpuJJHOxRngA/S9AHn/APwpL4ef9C9/5O3H/wAco/4Ul8PP+he/8nbj/wCOV6BRQB5//wAKS+Hn/Qvf+Ttx/wDHKP8AhSXw8/6F7/yduP8A45XoFFAHlepfs++CL64WW3GpaegQKYrW5DKTk/MfMVznnHXHA465z5/2b/CrW8q2+q6zHOUIjeSSJ1VscEqEBIz2yM+or2SigDxf/hm7w3/Z2z+2dV+3eVjzsx+X5mPvbNuduedu7OON3es//hmiz/s7Z/wk8/27zc+d9jHl+Xj7uzfndnnduxjjb3r3iigD4Y8VeHrjwp4o1HQ7pt8lpKUD4A8xCMo+ATjcpU4zxnB5rHr6X+Nnwv8A7ein8W6bPBBdWdo73sUi7RPHGrNuBUZMgA2/NwRt5Xbz80UAFFFFABRRRQAUUUUAFFFFABRRRQAUUUUAFFFFABRRRQAUUUUAFFFesfDD4NS+NLMaxrFxPZaQ3/HuYNhe5wXVsEk7NrKPvKc549aAI/gLod9f+PBrFtbRywaWmZXe58oIZQU6bGLnb5hC/KMqMsOh+q6w/C/hHRfB2lpYaPZRwgIqyzlQZZyMndI+Mscs3sM4AA4rcoAKKKKACiiigAooooAKKKKACvhTxKrL4q1dXsI9PcXswayjZWW3O8/uwV4IXpkcccV9118OeMrK+0/xrrdrqcsk14l7KZZnh8ozEsT5mzoAwIYAcYYY4oAw6KKKACiiigAooooAKKKKACiiigAooooAKKKKACiiigAooooA6j4deHrfxV8QNH0e8bFrNKXmGD86IrSMnBBG4KVyDxnPavtOCCG1t4re3ijhgiQJHHGoVUUDAAA4AA4xXz5+zXo6PqOua2z/ALyKJLSNFlU8Od7Fk+8PuJg8A/MOSDj6HoAKKKKACiiigAooooAKKKKACiiigArg/iB8KtF8d2/mkR6fqwcMNQihDM4wAVkGRvG0ADJyuBg4yD3lFAHxx4n+EnjHwrFNc3WmfarGHlruybzUA27ixHDqoAOWZQBjryM8PX3/AF5X8QfglpHix5tS0ho9L1iR2llfaTFcsV/jXPyEsASyjuxIYngA+VKKuarpV9oeqXGmanbSW15bvslifqp/kQRggjgggjINU6ACiiigAooooAKKKKACiiigAooooAKKKKACiitTw1Zzaj4q0iyt7uSznuL2GKO5jzuhZnADjBByCc9R06igD6r+DOkWei/Dq1tre6sbm6eV5b17K6FwgmbHyllJAYJ5YIHHGRnOT6BXP+DPDT+E/DkemTalPqVx5ss013MWzK7uWJwzNt684PJy3VjXQUAFFFFABRRRQAUUUUAFFFFABRRRQAUUUUAFFFFAHD/Er4c2fj3Q2jj8i21eLDW140QJO3diN2xu8s7jwOhwcHGD8gX9jcaZqNzYXkfl3VrK8MybgdrqSGGRwcEHpX3vXyR8dYbeP4r6k8F150ksUDzp5ZXyX8tQEyfvfKFbI/v46g0Aeb0UUUAFFFFABRRRQAUUUUAFFFFABRRXqHwh+Fv/AAnF4+q6m2zQrSXy5ER8PcyABvLGOVXBBLdecLzkqAeX11Hw+Ph9fGVgfEc99BaiWMwzWkyxeXL5ibWkckFIwNxLKQw4IIr7D0Dw5pHhbS103RbGO0tA5fYpLFmPUszElj0GSTwAOgFV9S8MWWo36ztFaCCdwdTtpLKKRdQVUIjEhZd2UbaynPGCMcggA3KKKKACiiigAooooAKKKKACiiigAooooAKKKKACiiigAr4w+Kmp/wBr/FDxDc+T5Wy7Ntt3bs+SBFuzgddmcds45619F/Fn4jQ+B/D729lcxjxBdp/okewP5a5wZWGcAAZC5zluxAbHyJQAUUUUAFFFFABRRRQAUUUUAFFFFABWhpmu6xonm/2Tqt9YedjzPslw8W/GcZ2kZxk9fU1n0UAe8eBf2g7iKUWXjNfPhOAmoW0IDqS3JkQYBUA9UGRt6MTke96XqtjrVgt/ptzHdWju6JNHyrFHKNg9xuU8jg9Rkc18GV6p8AtbXS/iCbWfUo7S3v7cw+VKG23EuR5ajBAV/vYLZ6lQMuKAPquiiigAooooAKKKKACiiigAooooAKKKKACiiqepatpujW63GqahaWMDOEWS6mWJS2CcAsQM4BOPY0AXK8/8ZfGHwt4Q822+0/2lqaZX7HaMG2MNwxI/3Uwy4I5YZB2muL+MnxYsRo0ej+E/EEh1BrhWubjT3+VYgudolHcsU+4T91gSOh+dKALmq6rfa5qlxqep3MlzeXD75ZX6sf5AAYAA4AAAwBVOiigAooooAKKKKACiiigAooooAKKKKACiiigAq5pM19bazYz6WJDqEdxG9qI497GUMCmFwdx3Y4wc1Tr3D4B+A9L1v7T4l1OCeaSwu0SzG/ZGsq7ZN/ytuZh8vBAXB/iJ+UA9/wBE1i317R4NStUnjjl3AxXERjkidWKujqejKysp9xwSOa0KKKACiiigAooooAKKKKACiiigAoorn/F3jLR/BWjtqOrTenl20bJ503zKp2KzDdjcCcdBQBuTzw2tvLcXEscMESF5JJGCqigZJJPAAHOa+OPih4uvvFnjW/ae9jnsLK4lt7BYGzEIgxAZcEglgAS3fjsABX8XfEXxH4wvbtrzUrtNPmc7NPWXESR7yyKyqFDlePmIycD0FcnQAUUUUAFFFFABRRRQAUUUUAFFFFABRRRQAUVJBBNdXEVvbxSTTyuEjjjUszsTgAAckk8Yr3/4YfAyH7Pa674vhkM5cSwaW4AULg488EZJJwdnGMYbOSoAPKNK+GXjTWrK3vLDw/dvb3L7YpH2xhvk3hvnI+Qr0f7pOADkgV2Ggfs9eK9SdW1ia00eDeVYM4nlxtyGVUO0gnjlweCcdM/UdFAHjdh+zl4Zi0vyNQ1PUri8LhmuYCsQAG75VQhgAQVzkk5UYIBIPqGgeHNI8LaWum6LYx2loHL7FJYsx6lmYksegySeAB0ArUooAKKKKACiiigAooooAKKK+dPiD8fZr5JtL8HiS3t3Ro5dRlUrKfmxmEZ+QFR95hu+bgKVyQD6Lor4Um8S69cuHn1vUpXFwt0Ge6diJlUKsnJ++FAAbqAAKy6APdPiZ8b9Tj8Six8F6rHHYWqFJrhLeOQTy552lwwKAAAEAZO48jaa8f1/xHq/inVG1LWr6S7uygTewChVHQKqgBR1OABySepNZdFABRRRQAUUUUAFFFFABRRRQAUUUUAFFFFABXSeAfDUPi/xvpmhXFxJbwXLuZJIwC21EZyBngEhcZ5xnODjFc3W54P8SzeD/Flhr0FvHcPaOxMLkgOrKUYZHQ7WODzg44PSgD7T0bQ9L8PaclhpFhBZWq4OyFMbiABuY9WbAGWOSccmtCuX0P4ieE/EFnZTWmu2Mc15tEdpPcJHOHJxsMZOd2eOM57EggmTVfiB4Q0VLhr/AMR6aj2z7JYUnWSVW3bSPLTL5B6jHHOehoA6SivJ779obwVaXkkEMWq3sa4xPBbqEfIB4DurcdOQOnpzVf8A4aO8H/8AQN1z/vxD/wDHaAPYKK8n8T/Hvwrp+hzS+H7r+1NTPyQQtBLGik/xuWVflHoDk8DjJYeWR/tBeN01Sa7Y6bJA6bVsmtj5UZ4+ZSGD54PViPmPHTAB9V0V8aa38WPG+uXHmzeILu1RXdo4rBzbqgY/d+TBYDAA3FiPXk5PDnxR8VaF4gs9SuNY1LU4IHJks7u+laOVSCCCCSM4OQcHBAODjFAH2XRXz/4x/aGgu9D8jwjFfWWpNKu6e8t4iEjGSdo3sNxO0cgjBbvg16J4e+LHhTUvCsGp3/iDTba7S3VryBnMbLKEDOqRt87gEkDbuzjAJNAHeVXv7630zTrm/vJPLtbWJ5pn2k7UUEscDk4APSvC9f8A2k4QjR+HNDkZygIn1FgoVt3I8tCdw29DvHJ6cc+aePfilrvj7FteLBa6ZHL5sNnCgOGG4KzOfmZtrkHGFOM7RQB0HxI+Ndx400eXQ9O037BpskuZXlcSSTorAoMYxHyASAW5AGcZ3eT0UUAFFFFABRRRQAUUUUAFFFFABRRRQAUUUUAFFFFABRRRQAUUUUAFFFFABRRRQAUUUUAFFFFABRRRQAUUUUAFFFFABRRRQAUUUUAFFFFABRRRQAUUUUAFFFFABRRRQAUUUUAFFFFABRRRQAUUUUAFFFFABRRRQAUUUUAFFFFABRRRQAUUUUAFFFFABRRRQAUUUUAFFFFABRRRQAUUUUAFFFFABRRRQAUUUUAFFFFABRRRQAUUUUAFFFFABRRRQAUUUUAFFFFABRRRQAUUUUAFFFFABRRRQAUUUUAFFFFABRRRQAUUUUAFFFFABRRRQAUUUUAFFFFABRRRQAUUUUAFFFFABRRRQAUUUUAFFFFABRRRQAUUUUAFFFFABRRRQAUUUUAFFFFABRRRQAUUUUAFFFFABRRRQAUUUUAFFFFABRRRQAUUUUAFFFFABRRRQAUUUUAFFFFABRRRQB//2Q==;fontFamily=Times New Roman;" parent="1" vertex="1">
          <mxGeometry x="-348" y="-2330" width="256" height="256" as="geometry" />
        </mxCell>
        <mxCell id="Udkh_0XvXgFXBY_L_qVN-163" value="" style="endArrow=classic;html=1;rounded=0;edgeStyle=orthogonalEdgeStyle;strokeWidth=3;fontFamily=Times New Roman;entryX=1;entryY=0.5;entryDx=0;entryDy=0;exitX=1;exitY=0.5;exitDx=0;exitDy=0;" parent="1" source="Udkh_0XvXgFXBY_L_qVN-161" target="Udkh_0XvXgFXBY_L_qVN-125" edge="1">
          <mxGeometry width="50" height="50" relative="1" as="geometry">
            <mxPoint x="-50" y="-1950" as="sourcePoint" />
            <mxPoint x="79.99999999999994" y="-1750" as="targetPoint" />
            <Array as="points">
              <mxPoint x="40" y="-1922" />
              <mxPoint x="40" y="-1510" />
            </Array>
          </mxGeometry>
        </mxCell>
        <mxCell id="Udkh_0XvXgFXBY_L_qVN-164" value="" style="endArrow=classic;html=1;rounded=0;edgeStyle=orthogonalEdgeStyle;strokeWidth=3;fontFamily=Times New Roman;entryX=1;entryY=0.5;entryDx=0;entryDy=0;exitX=1;exitY=0.5;exitDx=0;exitDy=0;" parent="1" source="Udkh_0XvXgFXBY_L_qVN-161" target="Udkh_0XvXgFXBY_L_qVN-124" edge="1">
          <mxGeometry width="50" height="50" relative="1" as="geometry">
            <mxPoint x="-72" y="-1920" as="sourcePoint" />
            <mxPoint x="10" y="-1508" as="targetPoint" />
            <Array as="points">
              <mxPoint x="-92" y="-1920" />
              <mxPoint x="40" y="-1920" />
              <mxPoint x="40" y="-1310" />
            </Array>
          </mxGeometry>
        </mxCell>
        <mxCell id="Udkh_0XvXgFXBY_L_qVN-179" value="&lt;span style=&quot;font-size: 28px;&quot;&gt;Conv1D&lt;/span&gt;" style="rounded=1;whiteSpace=wrap;html=1;container=0;strokeWidth=3;fontFamily=Times New Roman;rotation=0;fillColor=#f5f5f5;fontColor=#333333;strokeColor=#666666;" parent="1" vertex="1">
          <mxGeometry x="701" y="-1150" width="200" height="100" as="geometry" />
        </mxCell>
        <mxCell id="Udkh_0XvXgFXBY_L_qVN-183" value="&lt;span style=&quot;font-size: 28px;&quot;&gt;Conv2D&lt;br&gt;BN&lt;/span&gt;" style="rounded=1;whiteSpace=wrap;html=1;container=0;strokeWidth=3;fillColor=#d5e8d4;strokeColor=#82b366;fontFamily=Times New Roman;rotation=0;" parent="1" vertex="1">
          <mxGeometry x="200" y="-1150" width="200" height="100" as="geometry" />
        </mxCell>
        <mxCell id="Udkh_0XvXgFXBY_L_qVN-250" value="" style="edgeStyle=orthogonalEdgeStyle;rounded=0;orthogonalLoop=1;jettySize=auto;html=1;entryX=0.5;entryY=0;entryDx=0;entryDy=0;strokeWidth=3;" parent="1" source="Udkh_0XvXgFXBY_L_qVN-184" target="Udkh_0XvXgFXBY_L_qVN-233" edge="1">
          <mxGeometry relative="1" as="geometry" />
        </mxCell>
        <mxCell id="Udkh_0XvXgFXBY_L_qVN-184" value="&lt;span style=&quot;font-size: 28px;&quot;&gt;Sigmoid&lt;/span&gt;" style="rounded=1;whiteSpace=wrap;html=1;container=0;strokeWidth=3;fillColor=#ffe6cc;strokeColor=#d79b00;fontFamily=Times New Roman;rotation=0;" parent="1" vertex="1">
          <mxGeometry x="861" y="-1740" width="200" height="100" as="geometry" />
        </mxCell>
        <mxCell id="Udkh_0XvXgFXBY_L_qVN-223" value="" style="edgeStyle=orthogonalEdgeStyle;rounded=0;orthogonalLoop=1;jettySize=auto;html=1;fontFamily=Times New Roman;strokeWidth=3;" parent="1" source="Udkh_0XvXgFXBY_L_qVN-185" target="Udkh_0XvXgFXBY_L_qVN-188" edge="1">
          <mxGeometry relative="1" as="geometry" />
        </mxCell>
        <mxCell id="Udkh_0XvXgFXBY_L_qVN-185" value="&lt;font style=&quot;font-size: 28px;&quot;&gt;Global&lt;br&gt;Avgpooling&lt;/font&gt;" style="rounded=1;whiteSpace=wrap;html=1;container=0;strokeWidth=3;fillColor=#fff2cc;strokeColor=#d6b656;fontFamily=Times New Roman;rotation=0;" parent="1" vertex="1">
          <mxGeometry x="237" y="-1740" width="200" height="100" as="geometry" />
        </mxCell>
        <mxCell id="Udkh_0XvXgFXBY_L_qVN-186" value="&lt;span style=&quot;font-size: 28px;&quot;&gt;3 x 3 AvgPool&lt;/span&gt;" style="rounded=1;whiteSpace=wrap;html=1;container=0;strokeWidth=3;fillColor=#dae8fc;strokeColor=#6c8ebf;fontFamily=Times New Roman;rotation=0;" parent="1" vertex="1">
          <mxGeometry x="481" y="-1540" width="200" height="100" as="geometry" />
        </mxCell>
        <mxCell id="Udkh_0XvXgFXBY_L_qVN-187" value="&lt;font style=&quot;font-size: 28px;&quot;&gt;1 x 1 Conv&lt;br&gt;BN ReLU&lt;/font&gt;" style="rounded=1;whiteSpace=wrap;html=1;container=0;strokeWidth=3;fillColor=#d5e8d4;strokeColor=#82b366;fontFamily=Times New Roman;rotation=0;" parent="1" vertex="1">
          <mxGeometry x="200" y="-1440" width="200" height="100" as="geometry" />
        </mxCell>
        <mxCell id="Udkh_0XvXgFXBY_L_qVN-224" value="" style="edgeStyle=orthogonalEdgeStyle;rounded=0;orthogonalLoop=1;jettySize=auto;html=1;fontFamily=Times New Roman;strokeWidth=3;" parent="1" source="Udkh_0XvXgFXBY_L_qVN-188" target="Udkh_0XvXgFXBY_L_qVN-184" edge="1">
          <mxGeometry relative="1" as="geometry" />
        </mxCell>
        <mxCell id="Udkh_0XvXgFXBY_L_qVN-188" value="&lt;font style=&quot;font-size: 28px;&quot;&gt;1 x 1 Conv&lt;br&gt;BN&lt;/font&gt;" style="rounded=1;whiteSpace=wrap;html=1;container=0;strokeWidth=3;fillColor=#d5e8d4;strokeColor=#82b366;fontFamily=Times New Roman;rotation=0;" parent="1" vertex="1">
          <mxGeometry x="551" y="-1740" width="200" height="100" as="geometry" />
        </mxCell>
        <mxCell id="Udkh_0XvXgFXBY_L_qVN-189" value="&lt;span style=&quot;font-size: 28px;&quot;&gt;3 x 3 MaxPool&lt;/span&gt;" style="rounded=1;whiteSpace=wrap;html=1;container=0;strokeWidth=3;fillColor=#e1d5e7;strokeColor=#9673a6;fontFamily=Times New Roman;rotation=0;" parent="1" vertex="1">
          <mxGeometry x="481" y="-1360" width="200" height="100" as="geometry" />
        </mxCell>
        <mxCell id="Udkh_0XvXgFXBY_L_qVN-190" value="&lt;span style=&quot;font-size: 28px;&quot;&gt;Softmax&lt;/span&gt;" style="rounded=1;whiteSpace=wrap;html=1;container=0;strokeWidth=3;fillColor=#ffe6cc;strokeColor=#d79b00;fontFamily=Times New Roman;rotation=0;" parent="1" vertex="1">
          <mxGeometry x="960" y="-1150" width="200" height="100" as="geometry" />
        </mxCell>
        <mxCell id="Udkh_0XvXgFXBY_L_qVN-251" value="" style="edgeStyle=orthogonalEdgeStyle;rounded=0;orthogonalLoop=1;jettySize=auto;html=1;entryX=0.5;entryY=1;entryDx=0;entryDy=0;strokeWidth=3;" parent="1" source="Udkh_0XvXgFXBY_L_qVN-214" target="Udkh_0XvXgFXBY_L_qVN-233" edge="1">
          <mxGeometry relative="1" as="geometry" />
        </mxCell>
        <mxCell id="Udkh_0XvXgFXBY_L_qVN-214" value="&lt;font style=&quot;font-size: 28px;&quot;&gt;1 x 1 Conv&lt;br&gt;BN ReLU&lt;/font&gt;" style="rounded=1;whiteSpace=wrap;html=1;container=0;strokeWidth=3;fillColor=#d5e8d4;strokeColor=#82b366;fontFamily=Times New Roman;rotation=0;" parent="1" vertex="1">
          <mxGeometry x="861" y="-1440" width="200" height="100" as="geometry" />
        </mxCell>
        <mxCell id="Udkh_0XvXgFXBY_L_qVN-215" value="&lt;span style=&quot;font-size: 28px;&quot;&gt;Conv2D&lt;br&gt;BN&lt;/span&gt;" style="rounded=1;whiteSpace=wrap;html=1;container=0;strokeWidth=3;fillColor=#d5e8d4;strokeColor=#82b366;fontFamily=Times New Roman;rotation=0;" parent="1" vertex="1">
          <mxGeometry x="200" y="-930" width="200" height="100" as="geometry" />
        </mxCell>
        <mxCell id="Udkh_0XvXgFXBY_L_qVN-216" value="" style="group;fontFamily=Times New Roman;strokeWidth=3;" parent="1" vertex="1" connectable="0">
          <mxGeometry x="491" y="-1160" width="120" height="120" as="geometry" />
        </mxCell>
        <mxCell id="Udkh_0XvXgFXBY_L_qVN-193" value="" style="rounded=0;whiteSpace=wrap;html=1;fillColor=#99FF99;fontFamily=Times New Roman;strokeWidth=3;" parent="Udkh_0XvXgFXBY_L_qVN-216" vertex="1">
          <mxGeometry width="40" height="40" as="geometry" />
        </mxCell>
        <mxCell id="Udkh_0XvXgFXBY_L_qVN-194" value="" style="rounded=0;whiteSpace=wrap;html=1;fillColor=#99FF33;fontFamily=Times New Roman;strokeWidth=3;" parent="Udkh_0XvXgFXBY_L_qVN-216" vertex="1">
          <mxGeometry x="40" width="40" height="40" as="geometry" />
        </mxCell>
        <mxCell id="Udkh_0XvXgFXBY_L_qVN-195" value="" style="rounded=0;whiteSpace=wrap;html=1;fillColor=#00FF80;fontFamily=Times New Roman;strokeWidth=3;" parent="Udkh_0XvXgFXBY_L_qVN-216" vertex="1">
          <mxGeometry x="80" width="40" height="40" as="geometry" />
        </mxCell>
        <mxCell id="Udkh_0XvXgFXBY_L_qVN-196" value="" style="rounded=0;whiteSpace=wrap;html=1;fillColor=#CCFFCC;fontFamily=Times New Roman;strokeWidth=3;" parent="Udkh_0XvXgFXBY_L_qVN-216" vertex="1">
          <mxGeometry y="40" width="40" height="40" as="geometry" />
        </mxCell>
        <mxCell id="Udkh_0XvXgFXBY_L_qVN-197" value="" style="rounded=0;whiteSpace=wrap;html=1;fillColor=#00CC00;fontFamily=Times New Roman;strokeWidth=3;" parent="Udkh_0XvXgFXBY_L_qVN-216" vertex="1">
          <mxGeometry x="40" y="40" width="40" height="40" as="geometry" />
        </mxCell>
        <mxCell id="Udkh_0XvXgFXBY_L_qVN-198" value="" style="rounded=0;whiteSpace=wrap;html=1;fillColor=#97D077;fontFamily=Times New Roman;strokeWidth=3;" parent="Udkh_0XvXgFXBY_L_qVN-216" vertex="1">
          <mxGeometry x="80" y="40" width="40" height="40" as="geometry" />
        </mxCell>
        <mxCell id="Udkh_0XvXgFXBY_L_qVN-199" value="" style="rounded=0;whiteSpace=wrap;html=1;fillColor=#4D9900;fontFamily=Times New Roman;strokeWidth=3;" parent="Udkh_0XvXgFXBY_L_qVN-216" vertex="1">
          <mxGeometry y="80" width="40" height="40" as="geometry" />
        </mxCell>
        <mxCell id="Udkh_0XvXgFXBY_L_qVN-200" value="" style="rounded=0;whiteSpace=wrap;html=1;fillColor=#B3FF66;fontFamily=Times New Roman;strokeWidth=3;" parent="Udkh_0XvXgFXBY_L_qVN-216" vertex="1">
          <mxGeometry x="40" y="80" width="40" height="40" as="geometry" />
        </mxCell>
        <mxCell id="Udkh_0XvXgFXBY_L_qVN-201" value="" style="rounded=0;whiteSpace=wrap;html=1;fillColor=#E6FFCC;fontFamily=Times New Roman;strokeWidth=3;" parent="Udkh_0XvXgFXBY_L_qVN-216" vertex="1">
          <mxGeometry x="80" y="80" width="40" height="40" as="geometry" />
        </mxCell>
        <mxCell id="Udkh_0XvXgFXBY_L_qVN-218" value="" style="group;fontFamily=Times New Roman;strokeWidth=3;" parent="1" vertex="1" connectable="0">
          <mxGeometry x="511" y="-920" width="80" height="80" as="geometry" />
        </mxCell>
        <mxCell id="Udkh_0XvXgFXBY_L_qVN-210" value="" style="rounded=0;whiteSpace=wrap;html=1;fillColor=#00CC00;fontFamily=Times New Roman;strokeWidth=3;" parent="Udkh_0XvXgFXBY_L_qVN-218" vertex="1">
          <mxGeometry width="40" height="40" as="geometry" />
        </mxCell>
        <mxCell id="Udkh_0XvXgFXBY_L_qVN-211" value="" style="rounded=0;whiteSpace=wrap;html=1;fillColor=#97D077;fontFamily=Times New Roman;strokeWidth=3;" parent="Udkh_0XvXgFXBY_L_qVN-218" vertex="1">
          <mxGeometry x="40" width="40" height="40" as="geometry" />
        </mxCell>
        <mxCell id="Udkh_0XvXgFXBY_L_qVN-212" value="" style="rounded=0;whiteSpace=wrap;html=1;fillColor=#B3FF66;fontFamily=Times New Roman;strokeWidth=3;" parent="Udkh_0XvXgFXBY_L_qVN-218" vertex="1">
          <mxGeometry y="40" width="40" height="40" as="geometry" />
        </mxCell>
        <mxCell id="Udkh_0XvXgFXBY_L_qVN-213" value="" style="rounded=0;whiteSpace=wrap;html=1;fillColor=#E6FFCC;fontFamily=Times New Roman;strokeWidth=3;" parent="Udkh_0XvXgFXBY_L_qVN-218" vertex="1">
          <mxGeometry x="40" y="40" width="40" height="40" as="geometry" />
        </mxCell>
        <mxCell id="Udkh_0XvXgFXBY_L_qVN-270" value="" style="edgeStyle=orthogonalEdgeStyle;rounded=0;orthogonalLoop=1;jettySize=auto;html=1;strokeWidth=3;" parent="1" source="Udkh_0XvXgFXBY_L_qVN-219" target="Udkh_0XvXgFXBY_L_qVN-220" edge="1">
          <mxGeometry relative="1" as="geometry" />
        </mxCell>
        <mxCell id="Udkh_0XvXgFXBY_L_qVN-219" value="&lt;span style=&quot;font-size: 28px;&quot;&gt;Conv1D&lt;/span&gt;" style="rounded=1;whiteSpace=wrap;html=1;container=0;strokeWidth=3;fillColor=#f5f5f5;strokeColor=#666666;fontFamily=Times New Roman;rotation=0;fontColor=#333333;" parent="1" vertex="1">
          <mxGeometry x="1211" y="-930" width="200" height="100" as="geometry" />
        </mxCell>
        <mxCell id="Udkh_0XvXgFXBY_L_qVN-237" value="" style="edgeStyle=orthogonalEdgeStyle;rounded=0;orthogonalLoop=1;jettySize=auto;html=1;fontFamily=Times New Roman;strokeWidth=3;" parent="1" source="Udkh_0XvXgFXBY_L_qVN-220" target="Udkh_0XvXgFXBY_L_qVN-232" edge="1">
          <mxGeometry relative="1" as="geometry" />
        </mxCell>
        <mxCell id="Udkh_0XvXgFXBY_L_qVN-220" value="&lt;span style=&quot;font-size: 28px;&quot;&gt;Conv2D&lt;br&gt;BN&lt;/span&gt;" style="rounded=1;whiteSpace=wrap;html=1;container=0;strokeWidth=3;fillColor=#d5e8d4;strokeColor=#82b366;fontFamily=Times New Roman;rotation=0;" parent="1" vertex="1">
          <mxGeometry x="1211" y="-1140" width="200" height="100" as="geometry" />
        </mxCell>
        <mxCell id="Udkh_0XvXgFXBY_L_qVN-280" value="" style="edgeStyle=orthogonalEdgeStyle;rounded=0;orthogonalLoop=1;jettySize=auto;html=1;strokeWidth=3;" parent="1" target="Udkh_0XvXgFXBY_L_qVN-279" edge="1">
          <mxGeometry relative="1" as="geometry">
            <mxPoint x="1590" y="-1530" as="sourcePoint" />
          </mxGeometry>
        </mxCell>
        <mxCell id="Udkh_0XvXgFXBY_L_qVN-221" value="&lt;font style=&quot;font-size: 28px;&quot;&gt;1 x 1 Conv&lt;br&gt;BN ReLU&lt;/font&gt;" style="rounded=1;whiteSpace=wrap;html=1;container=0;strokeWidth=3;fillColor=#d5e8d4;strokeColor=#82b366;fontFamily=Times New Roman;rotation=0;" parent="1" vertex="1">
          <mxGeometry x="1430" y="-1580" width="200" height="100" as="geometry" />
        </mxCell>
        <mxCell id="Udkh_0XvXgFXBY_L_qVN-281" value="" style="edgeStyle=orthogonalEdgeStyle;rounded=0;orthogonalLoop=1;jettySize=auto;html=1;strokeWidth=3;strokeColor=#FF0000;" parent="1" source="Udkh_0XvXgFXBY_L_qVN-222" target="Udkh_0XvXgFXBY_L_qVN-252" edge="1">
          <mxGeometry relative="1" as="geometry" />
        </mxCell>
        <mxCell id="Udkh_0XvXgFXBY_L_qVN-222" value="&lt;font style=&quot;font-size: 28px;&quot;&gt;1 x 1 Conv&lt;br&gt;BN ReLU&lt;/font&gt;" style="rounded=1;whiteSpace=wrap;html=1;container=0;strokeWidth=3;fillColor=#d5e8d4;strokeColor=#82b366;fontFamily=Times New Roman;rotation=0;" parent="1" vertex="1">
          <mxGeometry x="1211" y="-1450" width="200" height="100" as="geometry" />
        </mxCell>
        <mxCell id="Udkh_0XvXgFXBY_L_qVN-227" value="" style="endArrow=classic;html=1;rounded=0;exitX=1;exitY=0.5;exitDx=0;exitDy=0;entryX=0;entryY=0.5;entryDx=0;entryDy=0;fontFamily=Times New Roman;strokeWidth=3;" parent="1" source="Udkh_0XvXgFXBY_L_qVN-183" target="Udkh_0XvXgFXBY_L_qVN-196" edge="1">
          <mxGeometry width="50" height="50" relative="1" as="geometry">
            <mxPoint x="821" y="-1380" as="sourcePoint" />
            <mxPoint x="521" y="-1100" as="targetPoint" />
          </mxGeometry>
        </mxCell>
        <mxCell id="Udkh_0XvXgFXBY_L_qVN-228" value="" style="endArrow=classic;html=1;rounded=0;exitX=1;exitY=0.5;exitDx=0;exitDy=0;entryX=0;entryY=0.5;entryDx=0;entryDy=0;fontFamily=Times New Roman;strokeWidth=3;" parent="1" source="Udkh_0XvXgFXBY_L_qVN-198" target="Udkh_0XvXgFXBY_L_qVN-179" edge="1">
          <mxGeometry width="50" height="50" relative="1" as="geometry">
            <mxPoint x="661" y="-1100.42" as="sourcePoint" />
            <mxPoint x="701" y="-1100" as="targetPoint" />
          </mxGeometry>
        </mxCell>
        <mxCell id="Udkh_0XvXgFXBY_L_qVN-229" value="" style="endArrow=classic;html=1;rounded=0;exitX=1;exitY=0.5;exitDx=0;exitDy=0;entryX=0;entryY=0.5;entryDx=0;entryDy=0;fontFamily=Times New Roman;strokeWidth=3;" parent="1" source="Udkh_0XvXgFXBY_L_qVN-179" target="Udkh_0XvXgFXBY_L_qVN-190" edge="1">
          <mxGeometry width="50" height="50" relative="1" as="geometry">
            <mxPoint x="931" y="-1110" as="sourcePoint" />
            <mxPoint x="981" y="-1160" as="targetPoint" />
          </mxGeometry>
        </mxCell>
        <mxCell id="Udkh_0XvXgFXBY_L_qVN-230" value="" style="endArrow=classic;html=1;rounded=0;exitX=1;exitY=0.5;exitDx=0;exitDy=0;entryX=0;entryY=0;entryDx=0;entryDy=0;fontFamily=Times New Roman;strokeWidth=3;" parent="1" source="Udkh_0XvXgFXBY_L_qVN-215" target="Udkh_0XvXgFXBY_L_qVN-212" edge="1">
          <mxGeometry width="50" height="50" relative="1" as="geometry">
            <mxPoint x="441" y="-930.83" as="sourcePoint" />
            <mxPoint x="532" y="-930.83" as="targetPoint" />
          </mxGeometry>
        </mxCell>
        <mxCell id="Udkh_0XvXgFXBY_L_qVN-246" value="" style="edgeStyle=orthogonalEdgeStyle;rounded=0;orthogonalLoop=1;jettySize=auto;html=1;strokeWidth=3;" parent="1" source="Udkh_0XvXgFXBY_L_qVN-231" target="Udkh_0XvXgFXBY_L_qVN-214" edge="1">
          <mxGeometry relative="1" as="geometry" />
        </mxCell>
        <mxCell id="Udkh_0XvXgFXBY_L_qVN-231" value="&lt;font style=&quot;font-size: 28px;&quot;&gt;C&lt;/font&gt;" style="ellipse;whiteSpace=wrap;html=1;aspect=fixed;fillColor=#1ba1e2;strokeColor=#006EAF;fontColor=#ffffff;fontFamily=Times New Roman;strokeWidth=3;" parent="1" vertex="1">
          <mxGeometry x="751" y="-1410" width="40" height="40" as="geometry" />
        </mxCell>
        <mxCell id="Udkh_0XvXgFXBY_L_qVN-238" value="" style="edgeStyle=orthogonalEdgeStyle;rounded=0;orthogonalLoop=1;jettySize=auto;html=1;fontFamily=Times New Roman;strokeWidth=3;" parent="1" source="Udkh_0XvXgFXBY_L_qVN-232" target="Udkh_0XvXgFXBY_L_qVN-222" edge="1">
          <mxGeometry relative="1" as="geometry" />
        </mxCell>
        <mxCell id="Udkh_0XvXgFXBY_L_qVN-232" value="&lt;font style=&quot;font-size: 28px;&quot;&gt;+&lt;/font&gt;" style="ellipse;whiteSpace=wrap;html=1;aspect=fixed;fillColor=#1ba1e2;strokeColor=#006EAF;fontColor=#ffffff;fontFamily=Times New Roman;strokeWidth=3;" parent="1" vertex="1">
          <mxGeometry x="1291" y="-1260" width="40" height="40" as="geometry" />
        </mxCell>
        <mxCell id="Udkh_0XvXgFXBY_L_qVN-236" value="" style="group;fontFamily=Times New Roman;strokeWidth=3;" parent="1" vertex="1" connectable="0">
          <mxGeometry x="941" y="-1550" width="40" height="40" as="geometry" />
        </mxCell>
        <mxCell id="Udkh_0XvXgFXBY_L_qVN-233" value="" style="ellipse;whiteSpace=wrap;html=1;aspect=fixed;fillColor=#1ba1e2;strokeColor=#006EAF;fontColor=#ffffff;align=center;verticalAlign=middle;fontFamily=Times New Roman;strokeWidth=3;" parent="Udkh_0XvXgFXBY_L_qVN-236" vertex="1">
          <mxGeometry width="40" height="40" as="geometry" />
        </mxCell>
        <mxCell id="Udkh_0XvXgFXBY_L_qVN-235" value="" style="ellipse;whiteSpace=wrap;html=1;aspect=fixed;strokeColor=none;fontFamily=Times New Roman;strokeWidth=3;" parent="Udkh_0XvXgFXBY_L_qVN-236" vertex="1">
          <mxGeometry x="10" y="10" width="20" height="20" as="geometry" />
        </mxCell>
        <mxCell id="Udkh_0XvXgFXBY_L_qVN-241" value="" style="edgeStyle=orthogonalEdgeStyle;rounded=0;orthogonalLoop=1;jettySize=auto;html=1;fontFamily=Times New Roman;exitX=1;exitY=0.5;exitDx=0;exitDy=0;entryX=0.5;entryY=0;entryDx=0;entryDy=0;strokeWidth=3;" parent="1" source="Udkh_0XvXgFXBY_L_qVN-186" target="Udkh_0XvXgFXBY_L_qVN-231" edge="1">
          <mxGeometry relative="1" as="geometry">
            <mxPoint x="711" y="-1490.48" as="sourcePoint" />
            <mxPoint x="791" y="-1490.48" as="targetPoint" />
          </mxGeometry>
        </mxCell>
        <mxCell id="Udkh_0XvXgFXBY_L_qVN-242" value="" style="edgeStyle=orthogonalEdgeStyle;rounded=0;orthogonalLoop=1;jettySize=auto;html=1;fontFamily=Times New Roman;entryX=0.5;entryY=1;entryDx=0;entryDy=0;exitX=1;exitY=0.5;exitDx=0;exitDy=0;strokeWidth=3;" parent="1" source="Udkh_0XvXgFXBY_L_qVN-189" target="Udkh_0XvXgFXBY_L_qVN-231" edge="1">
          <mxGeometry relative="1" as="geometry">
            <mxPoint x="761" y="-1280" as="sourcePoint" />
            <mxPoint x="771" y="-1230" as="targetPoint" />
          </mxGeometry>
        </mxCell>
        <mxCell id="Udkh_0XvXgFXBY_L_qVN-243" value="" style="edgeStyle=orthogonalEdgeStyle;rounded=0;orthogonalLoop=1;jettySize=auto;html=1;fontFamily=Times New Roman;exitX=1;exitY=0.5;exitDx=0;exitDy=0;entryX=0;entryY=0.5;entryDx=0;entryDy=0;strokeWidth=3;" parent="1" source="Udkh_0XvXgFXBY_L_qVN-187" target="Udkh_0XvXgFXBY_L_qVN-186" edge="1">
          <mxGeometry relative="1" as="geometry">
            <mxPoint x="420.43000000000006" y="-1410" as="sourcePoint" />
            <mxPoint x="510.43000000000006" y="-1330" as="targetPoint" />
          </mxGeometry>
        </mxCell>
        <mxCell id="Udkh_0XvXgFXBY_L_qVN-245" value="" style="edgeStyle=orthogonalEdgeStyle;rounded=0;orthogonalLoop=1;jettySize=auto;html=1;fontFamily=Times New Roman;exitX=1;exitY=0.5;exitDx=0;exitDy=0;entryX=0;entryY=0.5;entryDx=0;entryDy=0;strokeWidth=3;" parent="1" source="Udkh_0XvXgFXBY_L_qVN-187" target="Udkh_0XvXgFXBY_L_qVN-189" edge="1">
          <mxGeometry relative="1" as="geometry">
            <mxPoint x="410" y="-1400" as="sourcePoint" />
            <mxPoint x="491" y="-1480" as="targetPoint" />
          </mxGeometry>
        </mxCell>
        <mxCell id="Udkh_0XvXgFXBY_L_qVN-261" value="" style="edgeStyle=orthogonalEdgeStyle;rounded=0;orthogonalLoop=1;jettySize=auto;html=1;strokeWidth=3;" parent="1" source="Udkh_0XvXgFXBY_L_qVN-252" target="Udkh_0XvXgFXBY_L_qVN-221" edge="1">
          <mxGeometry relative="1" as="geometry" />
        </mxCell>
        <mxCell id="Udkh_0XvXgFXBY_L_qVN-252" value="&lt;font style=&quot;font-size: 28px;&quot;&gt;C&lt;/font&gt;" style="ellipse;whiteSpace=wrap;html=1;aspect=fixed;fillColor=#1ba1e2;strokeColor=#006EAF;fontColor=#ffffff;fontFamily=Times New Roman;strokeWidth=3;" parent="1" vertex="1">
          <mxGeometry x="1291" y="-1550" width="40" height="40" as="geometry" />
        </mxCell>
        <mxCell id="Udkh_0XvXgFXBY_L_qVN-257" value="" style="edgeStyle=orthogonalEdgeStyle;rounded=0;orthogonalLoop=1;jettySize=auto;html=1;strokeWidth=3;" parent="1" source="Udkh_0XvXgFXBY_L_qVN-254" target="Udkh_0XvXgFXBY_L_qVN-252" edge="1">
          <mxGeometry relative="1" as="geometry" />
        </mxCell>
        <mxCell id="Udkh_0XvXgFXBY_L_qVN-254" value="&lt;font style=&quot;font-size: 28px;&quot;&gt;+&lt;/font&gt;" style="ellipse;whiteSpace=wrap;html=1;aspect=fixed;fillColor=#1ba1e2;strokeColor=#006EAF;fontColor=#ffffff;strokeWidth=3;" parent="1" vertex="1">
          <mxGeometry x="1061" y="-1550" width="40" height="40" as="geometry" />
        </mxCell>
        <mxCell id="Udkh_0XvXgFXBY_L_qVN-256" value="" style="edgeStyle=orthogonalEdgeStyle;rounded=0;orthogonalLoop=1;jettySize=auto;html=1;strokeWidth=3;" parent="1" source="Udkh_0XvXgFXBY_L_qVN-233" target="Udkh_0XvXgFXBY_L_qVN-254" edge="1">
          <mxGeometry relative="1" as="geometry" />
        </mxCell>
        <mxCell id="Udkh_0XvXgFXBY_L_qVN-258" value="" style="edgeStyle=orthogonalEdgeStyle;rounded=0;orthogonalLoop=1;jettySize=auto;html=1;fontFamily=Times New Roman;exitX=1;exitY=0.5;exitDx=0;exitDy=0;entryX=0;entryY=0.5;entryDx=0;entryDy=0;strokeWidth=3;" parent="1" source="Udkh_0XvXgFXBY_L_qVN-126" target="Udkh_0XvXgFXBY_L_qVN-187" edge="1">
          <mxGeometry relative="1" as="geometry">
            <mxPoint x="477" y="-1700" as="sourcePoint" />
            <mxPoint x="591" y="-1700" as="targetPoint" />
          </mxGeometry>
        </mxCell>
        <mxCell id="Udkh_0XvXgFXBY_L_qVN-260" value="" style="edgeStyle=orthogonalEdgeStyle;rounded=0;orthogonalLoop=1;jettySize=auto;html=1;fontFamily=Times New Roman;exitX=1;exitY=0.5;exitDx=0;exitDy=0;entryX=0;entryY=0.5;entryDx=0;entryDy=0;strokeWidth=3;" parent="1" source="Udkh_0XvXgFXBY_L_qVN-126" target="Udkh_0XvXgFXBY_L_qVN-185" edge="1">
          <mxGeometry relative="1" as="geometry">
            <mxPoint x="410" y="-1380" as="sourcePoint" />
            <mxPoint x="491" y="-1480" as="targetPoint" />
            <Array as="points">
              <mxPoint x="90" y="-1390" />
              <mxPoint x="90" y="-1690" />
            </Array>
          </mxGeometry>
        </mxCell>
        <mxCell id="Udkh_0XvXgFXBY_L_qVN-262" value="" style="group" parent="1" vertex="1" connectable="0">
          <mxGeometry x="1041" y="-900" width="40" height="40" as="geometry" />
        </mxCell>
        <mxCell id="Udkh_0XvXgFXBY_L_qVN-263" value="" style="ellipse;whiteSpace=wrap;html=1;aspect=fixed;fillColor=#1ba1e2;strokeColor=#006EAF;fontColor=#ffffff;align=center;verticalAlign=middle;" parent="Udkh_0XvXgFXBY_L_qVN-262" vertex="1">
          <mxGeometry width="40" height="40" as="geometry" />
        </mxCell>
        <mxCell id="Udkh_0XvXgFXBY_L_qVN-264" value="" style="ellipse;whiteSpace=wrap;html=1;aspect=fixed;strokeColor=none;" parent="Udkh_0XvXgFXBY_L_qVN-262" vertex="1">
          <mxGeometry x="10" y="10" width="20" height="20" as="geometry" />
        </mxCell>
        <mxCell id="Udkh_0XvXgFXBY_L_qVN-268" value="" style="endArrow=classic;html=1;rounded=0;exitX=1;exitY=0;exitDx=0;exitDy=0;entryX=0;entryY=0.5;entryDx=0;entryDy=0;fontFamily=Times New Roman;strokeWidth=3;" parent="1" source="Udkh_0XvXgFXBY_L_qVN-213" target="Udkh_0XvXgFXBY_L_qVN-263" edge="1">
          <mxGeometry width="50" height="50" relative="1" as="geometry">
            <mxPoint x="701" y="-880" as="sourcePoint" />
            <mxPoint x="791" y="-880" as="targetPoint" />
          </mxGeometry>
        </mxCell>
        <mxCell id="Udkh_0XvXgFXBY_L_qVN-269" value="" style="endArrow=classic;html=1;rounded=0;exitX=1;exitY=0.5;exitDx=0;exitDy=0;entryX=0;entryY=0.5;entryDx=0;entryDy=0;fontFamily=Times New Roman;strokeWidth=3;" parent="1" source="Udkh_0XvXgFXBY_L_qVN-263" target="Udkh_0XvXgFXBY_L_qVN-219" edge="1">
          <mxGeometry width="50" height="50" relative="1" as="geometry">
            <mxPoint x="1130" y="-880" as="sourcePoint" />
            <mxPoint x="1579" y="-880" as="targetPoint" />
          </mxGeometry>
        </mxCell>
        <mxCell id="Udkh_0XvXgFXBY_L_qVN-271" value="" style="endArrow=classic;html=1;rounded=0;exitX=0.5;exitY=1;exitDx=0;exitDy=0;entryX=0.5;entryY=0;entryDx=0;entryDy=0;fontFamily=Times New Roman;strokeWidth=3;" parent="1" source="Udkh_0XvXgFXBY_L_qVN-190" target="Udkh_0XvXgFXBY_L_qVN-263" edge="1">
          <mxGeometry width="50" height="50" relative="1" as="geometry">
            <mxPoint x="1091" y="-870" as="sourcePoint" />
            <mxPoint x="1221" y="-870" as="targetPoint" />
          </mxGeometry>
        </mxCell>
        <mxCell id="Udkh_0XvXgFXBY_L_qVN-275" value="" style="endArrow=classic;html=1;rounded=0;exitX=1;exitY=0.5;exitDx=0;exitDy=0;entryX=0;entryY=0.5;entryDx=0;entryDy=0;fontFamily=Times New Roman;strokeWidth=3;" parent="1" source="Udkh_0XvXgFXBY_L_qVN-127" target="Udkh_0XvXgFXBY_L_qVN-183" edge="1">
          <mxGeometry width="50" height="50" relative="1" as="geometry">
            <mxPoint x="40" y="-1100" as="sourcePoint" />
            <mxPoint x="151" y="-1100" as="targetPoint" />
          </mxGeometry>
        </mxCell>
        <mxCell id="Udkh_0XvXgFXBY_L_qVN-277" value="" style="edgeStyle=orthogonalEdgeStyle;rounded=0;orthogonalLoop=1;jettySize=auto;html=1;fontFamily=Times New Roman;entryX=0;entryY=0.5;entryDx=0;entryDy=0;strokeWidth=3;" parent="1" target="Udkh_0XvXgFXBY_L_qVN-215" edge="1">
          <mxGeometry relative="1" as="geometry">
            <mxPoint x="-10" y="-1100" as="sourcePoint" />
            <mxPoint x="257" y="-1670" as="targetPoint" />
            <Array as="points">
              <mxPoint x="-10" y="-1099" />
              <mxPoint x="90" y="-1099" />
              <mxPoint x="90" y="-880" />
            </Array>
          </mxGeometry>
        </mxCell>
        <mxCell id="Udkh_0XvXgFXBY_L_qVN-278" value="" style="edgeStyle=orthogonalEdgeStyle;rounded=0;orthogonalLoop=1;jettySize=auto;html=1;fontFamily=Times New Roman;exitX=1;exitY=0.5;exitDx=0;exitDy=0;entryX=0;entryY=0.5;entryDx=0;entryDy=0;strokeWidth=3;" parent="1" source="Udkh_0XvXgFXBY_L_qVN-127" target="Udkh_0XvXgFXBY_L_qVN-232" edge="1">
          <mxGeometry relative="1" as="geometry">
            <mxPoint x="20" y="-1360" as="sourcePoint" />
            <mxPoint x="267" y="-1660" as="targetPoint" />
            <Array as="points">
              <mxPoint x="90" y="-1100" />
              <mxPoint x="90" y="-1240" />
            </Array>
          </mxGeometry>
        </mxCell>
        <mxCell id="Udkh_0XvXgFXBY_L_qVN-279" value="" style="shape=image;verticalLabelPosition=bottom;labelBackgroundColor=default;verticalAlign=top;aspect=fixed;imageAspect=0;image=data:image/jpeg,/9j/4AAQSkZJRgABAQAAAQABAAD/2wBDAAgGBgcGBQgHBwcJCQgKDBQNDAsLDBkSEw8UHRofHh0aHBwgJC4nICIsIxwcKDcpLDAxNDQ0Hyc5PTgyPC4zNDL/2wBDAQkJCQwLDBgNDRgyIRwhMjIyMjIyMjIyMjIyMjIyMjIyMjIyMjIyMjIyMjIyMjIyMjIyMjIyMjIyMjIyMjIyMjL/wAARCAEAAQADASIAAhEBAxEB/8QAHwAAAQUBAQEBAQEAAAAAAAAAAAECAwQFBgcICQoL/8QAtRAAAgEDAwIEAwUFBAQAAAF9AQIDAAQRBRIhMUEGE1FhByJxFDKBkaEII0KxwRVS0fAkM2JyggkKFhcYGRolJicoKSo0NTY3ODk6Q0RFRkdISUpTVFVWV1hZWmNkZWZnaGlqc3R1dnd4eXqDhIWGh4iJipKTlJWWl5iZmqKjpKWmp6ipqrKztLW2t7i5usLDxMXGx8jJytLT1NXW19jZ2uHi4+Tl5ufo6erx8vP09fb3+Pn6/8QAHwEAAwEBAQEBAQEBAQAAAAAAAAECAwQFBgcICQoL/8QAtREAAgECBAQDBAcFBAQAAQJ3AAECAxEEBSExBhJBUQdhcRMiMoEIFEKRobHBCSMzUvAVYnLRChYkNOEl8RcYGRomJygpKjU2Nzg5OkNERUZHSElKU1RVVldYWVpjZGVmZ2hpanN0dXZ3eHl6goOEhYaHiImKkpOUlZaXmJmaoqOkpaanqKmqsrO0tba3uLm6wsPExcbHyMnK0tPU1dbX2Nna4uPk5ebn6Onq8vP09fb3+Pn6/9oADAMBAAIRAxEAPwD5/ooooAKKKKACiiigAooooAKKKKACiiigAooooAKKKKACiiigAooooAKKKKACiiigAooooAKKKKACiiigAooooAKKKKACiiigAooooAKKKKACiiigAooooAKKKKACiiigAooooAKKKKACiiigAooooAKKKKACiiigAooooAKKKKACiiigAooooAKKKKACiiigAooooAKKKKACiiigAp8UMs77IYnkY/wopJ/Sug8G+Eb7xdrMdpaxM0YP7xhxgema+ofDfws8P6LZIkljG8uBnJJ5GOvrQB81eG/hn4p8US7bLT2ij7zXIKJ+eK9Ht/2ar5owbnxHbo5HIjtiwH4lhmvoS2toLOBYLeJY4l6Ko4FS0AfPN3+zVdKh+x+IoXbsJoCo/QmvNvF3w08ReDpgLy28+Bvuz24LKfrxX2fVTU9MtdX06axvIllglXBVh+tAHwXRXY/Erwr/AMIr4uuraFCto7FovT6CuOoAKKljt55QTHDI4HUqpNREEHBGCKACiiigAooooAKKKKACiiigAooooAKKKKACiiigAooooAKKKKACiigAk4AyTQAVpaFoWoeItUisNOtpJpXYA7R90E9TXdfD/wCEOo+LJkub0tbaeMFm/iI44r6V8NeDtE8J2gg0qzSM/wAUpALt+NAFDwF4Hs/BuixW6IrXRUGR/Q45FdbRRQAUUUUAFFFFAHB+Ovhjp3jRhNI3lTjGW6ZxXOaD+z/oOnXKT6hPJebTnyzwtev0UAY8XhXQYIPJj0m1CEAYMYP61yviL4N+FNdjkaOzFncP0khr0KigD418ffDrUvBd+++JnsGx5cu4H+VcVX3P4k8M6b4q0mTT9ShDxsPlcfeQ+or5O+IPw41TwPqLb42m06Q/ublRlceh9DQBxNFFFABRRRQAUUUUAFFFFABRRRQAUUUUAFFFFABRRRQAV6f8K/h1ceI79L66ti1mpBBJwOvWuE8O6PNruvWmnwRmRpHG5QQPlzz1r7S8L6Hb6DoVtaQRhSI13HGCTigC/p2nW2l2MdpaxhIoxgD196tUUUAFFFFABRRRQAUUUUAFFFFABRRRQAVS1bSLHXNNl0/UbdLi2lGGRxn8R6GrtFAHzr4z/Z6u7dpr3wrcrPCPmFlO2JB7K3Rvxx/j4hd2lzYXctreW8tvcRNtkilQqyH0IPIr75rjfHvw30bx9YhbsG21CJSIL6JAXXr8rD+JcnOMj2IyaAPjKit/xZ4L1zwVqQs9atPK8zcYZ0O6KYA4JRvyODgjIyBmsCgAooooAKKKKACiiigAooooAKKKKACiiigD0/4H6SuoeMhO6b1hA6NgjJ6/pX1hXzB8BUH9vyOWwquO4GK+n6ACiiigAooooAKKCQBknApFYMMqQR6g0ALRRRQAUUUUAFFFFABRRRQAUUUUAYvinwrpPjDRZdL1e3EkTZMci8PC+OHQ9iPyPQgjIr4u8R6DeeGPEN7ot+FFzaSbGKnIYEAqw9ipBHfmvuuvk349W8cPxTu5EzumtoXfPrt2+noo9f6AA8yooooAKKKKACiiigAooooAKKKKACiiigDu/hTqD2vi2GAAsshBwG285HuK+wYmDQow6FQa+FvD14LDxBY3BBISZc4OOvFfbmh30Wo6LaXMJBR4l757UAaFFFFABTXdY0Z2OFUZJNOrC8ValHY6TIpk2ySDAA64oAxta8U75ZLaCUKo6MvU1PoWtTPJHCWDrydo4yPqa8sfWGa9bDjBJwFHWul8N635kqxK4BHJAGP1oA9cBDAEHINLVbT5fOso346Y4qzQAUUUUAFFFFABRRRQAUUUUAFfF3xQ1m31/wCJWuahaEG3acRIwYMHEaLHuBHUHZkexFfSfxZ8ejwN4VZrWULrF7mOxBj3BSCN7nPHyhuM55K8EZr4+oAKKKKACiiigAooooAKKKKACiiigAooooAK+j/gx46iXRotMvJshOBk/d4HNfOFXtN1S40u4WaBjlckDOOSMUAfdaXdtIu5LiJlAySHHFVbvXNMsVJuL2BcDON4r5Bj+JXiGKZDHclYkziPce/vWff+NNav5Axu3jAzgKaAPqy6+I+jRybYZ1YAZ3HHP61554r8cQ385aKZVjbphuT+teA22o3cU0e2ZjhuATXQ2BvbyKE+YdgP3scnJoA6Y37TSI6MBGDkbT610/hq6mE8KoCAM/dNLoXg+7l01HK4UAbT/OvTvDvg9rIKZlCBegHX+dAG9oFyv2CKFsA4+Xnr61sVTWxSIYiG0A8AE59+9W1GFAznAoAWiiigAooooAKKKKACuE8f/FXRPAkTQORfav8AKVsI32kA93bBCDHIyMnjjHI5H4w/Fy48OXJ8P+HZoxqG3/SrgfMYMgYVQRjdg5z24r5rkkeWRpJHZ3clmZjkknqSaANTxJ4j1PxXrk+r6tP5t1LgYUYVFHRVHYD/AOuckk1k0UUAFFFFABRRRQAUUUUAFFFFABRRRQAUUUUAWdOsJ9T1G3sbZS007hFA969qP7P99Ja70IRsDCGUZ5Azzj1rz74UWovPifoMRTcouN5GM8KpP9K+zaAPme3/AGe9beZvOmRYweMSDLfp9a1ZP2c5fIdk1BPM42pv9+edtfQdFAHzxb/s93ttIJHuI7jByFEmMcjviuu0D4THTZYVnSMxIeMPkrXrNFAFSx0620+2SCCMBVGM1boooAKKKKACiiigAooooAK4D4o/EKDwXoMi28qnVZhthjxnbn+Kr/jj4gaV4OsJfOnU3u07IhyQccZr5N8V+Kb/AMV6zNf3srNuPyKeiigDIurqa9u5rq4cvNM5d2J6k1DRRQAUUUUAFFFFABRRRQAUUUUAFFFFABRRXofw9+EeseOR9tkf+z9JVgDcyoS0vr5Y749c4+vIoA89VWdgqqWYnAAGSTXW6R8MPGuuAPZ+HrxYyR+8uFECkHuC+Mj6Zr6p8JfD/wAO+DLRI9LsUNyB895MA0zn3bt9BgV1FAHj/wAKPg/c+DdTOt61cQSX4jKQxQMWWMNwSSQMnHHHrXsFFFABRRRQAUUUUAFFFFABSMyopZiFUDJJOABVPVtWsND0ybUtTuo7WzgGZJZDwOw9ySeABya+afiJ8bdR8RPcaboLPZ6U2F8zG2WQd8nsD6UAfSCeItGkuTbrqloZR1XzRWgkschISRWI64Oa+C0vruOUSpdTLIDkMHOa6fw98R9f0C5jkW8lmjTgIzYwO/NAH2hWXrmt22jWEs0si+aFJRM8k14T4b+OV44jt76Vt5yBlN2Px7/0qpr/AIzl1a8aW4umZcf6vaflG31xzmgDzrxzq91q3ie6e4lLqrfIvpkCuaq5qrBtTnIxgtVOgAooooAKKKKACiiigAooooAKKKKACiiigD0/4HeELLxR4wkudQ2yW+mIs/2dkDLKxOFBz2B59+K+r0RY0VEUKijCqowAPQV8W/DvxnJ4G8Vw6oUkltSrR3EKHl1I7cgZBwea+hLf4+eCJrcyPPewsBkxvb89M4GDjtQB6fRXi99+0h4fhuNllo+oXMY/5aOUjz9Bk/0rjte/aK1+8Hl6LYW+nLz+8k/eufTgjA/WgD6Zor43f4v+PXlEn/CR3AIzgCOMD8tvP41b/wCF3/ELy1Qa8oK/xfY4Mn6/JQB9e1navr+kaDb+fq2pWtlHgkGeUKWx1wDyT7CvjfVPiJ4w1gv9t8R6iyuMNHHMYkI91TA/SuZJJJJOSepoA+k/F37QulWIltfDNs2oTYAF3KpSIHvhThmx+A+tUfh78c59S1j7F4nmhiSXiORUCqp9zXz1SglWDKSCDkEdqAPv0EMoZSCCMgjvVDWdc0zw/p0t/q17DaWsalmeQ9fYDqx9hkmvjmz+JPjOwtEtbbxHfpCg2qpk3YH1PPesTU9a1XWpRLqmpXd646G4mZ8fTJ4oA634m/Ei88faz8nmQaNbt/olq2M9MF3x1Y/kBwO5PCUUUAFFFFAEttIIrmN2ztVgTj0ruNPaC4t5CZVYIFLDGNuR16c5rgqs2t9cWZPkvgHqCMigCzqdosd7cKjLiMjcee/4Vm1aE3nsTLIqHjnZnP8AnNXrGziurGRfMUN645H+NAGPRSsNrEehxSUAFFFFABRRRQAUUUUAFFFFABRRRQAUUUUAFFFFABRRRQAUUUUAFFFFABRRRQAUUUUAFFFFABRRRQAVesdRmtTsWTanrjoao0UAK5BdiOhNJRRQAUUUUAFFFFABRRRQAUUUUAFFFFABRRRQAUUUUAFFFFABRRRQAUUUUAFFFFABRRRQAUUUUAFFFFABRRRQAUUUUAFFFFABRRRQAUUUUAFFFFABRRRQAUUUUAFFFFABRRRQAUUUUAFFFFABRRRQAUUUUAFFFFABRRRQAUUUUAFFFFABRRRQAUUUUAFFFFABRRRQAUUUUAFFFFABRRRQAUUUUAFFFFABRRRQAUUUUAFFFFABRRRQAUUUUAFFFFABRRRQAUUUUAFFFFABRRRQAUUUUAFFFFABRRRQAUUUUAFFFFABRRRQAUUUUAFFFFABRRRQAUUUUAFFFFABRRRQAUUUUAFFFFABRRRQB//Z;fontFamily=Times New Roman;" parent="1" vertex="1">
          <mxGeometry x="1710" y="-1658" width="256" height="256" as="geometry" />
        </mxCell>
        <mxCell id="Udkh_0XvXgFXBY_L_qVN-282" value="" style="endArrow=classic;html=1;rounded=0;exitX=0.5;exitY=0;exitDx=0;exitDy=0;strokeWidth=3;strokeColor=#FF0000;" parent="1" source="Udkh_0XvXgFXBY_L_qVN-222" edge="1">
          <mxGeometry width="50" height="50" relative="1" as="geometry">
            <mxPoint x="1350" y="-1580" as="sourcePoint" />
            <mxPoint x="1311" y="-1490" as="targetPoint" />
          </mxGeometry>
        </mxCell>
        <mxCell id="Udkh_0XvXgFXBY_L_qVN-284" value="" style="rounded=1;whiteSpace=wrap;html=1;dashed=1;strokeWidth=3;strokeColor=#FF0000;fillColor=none;" parent="1" vertex="1">
          <mxGeometry x="40" y="-1270" width="1420" height="530" as="geometry" />
        </mxCell>
      </root>
    </mxGraphModel>
  </diagram>
</mxfile>
